<?xml version="1.0" encoding="utf-8"?>
<!-- Generator: Adobe Illustrator 16.0.0, SVG Export Plug-In . SVG Version: 6.00 Build 0)  -->
<!DOCTYPE svg PUBLIC "-//W3C//DTD SVG 1.1//EN" "http://www.w3.org/Graphics/SVG/1.1/DTD/svg11.dtd">
<svg version="1.1"
	 id="svg4412" xmlns:dc="http://purl.org/dc/elements/1.1/" xmlns:cc="http://creativecommons.org/ns#" xmlns:rdf="http://www.w3.org/1999/02/22-rdf-syntax-ns#" xmlns:svg="http://www.w3.org/2000/svg" xmlns:sodipodi="http://sodipodi.sourceforge.net/DTD/sodipodi-0.dtd" xmlns:inkscape="http://www.inkscape.org/namespaces/inkscape" sodipodi:docname="octi-logo.svg" inkscape:version="0.91 r"
	 xmlns="http://www.w3.org/2000/svg" xmlns:xlink="http://www.w3.org/1999/xlink" x="0px" y="0px" width="321.896px"
	 height="70.908px" viewBox="73.309 74.129 321.896 70.908" enable-background="new 73.309 74.129 321.896 70.908"
	 xml:space="preserve">
<sodipodi:namedview  showgrid="false" inkscape:cy="632.81123" inkscape:cx="126.62182" inkscape:zoom="0.98994949" borderopacity="1.0" bordercolor="#666666" pagecolor="#ffffff" id="base" inkscape:window-maximized="1" inkscape:window-y="360" inkscape:current-layer="layer1" inkscape:document-units="px" inkscape:pageopacity="0.0" inkscape:window-x="0" inkscape:window-height="1025" inkscape:window-width="1920" inkscape:pageshadow="2">
	</sodipodi:namedview>
<path id="path6694_7_" inkscape:connector-curvature="0" fill="#00A1ED" d="M188.069,119c0,2.892-1.152,5.211-3.46,6.956
	c-2.097,1.59-4.647,2.385-7.655,2.385c-1.164,0-1.824-0.028-1.982-0.084c-0.33-0.154-0.491-0.63-0.491-1.425
	c0-0.43-0.054-1.068-0.161-1.921c-0.107-0.856-0.158-1.486-0.158-1.892c0-0.25,0.173-0.419,0.522-0.497
	c0.253-0.058,0.611-0.058,1.075,0c0.603,0.057,0.891,0.088,0.875,0.088c3.664,0,5.5-1.125,5.5-3.379
	c0-1.064-0.806-2.043-2.419-2.934c-2.616-1.437-4.122-2.32-4.51-2.65c-1.609-1.379-2.416-3.184-2.416-5.413
	c0-2.912,1.099-5.181,3.292-6.81c1.979-1.459,4.479-2.182,7.51-2.182c0.268,0,0.469,0.123,0.595,0.376
	c0.127,0.253,0.369,1.037,0.726,2.358c0.362,1.317,0.542,2.114,0.542,2.386c0,0.211-0.188,0.349-0.552,0.407
	c-1.245,0.173-2.497,0.338-3.757,0.496c-1.493,0.407-2.239,1.221-2.239,2.442c0,0.876,0.784,1.755,2.354,2.651
	c2.333,1.298,3.804,2.239,4.425,2.823C187.278,114.693,188.069,116.633,188.069,119"/>
<path id="path6696_7_" inkscape:connector-curvature="0" fill="#00A1ED" d="M209.985,110.562c0-1.61-0.633-3.038-1.904-4.279
	c-1.271-1.242-2.704-1.863-4.294-1.863c-1.782,0-3.372,0.719-4.755,2.156c-1.391,1.436-2.082,3.045-2.082,4.828
	c0,0.411,0.35,0.615,1.045,0.615c2.872,0,6.307-0.292,10.301-0.876C209.424,110.987,209.985,110.792,209.985,110.562
	 M216.91,112.335c0,1.436-0.619,2.397-1.858,2.88c-0.834,0.311-6.841,0.884-18.02,1.721c0.254,1.705,1.195,3.161,2.824,4.363
	c1.552,1.144,3.223,1.718,5.007,1.718c3.067,0,5.882-0.992,8.438-2.97c0.312-0.254,0.624-0.508,0.935-0.758
	c0.153,0,0.253,0.02,0.303,0.059c0.05,0.042,0.415,0.714,1.094,2.024c0.676,1.31,1.015,2.013,1.015,2.108
	c0,0.119-0.155,0.342-0.465,0.669c-2.85,3.03-6.511,4.54-10.969,4.54c-4.505,0-8.095-1.34-10.771-4.03
	c-2.677-2.688-4.018-6.272-4.018-10.754c0-3.999,1.282-7.479,3.841-10.447c2.696-3.089,6.006-4.624,9.925-4.624
	c3.649,0,6.694,1.336,9.141,4.013C215.719,105.449,216.91,108.61,216.91,112.335"/>
<path id="path6698_7_" inkscape:connector-curvature="0" fill="#00A1ED" d="M265.225,126.889c0,0.757-0.224,1.137-0.668,1.137
	c-0.292,0-0.73-0.031-1.325-0.092c-0.592-0.054-1.041-0.084-1.353-0.084c-0.33,0-0.826,0.019-1.486,0.057
	c-0.657,0.039-1.152,0.058-1.482,0.058c-0.407,0-0.611-0.453-0.611-1.367c0-0.891,0.035-2.227,0.101-4.002
	c0.068-1.775,0.103-3.107,0.103-4.002c0-4.91-0.019-7.644-0.058-8.208c-0.157-1.997-0.564-3.377-1.221-4.129
	c-0.756-0.818-2.107-1.222-4.048-1.222c-1.222,0-2.6,0.58-4.133,1.744c-1.59,1.222-2.416,2.428-2.473,3.607
	c-0.077,1.513-0.119,4.283-0.119,8.296c0,0.953,0.042,2.377,0.119,4.279c0.077,1.902,0.116,3.327,0.116,4.276
	c0,0.526-0.172,0.791-0.523,0.791c-0.349,0-0.856-0.031-1.528-0.092c-0.669-0.054-1.18-0.084-1.525-0.084
	c-0.312,0-0.768,0.019-1.372,0.057c-0.603,0.039-1.056,0.058-1.363,0.058c-0.393,0-0.588-0.28-0.588-0.846
	c0-0.929,0.03-2.331,0.088-4.201c0.061-1.874,0.088-3.276,0.088-4.209v-7.014c0-2.189-0.262-3.753-0.788-4.686
	c-0.738-1.317-2.14-1.974-4.216-1.974c-1.226,0-2.678,0.511-4.369,1.541c-1.862,1.124-2.792,2.258-2.792,3.403v8.5
	c0,0.972,0.007,2.416,0.027,4.336c0.02,1.921,0.031,3.358,0.031,4.305c0,0.566-0.227,0.846-0.669,0.846h-5.411
	c-0.391,0-0.583-0.261-0.583-0.783c0-1.572,0.008-3.937,0.026-7.086c0.02-3.157,0.03-5.517,0.03-7.086
	c0-3.552-0.379-7.095-1.136-10.628c-0.058-0.245-0.09-0.453-0.09-0.606c0-0.254,0.09-0.4,0.266-0.438
	c0.718-0.077,1.764-0.223,3.142-0.439c0.641-0.192,1.602-0.407,2.881-0.641l0.234-0.027c0.234,0,0.449,0.684,0.652,2.051
	c0.204,1.367,0.385,2.051,0.538,2.051l1.459-1.279c1.142-0.991,2.29-1.778,3.434-2.359c1.647-0.852,3.295-1.278,4.947-1.278
	c4.463,0,7.302,1.824,8.526,5.469c1.202-1.551,2.696-2.831,4.482-3.84c1.902-1.088,3.783-1.628,5.645-1.628
	c3.592,0,6.074,1.044,7.453,3.142c0.988,1.551,1.481,4.006,1.481,7.363c0,0.642-0.019,1.628-0.056,2.969
	c-0.039,1.337-0.062,2.328-0.062,2.969c0,1.221,0.032,3.062,0.093,5.516C265.198,123.828,265.225,125.667,265.225,126.889"/>
<path id="path6700_7_" inkscape:connector-curvature="0" fill="#00A1ED" d="M291.858,113.792c0-2.39-0.71-4.433-2.124-6.142
	c-1.499-1.84-3.407-2.766-5.734-2.766c-2.331,0-4.268,0.911-5.819,2.739c-1.499,1.745-2.243,3.802-2.243,6.169
	c0,2.35,0.744,4.387,2.243,6.111c1.552,1.805,3.488,2.707,5.819,2.707c2.269,0,4.171-0.921,5.705-2.765
	C291.14,118.116,291.858,116.1,291.858,113.792 M299.28,101.624c0,0.077-0.029,0.253-0.09,0.526
	c-0.758,4.442-1.133,8.272-1.133,11.496c0,0.195,0.238,4.551,0.725,13.066l0.027,0.406c0.023,0.566-0.232,0.846-0.768,0.846
	c-0.533,0-1.336,0.065-2.416,0.192c-1.076,0.123-1.874,0.185-2.4,0.185c-0.369,0-0.65-0.676-0.846-2.037
	c-0.195-1.355-0.377-2.035-0.553-2.035c-0.115,0-0.642,0.377-1.571,1.132c-1.145,0.935-2.217,1.64-3.204,2.128
	c-1.532,0.773-3.064,1.161-4.597,1.161c-3.765,0-6.937-1.501-9.517-4.509c-2.444-2.874-3.668-6.218-3.668-10.044
	c0-4.306,1.237-7.866,3.698-10.678c2.582-2.927,5.977-4.394,10.186-4.394c2.97,0,5.562,1.025,7.771,3.085
	c0.331,0.387,0.844,0.949,1.543,1.687l0.177,0.088c0.116,0,0.277-0.612,0.492-1.833c0.214-1.222,0.484-1.835,0.814-1.835
	c0.522,0,1.506,0.146,2.942,0.437C298.483,101.043,299.28,101.354,299.28,101.624"/>
<path id="path6702_7_" inkscape:connector-curvature="0" fill="#00A1ED" d="M320.233,122.609c0,0.426-0.037,1.007-0.117,1.749
	c-0.092,0.91-0.154,1.501-0.174,1.773c-0.018,0.351-0.049,0.562-0.088,0.643c-0.076,0.134-0.26,0.268-0.549,0.407
	c-1.594,0.753-4.1,1.132-7.514,1.132c-4.539,0-6.809-2.055-6.809-6.168c0-1.647,0.037-4.128,0.113-7.436
	c0.082-3.307,0.117-5.788,0.117-7.436c0-0.795-0.396-1.225-1.191-1.282c-0.717,0-1.43-0.009-2.125-0.027
	c-0.406-0.101-0.613-0.895-0.613-2.39c0-0.561,0.047-1.153,0.119-1.774c0.061-0.464,0.369-0.745,0.932-0.841
	c0.484,0,0.963-0.012,1.426-0.03c0.893-0.039,1.336-0.438,1.336-1.194c0-0.776-0.023-1.959-0.068-3.552
	c-0.049-1.588-0.076-2.785-0.076-3.577c0-1.418,0.273-2.128,0.816-2.128c0.174,0,1.998,0.303,5.475,0.902
	c0.441,0.062,0.67,0.272,0.67,0.642c0,0.852-0.064,2.135-0.193,3.84c-0.127,1.709-0.188,2.992-0.188,3.842
	c0,0.565,0.264,0.845,0.787,0.845h6.986c0.326,0,0.49,0.115,0.49,0.349s-0.033,0.607-0.098,1.122
	c-0.07,0.514-0.104,0.899-0.104,1.153c0,0.288,0.006,0.733,0.029,1.336c0.02,0.601,0.031,1.049,0.031,1.337
	c0,0.369-0.277,0.553-0.818,0.553c-0.777,0-1.951-0.054-3.52-0.157c-1.572-0.107-2.75-0.162-3.521-0.162
	c-0.156,0-0.273,0.553-0.35,1.659c-0.1,1.379-0.146,3.307-0.146,5.792v4.336c0,1.67,0.154,2.835,0.465,3.492
	c0.467,1.01,1.426,1.517,2.883,1.517c0.602,0,1.484-0.134,2.645-0.398c1.168-0.258,2.029-0.389,2.594-0.389
	C320.116,122.087,320.233,122.26,320.233,122.609"/>
<path id="path6704_7_" inkscape:connector-curvature="0" fill="#00A1ED" d="M342.116,110.562c0-1.61-0.629-3.038-1.902-4.279
	c-1.27-1.242-2.703-1.863-4.295-1.863c-1.781,0-3.371,0.719-4.752,2.156c-1.391,1.436-2.086,3.045-2.086,4.828
	c0,0.411,0.354,0.615,1.053,0.615c2.863,0,6.303-0.292,10.297-0.876C341.556,110.987,342.116,110.792,342.116,110.562
	 M349.048,112.335c0,1.436-0.621,2.397-1.865,2.88c-0.83,0.311-6.836,0.884-18.014,1.721c0.254,1.705,1.195,3.161,2.826,4.363
	c1.551,1.144,3.219,1.718,5.002,1.718c3.064,0,5.881-0.992,8.441-2.97c0.309-0.254,0.619-0.508,0.928-0.758
	c0.156,0,0.26,0.02,0.309,0.059c0.051,0.042,0.412,0.714,1.092,2.024s1.021,2.013,1.021,2.108c0,0.119-0.158,0.342-0.469,0.669
	c-2.854,3.03-6.51,4.54-10.973,4.54c-4.502,0-8.09-1.34-10.768-4.03c-2.68-2.688-4.016-6.272-4.016-10.754
	c0-3.999,1.277-7.479,3.84-10.447c2.695-3.089,6.004-4.624,9.924-4.624c3.65,0,6.695,1.336,9.139,4.013
	C347.854,105.449,349.048,108.61,349.048,112.335"/>
<path id="path6706_7_" inkscape:connector-curvature="0" fill="#00A1ED" d="M374.954,127.438c0,0.276-0.209,0.459-0.611,0.556
	c-0.293,0.058-0.711,0.065-1.258,0.031c-0.791-0.042-1.145-0.062-1.049-0.062c-1.527,0-2.451-0.172-2.762-0.525
	c-1.186-1.763-2.988-4.352-5.414-7.771c-0.465-0.619-0.729-0.929-0.783-0.929c-0.178,0-1.26,1.487-3.262,4.451
	c-2.035,3.027-3.27,4.583-3.699,4.661c-0.422,0.077-1.801,0.114-4.129,0.114c-0.467,0-0.699-0.172-0.699-0.525v-3.169
	c0-0.215,1.287-1.882,3.871-5.004c2.582-3.124,3.873-4.844,3.873-5.151c0-0.292-1.291-1.99-3.873-5.097
	c-2.584-3.104-3.871-4.809-3.871-5.121v-3.115c0-0.388,0.232-0.584,0.699-0.584c0.484,0,1.211,0.04,2.182,0.121
	c0.971,0.076,1.699,0.115,2.182,0.115c0.273,0,0.516,0.134,0.73,0.407c1.143,1.767,2.891,4.367,5.238,7.801
	c0.461,0.638,0.715,0.96,0.758,0.96c0.055,0,0.268-0.253,0.637-0.757c1.131-1.531,2.98-4.24,5.561-8.119
	c0.193-0.278,0.416-0.407,0.67-0.407c0.482,0,1.201-0.02,2.154-0.062c0.949-0.039,1.66-0.059,2.125-0.059
	c0.482,0,0.73,0.197,0.73,0.584v3.054c0,0.354-1.301,2.078-3.889,5.182c-2.592,3.106-3.887,4.812-3.887,5.12
	c0,0.195,1.295,1.855,3.887,4.982c2.588,3.122,3.889,4.858,3.889,5.208V127.438"/>
<path id="path6708_7_" inkscape:connector-curvature="0" fill="#00A1ED" d="M395.204,122.609c0,0.426-0.033,1.007-0.113,1.749
	c-0.096,0.91-0.158,1.501-0.174,1.773c-0.018,0.351-0.051,0.562-0.092,0.643c-0.072,0.134-0.256,0.268-0.549,0.407
	c-1.594,0.753-4.098,1.132-7.51,1.132c-4.539,0-6.809-2.055-6.809-6.168c0-1.647,0.037-4.128,0.115-7.436
	c0.076-3.307,0.115-5.788,0.115-7.436c0-0.795-0.396-1.225-1.191-1.282c-0.721,0-1.428-0.009-2.127-0.027
	c-0.408-0.101-0.611-0.895-0.611-2.39c0-0.561,0.043-1.153,0.115-1.774c0.062-0.464,0.371-0.745,0.932-0.841
	c0.484,0,0.961-0.012,1.428-0.03c0.895-0.039,1.34-0.438,1.34-1.194c0-0.776-0.023-1.959-0.074-3.552
	c-0.049-1.588-0.072-2.785-0.072-3.577c0-1.418,0.273-2.128,0.816-2.128c0.174,0,1.994,0.303,5.471,0.902
	c0.447,0.062,0.67,0.272,0.67,0.642c0,0.852-0.062,2.135-0.195,3.84c-0.121,1.709-0.188,2.992-0.188,3.842
	c0,0.565,0.266,0.845,0.789,0.845h6.986c0.33,0,0.494,0.115,0.494,0.349s-0.033,0.607-0.104,1.122
	c-0.068,0.514-0.098,0.899-0.098,1.153c0,0.288,0.006,0.733,0.025,1.336c0.02,0.601,0.031,1.049,0.031,1.337
	c0,0.369-0.27,0.553-0.818,0.553c-0.775,0-1.947-0.054-3.518-0.157c-1.572-0.107-2.748-0.162-3.523-0.162
	c-0.156,0-0.273,0.553-0.35,1.659c-0.096,1.379-0.145,3.307-0.145,5.792v4.336c0,1.67,0.156,2.835,0.463,3.492
	c0.471,1.01,1.43,1.517,2.881,1.517c0.604,0,1.486-0.134,2.652-0.398c1.162-0.258,2.027-0.389,2.592-0.389
	C395.091,122.087,395.204,122.26,395.204,122.609"/>
<g id="g6710" transform="matrix(0.76153157,0,0,0.76153157,25.201809,-59.118831)">
	<path id="path6712" inkscape:connector-curvature="0" fill="#00A1ED" d="M136.671,175.753c-3.343-0.018-5.679,0.306-5.679,0.306
		c-23.169-0.297-24.412,30.017-24.412,30.017c-1.078,0-2.428,0.134-3.371,0.809c-6.205,4.721-0.946,10.519-0.946,10.519
		c-0.473,0.403-0.898,0.784-1.32,1.164c-0.336-0.519-0.657-1.189-0.884-1.867c-6.743-0.134-9.44-1.888-9.98-4.72
		c-0.674-3.371,1.214-7.147,4.451-7.012c4.72,0.135,2.428,3.102,1.754,3.102c-0.675,0-1.08-0.271-1.35-0.541
		c-0.405-0.405-0.946-0.133-0.946,0.406c0,1.349,1.485,3.235,4.452,1.752c2.698-1.35,2.832-3.507,2.022-5.26
		c-0.809-2.158-2.426-3.237-4.314-3.641l-0.135-0.404c0-0.405-0.406-0.675-0.675-0.675l-1.35-0.135
		c-0.405,0-0.673,0.137-0.809,0.541l-0.133,0.673c-1.214,0.135-2.428,0.406-3.373,0.81L89,201.057c-0.269-0.271-0.673-0.135-0.944,0
		l-0.944,0.81c-0.271,0.269-0.405,0.537-0.271,0.942l0.271,0.541c-0.675,0.674-1.484,1.617-2.023,2.56l-0.404-0.133
		c-0.405-0.135-0.676,0.134-0.946,0.405l-0.539,1.214c-0.134,0.269-0.134,0.674,0.135,0.943l0.404,0.54
		c-0.944,3.641,0.137,8.092,6.205,12.138c0.81,0.539,1.482,0.943,2.156,1.348l-0.269,1.35c-0.135,0.405,0.135,0.945,0.54,1.079
		l1.483,0.675c0.371,0.122,0.742,0.117,1.112-0.193c-2.58,3.818-3.727,7.181-8.617,12.494c-2.699,2.968-5.8,4.315-8.633,4.315
		c-4.45,0-8.093-3.505-7.688-8.63c0.271-3.777,3.104-6.07,6.205-6.61c0.405-0.134,0.808-0.133,1.212-0.133
		c3.371,0,4.992,2.831,3.643,5.529c0,0-1.08,2.697-3.237,2.833h-0.136c-2.023,0-1.753-2.293-1.078-2.833
		c0.135-0.135,0.404-0.135,0.539-0.135c0.405,0,0.675,0.271,1.079,0.271c0.135,0,0.269,0,0.404-0.135
		c0.944-0.405,0.81-1.212,0.81-1.212c-0.135-1.078-0.946-1.484-2.025-1.484c-0.674,0-1.482,0.269-2.022,0.538
		c-2.024,1.08-2.562,4.048-1.213,5.937c0.81,1.214,2.158,1.888,3.777,1.888c2.831,0,6.339-2.024,7.686-6.071
		c1.349-3.911-1.62-10.519-8.497-10.519c-1.484,0-3.103,0.269-4.856,0.943c-14.836,5.394-7.958,30.482,5.124,30.482
		c0.674,0,1.216,0,1.89-0.135c2.832-0.539,5.394-1.888,7.822-3.641l0.271,0.269c0.269,0.269,0.539,0.406,0.808,0.406
		c0.269,0,0.539-0.135,0.809-0.271l1.214-1.079c0.405-0.269,0.539-0.81,0.404-1.35l-0.269-0.808
		c0.943-0.809,1.753-1.753,2.562-2.563l0.405,0.269c0.269,0.135,0.405,0.135,0.675,0.135c0.405,0,0.675-0.135,0.944-0.405
		l0.946-1.214c0.269-0.405,0.404-0.943,0.133-1.348l-0.404-0.675c0.809-1.08,1.618-2.022,2.427-2.967l0.271,0.135
		c0.134,0.135,0.405,0.134,0.675,0.134c0.405,0,0.673-0.135,0.944-0.54l0.944-1.213c0.271-0.405,0.405-0.945,0.135-1.35l-0.271-0.54
		c1.483-1.754,2.699-2.831,3.643-2.831c0.539,0,0.943,0.403,1.348,1.212c0.271,0.539,0.539,1.216,1.079,2.025l-0.135,0.133
		c-0.54,0.405-0.673,1.08-0.269,1.618l0.808,1.35c0.269,0.405,0.675,0.54,1.079,0.54h0.269h0.271c0.54,0.943,1.08,1.888,1.754,2.966
		c-0.54,0.405-0.675,1.079-0.271,1.619l0.81,1.348c0.269,0.405,0.673,0.539,1.077,0.539h0.271l0.404-0.133
		c0.54,0.943,1.214,1.886,1.89,2.831l-0.135,0.136c-0.405,0.405-0.541,1.08-0.135,1.618l0.943,1.212
		c0.269,0.271,0.541,0.539,0.946,0.539h0.404l0.269-0.133c6.069,8.633,13.487,16.723,19.152,16.723h0.269
		c10.116-0.403,9.578-21.308,2.429-21.308c-0.405,0-0.81-0.001-1.214,0.134c-4.585,1.349-4.316,7.013-4.316,7.013
		s2.292-3.237,3.642-3.237c1.078,0,1.754,1.618,0.945,7.147c-0.271,2.023-1.079,2.968-2.022,2.968
		c-5.125,0-17.804-24.682-17.804-28.997c0-0.405,0.27-0.541,0.675-0.541c0.539,0,1.214,0.272,2.294,0.676l-0.271,0.942
		c-0.134,0.54,0.135,1.214,0.675,1.485l1.484,0.539c0.135,0,0.269,0.135,0.404,0.135c0.269,0,0.675-0.137,0.946-0.406l0.673-0.809
		c0.675,0.405,1.484,0.81,2.294,1.214l-0.271,1.077c-0.135,0.54,0.137,1.215,0.675,1.486l1.485,0.539
		c0.134,0,0.269,0.135,0.404,0.135c0.269,0,0.675-0.137,0.944-0.406l0.675-0.673c0.943,0.539,2.023,1.078,3.101,1.752l-0.271,0.944
		c-0.134,0.539,0.135,1.214,0.675,1.483l1.483,0.541c0.135,0,0.269,0.134,0.404,0.133c0.269,0,0.675-0.133,0.946-0.404l0.537-0.539
		c1.08,0.539,2.16,1.213,3.104,1.752l-0.271,0.946c-0.134,0.54,0.135,1.214,0.675,1.483l1.484,0.54c0.135,0,0.269,0.135,0.404,0.135
		c0.269,0,0.675-0.135,0.946-0.404l0.537-0.54c4.047,2.158,8.228,4.315,12.139,6.068c5.124,2.293,10.385,3.641,14.836,3.641
		c5.799,0,10.385-2.291,11.464-8.226c0-0.134,0-0.405,0.135-0.539l0.541-0.135c0.539-0.135,1.077-0.674,1.077-1.079l0.135-1.212
		c0.269-0.54,0.001-0.81-0.404-0.946h-0.809c0-1.483-0.272-2.696-0.541-3.91l0.406-0.54c0.405-0.539,0.405-1.214,0.135-1.483
		l-0.676-0.946c-0.134-0.134-0.809-0.269-1.483-0.269h-0.136c-0.809-1.078-1.751-1.889-2.831-2.564l-0.269-1.213
		c-0.135-0.539-0.541-1.079-1.079-1.214l-1.214-0.133c-0.271,0-0.945,0.537-1.35,1.077c-0.809-0.135-1.617-0.269-2.561-0.269
		c-4.45,0-8.634,2.292-9.038,6.608c-0.135,1.888-0.135,4.182,3.777,6.474c1.078,0.675,2.294,0.946,3.373,0.946
		c3.237,0,6.204-2.024,5.395-4.991c-0.54-2.292-2.158-3.102-3.777-3.102c-1.214,0-2.293,0.541-2.833,1.079
		c-0.943,1.349-0.27,2.967,0.675,2.967c0.944,0,0.675-0.809,0.675-0.809c-0.54-0.944,0.134-1.35,1.077-1.35
		c0.809,0,1.754,0.405,1.754,1.483c0.135,1.484-1.753,2.023-2.427,2.158h-0.135c-4.315,0-4.18-4.046-3.371-4.989
		c1.214-1.754,2.965-2.427,4.45-2.427c3.911,0,7.554,4.179,5.126,9.17c-0.809,1.752-2.16,3.237-5.126,3.237
		c-1.754,0-4.181-0.539-7.418-2.022c-11.055-4.755-26.542-11.956-30.284-18.557c2.354,0.648,5.867,1.426,7.086,1.831v0.946
		c0,0.405,0.271,0.809,0.675,0.944l1.483,0.539c0.405,0.135,0.945-0.001,1.214-0.406l0.54-0.809c1.078,0.271,2.292,0.405,3.506,0.54
		l0.404,1.214c0.135,0.405,0.541,0.673,0.946,0.673l1.618-0.134c0.403,0,0.809-0.403,0.944-0.809l0.135-0.81
		c1.348-0.135,2.696-0.27,4.045-0.675l0.944,0.944c0.271,0.269,0.808,0.406,1.212,0.271l1.485-0.675
		c0.405-0.135,0.675-0.674,0.54-1.079l-0.135-1.079c0.943-0.405,1.753-0.943,2.697-1.618c11.194-7.417,5.529-13.622,1.888-16.588
		c-3.507-2.968,0.54-5.801,4.856-5.801c1.214,0,3.372,0.135,4.72,0.271c0.271,0,0.405-0.405,0.135-0.539
		c-3.373-1.888-6.473-2.159-8.902-1.484l-0.271-0.271c-0.269-0.269-0.539-0.404-0.944-0.269l-1.214,0.539
		c-0.405,0.135-0.537,0.54-0.537,0.81v0.404c-0.675,0.405-1.214,0.809-1.619,1.348l-0.539-0.269
		c-0.183-0.061-0.335-0.032-0.464,0.035c2.61-7.424-1.67-16.299-1.67-16.299C156.255,177.487,144.026,175.793,136.671,175.753z
		 M159.854,206.419c0.035,0.069,0.076,0.137,0.135,0.196l0.271,0.269c-0.405,0.944-0.539,1.754-0.539,2.563l-0.542,0.538
		c-0.269,0.271-0.269,0.676-0.133,0.946l0.675,1.212c0.135,0.269,0.539,0.541,0.943,0.406l0.54-0.135
		c1.214,1.349,2.698,2.158,2.294,4.45c-0.54,2.967-3.777,4.856-11.87,4.72c-4.247-0.114-10.015-2.529-12.976-4.079
		c1.597-0.632,3.425-1.148,5.376-2.002c2.358-0.33,5.903-1.239,11.439-4.667C157.476,209.594,158.884,208.075,159.854,206.419
		L159.854,206.419z M125.868,209.584c2.832,0,5.124,2.292,5.124,5.124c0,2.832-2.292,5.124-5.124,5.124s-5.124-2.292-5.124-5.124
		C120.744,211.876,123.036,209.584,125.868,209.584z"/>
	<path id="path6714" inkscape:connector-curvature="0" fill="#00A1ED" d="M122.765,213.09c0,0-0.674,3.777,2.968,3.777
		c3.64,0,2.966-3.777,2.966-3.777C125.598,214.977,122.765,213.09,122.765,213.09"/>
</g>
</svg>
