<svg width="24" height="24" viewBox="0 0 24 24" fill="none" xmlns="http://www.w3.org/2000/svg">
<path d="M12 7L4.5 8.5L4 15.5L12.5 17.5L19 15.5L19.5 8.5L12 7Z" fill="white"/>
<path d="M12 2C6.48641 2 2 6.4713 2 12C2 17.5136 6.4713 22 12 22C17.5136 22 22 17.5287 22 12C22 6.4713 17.5136 2 12 2ZM18.7523 13.7523C18.7523 14.3565 18.4048 14.8852 17.7251 15.006C16.5468 15.2174 14.0695 15.3384 12 15.3384C9.93051 15.3384 7.45317 15.2174 6.27492 15.006C5.59517 14.8852 5.24773 14.3565 5.24773 13.7523V9.85499C5.24773 9.25076 5.71601 8.69184 6.27492 8.60121C6.62236 8.54079 7.43807 8.48036 8.07251 8.48036C8.3142 8.48036 8.51057 8.66163 8.51057 8.94864V11.6828L12.0151 11.6073L15.5196 11.6828V8.94864C15.5196 8.66163 15.716 8.48036 15.9577 8.48036C16.5921 8.48036 17.4079 8.54079 17.7553 8.60121C18.3293 8.69184 18.7825 9.25076 18.7825 9.85499C18.7523 11.139 18.7523 12.4532 18.7523 13.7523Z" fill="#ED2226"/>
</svg>
