<svg xmlns="http://www.w3.org/2000/svg" width="98.32283425331116" height="65.14960622787476" style=""><rect id="backgroundrect" width="100%" height="100%" x="0" y="0" fill="none" stroke="none" style="" class=""/>
  
<g class="currentLayer" style=""><title>Layer 1</title><g fill="none" id="svg_1" class="selected">
    <g fill="#111" id="svg_2">
      <polygon points="23.559053952581962,11.811023819642742 46.33070891254465,24.598425430026737 23.559053952581962,37.38583159058953 0.7874006697185365,24.598425430026737 " id="svg_3"/>
      <polygon points="23.559053952581962,50.74866018757666 5.15386663355207,40.4146171577695 0.7874006697185365,42.86614429137899 23.559053952581962,55.65354817685238 46.33070891254465,42.86614429137899 41.964240104934106,40.4146171577695 " id="svg_4"/>
      <polygon points="23.559053952581962,41.61480871971344 5.15386663355207,31.280758864638074 0.7874006697185365,33.73228599824756 23.559053952581962,46.51968760863156 46.33070891254465,33.73228599824756 41.964240104934106,31.280758864638074 " id="svg_5"/>
    </g>
    <path fill="#000" d="M52.80929378178644,41.044498409171865 L50.12598629477543,41.044498409171865 L50.12598629477543,28.251971022368707 L52.80929378178644,28.251971022368707 L52.80929378178644,41.044498409171865 zM64.35484411220568,41.044498409171865 L61.671536625194676,41.044498409171865 L57.74695401477675,32.65379351851129 L57.74695401477675,41.044498409171865 L55.06364186105475,41.044498409171865 L55.06364186105475,28.251971022368707 L57.74695401477675,28.251971022368707 L61.68065537847451,36.65146003320433 L61.68065537847451,28.251971022368707 L64.35484411220568,28.251971022368707 L64.35484411220568,41.044498409171865 zM73.36310367586611,35.82557072959753 L69.19211405831993,35.82557072959753 L69.19211405831993,41.044498409171865 L66.50879257117595,41.044498409171865 L66.50879257117595,28.251971022368707 L73.86509244393437,28.251971022368707 L73.86509244393437,30.40456050911962 L69.19211405831993,30.40456050911962 L69.19211405831993,33.68176536302167 L73.36310367586611,33.68176536302167 L73.36310367586611,35.82557072959753 zM79.42338323856166,36.370304485099496 L78.09085058169148,36.370304485099496 L78.09085058169148,41.044498409171865 L75.40754776139147,41.044498409171865 L75.40754776139147,28.251971022368707 L79.68806041922653,28.251971022368707 C81.0327638583658,28.251971022368707 82.07170439326,28.587300999276522 82.80490069075313,29.257976878717955 C83.53810632166824,29.928650483069987 83.90469513699281,30.881931142564326 83.90469513699281,32.11784615827378 C83.90469513699281,33.816493882225586 83.2627797065179,35.00552840574983 81.97891151188014,35.68499295554511 L84.30628428476302,40.92148887546955 L84.30628428476302,41.044498409171865 L81.42216355702294,41.044498409171865 L79.42338323856166,36.370304485099496 zM78.09085058169148,34.217717273437984 L79.61504505903395,34.217717273437984 C80.15049414492023,34.217717273437984 80.55207395926845,34.04638939104939 80.81980316892259,33.703731351182796 C81.08752304515474,33.361073311316204 81.22137364984883,32.902738350884874 81.22137364984883,32.328710544263004 C81.22137364984883,31.045933237083545 80.70115670864288,30.40456050911962 79.66067615912107,30.40456050911962 L78.09085058169148,30.40456050911962 L78.09085058169148,34.217717273437984 zM92.09153423184216,38.426243623941446 L88.4316381355111,38.426243623941446 L87.71975004041087,41.044498409171865 L84.8812697461799,41.044498409171865 L89.0340265238774,28.251971022368707 L91.48916451031982,28.251971022368707 L95.66929621470081,41.044498409171865 L92.80343166036437,41.044498409171865 L92.09153423184216,38.426243623941446 zM89.01576101705177,36.273658687369334 L91.49829259702165,36.273658687369334 L90.2570314737477,31.71368335155603 L89.01576101705177,36.273658687369334 z" id="svg_6"/>
  </g></g></svg>