<svg width="20" height="20" viewBox="0 0 20 20" fill="none" xmlns="http://www.w3.org/2000/svg">
<path d="M8.50309 12.0182L8.50893 12.0268L7.67641 14.0991C6.87753 13.5721 6.26971 12.7881 5.94721 11.8688L8.09558 11.4935L8.09892 11.4978C8.16415 11.4854 8.2314 11.4915 8.29353 11.5154C8.35566 11.5393 8.41033 11.5802 8.45171 11.6336C8.4931 11.687 8.51966 11.751 8.52856 11.8187C8.53746 11.8864 8.52837 11.9554 8.50226 12.0182H8.50309ZM7.80891 10.1898C7.87288 10.1717 7.93089 10.1362 7.97679 10.0868C8.02268 10.0375 8.05473 9.97624 8.06952 9.90961C8.08432 9.84299 8.0813 9.77348 8.06079 9.70849C8.04029 9.64349 8.00306 9.58544 7.95308 9.54052L7.95475 9.53108L6.32055 8.02472C5.82202 8.86099 5.60798 9.84457 5.71221 10.8202L7.80725 10.1975L7.80891 10.1898ZM8.7631 8.48934C8.81672 8.52967 8.87996 8.55424 8.94608 8.56043C9.01219 8.56662 9.07869 8.5542 9.13849 8.52449C9.19829 8.49478 9.24914 8.44889 9.28562 8.39173C9.32209 8.33457 9.34283 8.26827 9.34561 8.19992L9.35394 8.19562L9.47894 5.94554C8.5325 6.05955 7.64989 6.4953 6.97056 7.18394L8.75976 8.49191L8.7631 8.4902V8.48934ZM9.39644 10.8511L9.99895 11.1508L10.6006 10.8528L10.7506 10.1829L10.334 9.64788H9.66395L9.24727 10.1829L9.39644 10.8519V10.8511ZM10.6465 8.19305C10.6493 8.26147 10.6701 8.32782 10.7067 8.385C10.7433 8.44218 10.7942 8.48804 10.8541 8.51768C10.914 8.54731 10.9806 8.55961 11.0468 8.55326C11.113 8.5469 11.1762 8.52214 11.2298 8.48161L11.2365 8.48418L13.0148 7.1848C12.3379 6.50157 11.4618 6.06646 10.5215 5.94639L10.6448 8.19219L10.6465 8.19305ZM19.71 13.3202L14.899 19.4873C14.7737 19.647 14.6152 19.7758 14.4352 19.8641C14.2553 19.9523 14.0583 19.9979 13.859 19.9974L6.14138 20C5.94206 20.0002 5.74524 19.9543 5.5654 19.8657C5.38556 19.7771 5.22727 19.6481 5.1022 19.4881L0.28878 13.3219C0.16493 13.1622 0.0776097 12.9758 0.0333155 12.7766C-0.0109787 12.5773 -0.0111064 12.3704 0.032942 12.1711L1.74964 4.4804C1.83964 4.07676 2.10381 3.73839 2.46882 3.5589L9.42061 0.13481C9.6008 0.0460625 9.79799 0 9.9977 0C10.1974 0 10.3946 0.0460625 10.5748 0.13481L17.5291 3.55718C17.8941 3.73667 18.1583 4.0759 18.2483 4.47868L19.9666 12.1693C20.0566 12.573 19.9625 12.9964 19.71 13.3202ZM16.9691 11.5536C16.9341 11.545 16.8832 11.5313 16.8482 11.5244C16.7032 11.496 16.5857 11.5029 16.4491 11.4917C16.1574 11.46 15.9174 11.4342 15.7032 11.3646C15.6157 11.3303 15.5532 11.2229 15.5232 11.1791L15.3557 11.1285C15.445 10.461 15.4153 9.78226 15.2682 9.12572C15.1208 8.46249 14.8564 7.83283 14.4882 7.26811C14.5315 7.22774 14.6132 7.15388 14.6357 7.13155C14.6424 7.05426 14.6365 6.97439 14.714 6.88937C14.8782 6.73049 15.084 6.59909 15.3332 6.44107C15.4515 6.36893 15.5607 6.32341 15.6791 6.23324C15.7057 6.21263 15.7424 6.17999 15.7707 6.1568C15.9707 5.99277 16.0166 5.71022 15.8732 5.52472C15.7299 5.33921 15.4515 5.32204 15.2524 5.48607C15.224 5.50926 15.1857 5.53932 15.1599 5.56165C15.0482 5.66127 14.979 5.75917 14.8849 5.86223C14.6799 6.07693 14.5099 6.25557 14.324 6.38525C14.2432 6.43334 14.1249 6.41702 14.0715 6.41359L13.9132 6.52953C13.0017 5.54378 11.774 4.93253 10.4581 4.80933L10.4481 4.61781C10.394 4.56456 10.329 4.51905 10.3123 4.40311C10.294 4.17295 10.3248 3.92475 10.3598 3.62588C10.379 3.4859 10.4106 3.36996 10.4165 3.21795C10.4173 3.18359 10.4156 3.13292 10.4156 3.096C10.4156 2.8332 10.229 2.61935 9.99895 2.61935C9.76978 2.61935 9.58311 2.8332 9.58311 3.096L9.58394 3.10802C9.58394 3.14323 9.58228 3.18703 9.58394 3.21795C9.58894 3.36996 9.62061 3.4859 9.63978 3.62588C9.67478 3.92475 9.70478 4.17295 9.68645 4.40397C9.6628 4.48955 9.61597 4.56641 9.55144 4.62554L9.54144 4.80675C8.21717 4.91634 6.97975 5.52947 6.06972 6.52695C6.01925 6.49099 5.96924 6.45434 5.91971 6.41702C5.84471 6.42733 5.76971 6.45138 5.67221 6.39212C5.48637 6.2633 5.31637 6.08466 5.11136 5.86996C5.0172 5.7669 4.94886 5.669 4.83719 5.57023C4.81219 5.5479 4.77303 5.51699 4.74469 5.49466C4.6623 5.42583 4.56064 5.38609 4.45469 5.3813C4.39177 5.37785 4.32894 5.38974 4.27132 5.41601C4.21369 5.44227 4.16288 5.48216 4.12301 5.53245C3.97968 5.71795 4.02551 6.00136 4.22552 6.16539L4.23135 6.16969L4.31802 6.24097C4.43635 6.33114 4.54469 6.37752 4.66302 6.4488C4.9122 6.60768 5.11803 6.73908 5.2822 6.8971C5.34554 6.96752 5.3572 7.09119 5.36554 7.14444L5.49887 7.26725C4.76248 8.40516 4.45978 9.78325 4.64886 11.1371L4.47552 11.1886C4.42969 11.2504 4.36469 11.3466 4.29635 11.3749C4.08218 11.4445 3.84134 11.4694 3.5505 11.5012C3.41384 11.5132 3.29633 11.5063 3.1505 11.5347C3.11966 11.5407 3.0755 11.5519 3.03966 11.5605L3.03633 11.5622L3.0305 11.5639C2.78466 11.6249 2.62715 11.8576 2.67799 12.086C2.72882 12.3153 2.96883 12.4545 3.2155 12.3995L3.22133 12.3987L3.22967 12.3961L3.33717 12.3712C3.47884 12.3317 3.58217 12.2741 3.71051 12.2235C3.98551 12.1221 4.21385 12.0371 4.43552 12.0036C4.52885 11.9959 4.62719 12.0629 4.67552 12.0903L4.85636 12.0586C5.26366 13.3554 6.11734 14.4539 7.2564 15.1469L7.1814 15.3341C7.2089 15.4062 7.2389 15.505 7.21807 15.5763C7.13723 15.7927 6.9989 16.0203 6.8414 16.2745C6.76556 16.3913 6.68723 16.4823 6.61806 16.6171C6.60139 16.6489 6.58056 16.6987 6.56472 16.7322C6.45806 16.9684 6.53639 17.2398 6.74223 17.342C6.9489 17.445 7.20557 17.336 7.31724 17.0998V17.0981C7.3339 17.0646 7.35557 17.0208 7.36891 16.989C7.42724 16.8499 7.44724 16.7305 7.48891 16.5957C7.59891 16.3105 7.65974 16.0117 7.81141 15.8253C7.85308 15.7738 7.91975 15.7549 7.99058 15.7351L8.08475 15.5591C9.32017 16.0497 10.6878 16.0533 11.9257 15.5694L12.014 15.7343C12.0857 15.7583 12.164 15.7703 12.2273 15.8674C12.3407 16.0666 12.4182 16.3028 12.5123 16.5888C12.554 16.7228 12.574 16.8421 12.6332 16.9813C12.6465 17.0131 12.669 17.0586 12.6848 17.0921C12.7957 17.3291 13.0532 17.4373 13.2598 17.3342C13.4657 17.2329 13.544 16.9607 13.4373 16.7245C13.4207 16.691 13.3998 16.642 13.3832 16.6094C13.314 16.4754 13.2357 16.3853 13.1598 16.2676C13.0015 16.0134 12.8715 15.803 12.7907 15.5866C12.7573 15.4749 12.7965 15.4062 12.8223 15.3341C12.8073 15.3152 12.7732 15.2104 12.7532 15.1606C13.8964 14.4623 14.7506 13.3552 15.1532 12.05C15.2065 12.0586 15.2999 12.0757 15.3307 12.0826C15.3932 12.0397 15.4507 11.9847 15.564 11.9933C15.7857 12.0268 16.0141 12.1118 16.2891 12.2131C16.4174 12.2647 16.5199 12.3231 16.6624 12.3617C16.6924 12.3703 16.7357 12.378 16.7707 12.3858L16.7782 12.3883L16.7841 12.3892C17.0316 12.4442 17.2707 12.305 17.3216 12.0757C17.3716 11.8473 17.2149 11.6146 16.9691 11.5536ZM13.6665 8.02558L12.0415 9.52506V9.52936C11.9913 9.57424 11.9539 9.63234 11.9332 9.69745C11.9126 9.76256 11.9095 9.83222 11.9243 9.899C11.9391 9.96577 11.9712 10.0271 12.0173 10.0765C12.0633 10.1259 12.1215 10.1615 12.1857 10.1795L12.1882 10.1881L14.2932 10.8133C14.3389 10.3322 14.3085 9.84667 14.2032 9.37563C14.0973 8.89808 13.916 8.4417 13.6665 8.02472V8.02558ZM10.3223 12.5988C10.2901 12.5362 10.2414 12.4843 10.1819 12.449C10.1223 12.4138 10.0543 12.3966 9.98562 12.3995C9.92147 12.402 9.85908 12.4218 9.80467 12.4569C9.75027 12.492 9.70577 12.5412 9.67561 12.5996H9.67395L8.61726 14.568C9.51561 14.8839 10.4901 14.8848 11.389 14.5706L10.3306 12.5988H10.3223ZM11.8957 11.4883C11.8194 11.4738 11.7406 11.4847 11.6706 11.5192C11.585 11.5614 11.5186 11.6362 11.4853 11.7278C11.4521 11.8194 11.4546 11.9207 11.4923 12.0105L11.4898 12.0139L12.3315 14.1077C13.1357 13.5786 13.7459 12.7883 14.0657 11.8619L11.899 11.484L11.8957 11.4883Z" fill="#326DE6"/>
</svg>
