<svg width="24" height="24" viewBox="0 0 24 24" fill="none" xmlns="http://www.w3.org/2000/svg">
<path d="M12.3949 1.00023C11.851 0.994311 11.3005 1.10452 10.8217 1.36254C10.3129 1.63677 9.89602 2.0754 9.63919 2.59324C9.38248 3.11085 9.28161 3.66366 9.26635 4.27251C9.23735 5.42932 9.29244 6.64266 9.37971 7.74218C9.40288 8.07697 9.44448 8.27291 9.40194 8.61649C9.25881 9.34713 8.61945 9.83893 8.27868 10.4807C7.90275 11.1886 7.74428 11.9891 7.46053 12.7388C7.20086 13.4248 6.83629 14.0681 6.59022 14.7592C6.24615 15.7255 6.1433 16.7873 6.37061 17.7875C6.54389 18.55 6.90586 19.265 7.3937 19.8765C7.3231 20.0038 7.25468 20.1324 7.18179 20.2583C6.95573 20.6488 6.67955 21.019 6.55081 21.4515C6.48643 21.6677 6.46109 21.8984 6.50264 22.1201C6.5442 22.3419 6.6564 22.554 6.83281 22.6946C6.94829 22.7867 7.08754 22.846 7.23143 22.8793C7.37532 22.9126 7.52404 22.9206 7.6717 22.9175C8.23274 22.9056 8.77632 22.735 9.3191 22.5925C9.64076 22.5081 9.9648 22.4331 10.2905 22.3658C11.4468 22.1289 12.7374 22.2235 13.8108 22.3791C14.1744 22.434 14.5354 22.5059 14.8927 22.5925C15.4525 22.7282 16.0103 22.9011 16.5859 22.9175C16.7375 22.9218 16.8902 22.9152 17.0382 22.8822C17.1862 22.8493 17.3297 22.7892 17.4482 22.6946C17.625 22.5537 17.7372 22.3413 17.7787 22.1191C17.8202 21.8969 17.7946 21.6656 17.7295 21.4491C17.5994 21.0162 17.3207 20.6468 17.0895 20.2583C16.9983 20.105 16.9134 19.9478 16.8229 19.7942C17.5185 19.013 18.0784 18.1096 18.4023 17.1173C18.7557 16.0342 18.8207 14.868 18.6718 13.7385C18.523 12.6089 18.1648 11.5138 17.6932 10.4767C17.1016 9.17636 16.6042 8.70652 16.2438 7.56465C15.8542 6.33049 16.1759 4.87011 15.8863 3.75074C15.783 3.37007 15.6183 3.00668 15.4064 2.67401C15.158 2.28422 14.843 1.93483 14.4688 1.66366C13.8716 1.231 13.1323 1.00824 12.3949 1.00023H12.3949Z" fill="#020204"/>
<path d="M10.2621 7.51568C10.1827 7.61518 10.131 7.73474 10.0998 7.85814C10.0686 7.98155 10.0572 8.10913 10.0523 8.23633C10.0425 8.49072 10.0581 8.74999 9.99076 8.99551C9.91877 9.25799 9.75738 9.48537 9.59944 9.70703C9.32593 10.0909 9.04947 10.4847 8.91454 10.9363C8.83281 11.2098 8.80561 11.4995 8.83499 11.7834C8.52882 12.2331 8.26376 12.7107 8.04418 13.2084C7.71139 13.9626 7.48302 14.7657 7.40272 15.5863C7.30438 16.591 7.43288 17.6243 7.82969 18.5526C8.11658 19.2238 8.54423 19.8382 9.09566 20.3164C9.37604 20.5595 9.68744 20.767 10.0205 20.9307C11.1747 21.498 12.6012 21.4991 13.7362 20.8943C14.3294 20.5782 14.8301 20.116 15.3129 19.6483C15.6036 19.3666 15.8928 19.0783 16.1146 18.7397C16.5416 18.0878 16.6903 17.2954 16.7827 16.5216C16.9443 15.1686 16.9495 13.7394 16.3562 12.5127C16.1519 12.0903 15.8798 11.7009 15.5534 11.3639C15.4665 10.7736 15.2949 10.1957 15.0456 9.65358C14.8658 9.26246 14.6459 8.89017 14.4788 8.49343C14.4102 8.33056 14.3506 8.16378 14.2745 8.00429C14.1983 7.84479 14.1044 7.69132 13.9767 7.56913C13.8459 7.44401 13.683 7.3553 13.5112 7.29855C13.3393 7.24179 13.1584 7.21607 12.9777 7.20698C12.6162 7.1888 12.2539 7.23608 11.8923 7.22172C11.6044 7.21029 11.3173 7.15983 11.0297 7.17681C10.8859 7.1853 10.7421 7.211 10.6086 7.2652C10.4751 7.31939 10.352 7.40307 10.2621 7.51568Z" fill="white"/>
<path d="M17.2727 12.1921C17.7344 12.5635 18.0273 13.1243 18.118 13.7098C18.1887 14.1664 18.1428 14.635 18.0398 15.0855C17.9368 15.536 17.7779 15.9714 17.6201 16.4057C17.5572 16.5789 17.494 16.7538 17.469 16.9363C17.444 17.1189 17.4598 17.3122 17.5479 17.4741C17.6488 17.6596 17.8372 17.7874 18.0397 17.8476C18.2396 17.907 18.4555 17.9057 18.6579 17.8553C18.8602 17.8049 19.2009 17.7395 19.3656 17.6116C19.7841 17.2866 19.8834 16.7224 19.9826 16.227C20.0861 15.7103 20.0355 15.1685 19.9446 14.6465C19.8206 13.9348 19.6121 13.239 19.3467 12.5671C19.1515 12.0728 18.9014 11.6003 18.6038 11.1619C18.3119 10.7318 17.8977 10.3961 17.5917 9.97563C17.4853 9.82954 17.3575 9.67733 17.253 9.52962C17.0278 9.21113 17.0788 9.27055 16.9391 9.06441C16.8377 8.91484 16.6777 8.86344 16.5092 8.79802C16.3408 8.7326 16.1517 8.71333 15.9777 8.76228C15.7485 8.8268 15.5612 9.00743 15.4616 9.22374C15.362 9.44005 15.3445 9.68832 15.3833 9.92329C15.4333 10.2264 15.5719 10.5077 15.7282 10.7722C15.9048 11.0709 16.1093 11.3585 16.3759 11.5806C16.6541 11.8123 16.9906 11.9651 17.2727 12.1921Z" fill="#020204"/>
<path d="M8.57555 9.88456C8.0389 10.4943 7.48662 11.0846 7.18362 11.7438C7.03368 12.0787 6.96277 12.4424 6.86003 12.7946C6.74334 13.1946 6.58491 13.5814 6.40702 13.9582C6.24276 14.3061 6.06181 14.6458 5.88055 14.9851C5.74866 15.232 5.6146 15.4845 5.56888 15.7606C5.53274 15.9788 5.55382 16.204 5.60937 16.4181C5.66493 16.6323 5.75426 16.8362 5.85503 17.0332C6.28502 17.8735 6.93014 18.5978 7.6943 19.1519C8.04109 19.4033 8.41256 19.6208 8.80222 19.7988C9.01334 19.8951 9.23572 19.9812 9.46776 19.9852C9.58378 19.9872 9.701 19.9681 9.80724 19.9214C9.91348 19.8748 10.0084 19.7998 10.0715 19.7024C10.1491 19.5827 10.1754 19.4339 10.1598 19.2921C10.1443 19.1503 10.0889 19.015 10.0147 18.8931C9.83334 18.5955 9.5469 18.3802 9.27139 18.1668C8.67651 17.7059 8.10109 17.2198 7.55045 16.707C7.39498 16.5622 7.2395 16.4128 7.13086 16.2302C7.02508 16.0524 6.96792 15.8498 6.92921 15.6465C6.82301 15.089 6.85023 14.5022 7.03995 13.9672C7.11417 13.758 7.21227 13.5581 7.30688 13.3572C7.47086 13.0091 7.62609 12.6542 7.84173 12.3355C8.11016 11.9386 8.469 11.6025 8.68781 11.1763C8.87251 10.8165 8.94729 10.4121 9.01876 10.014C9.07467 9.70264 9.18191 9.39763 9.23645 9.08598C9.12977 9.28823 8.78593 9.62034 8.57555 9.88456Z" fill="#020204"/>
<path d="M21.6798 20.6264C21.4808 20.8627 21.2043 21.0187 20.929 21.159C20.4594 21.3983 19.9729 21.6083 19.5314 21.8962C19.2357 22.0891 18.9627 22.3155 18.7075 22.5595C18.4892 22.7682 18.2821 22.991 18.0373 23.1678C17.7903 23.3462 17.5048 23.4755 17.2034 23.5207C16.837 23.5757 16.4583 23.5045 16.1185 23.3565C15.8805 23.2527 15.6515 23.1044 15.5144 22.8838C15.3767 22.6625 15.3453 22.3916 15.345 22.1309C15.3444 21.6699 15.4298 21.2136 15.5103 20.7596C15.5771 20.3824 15.6407 20.0043 15.6817 19.6234C15.7564 18.9306 15.7558 18.231 15.706 17.5359C15.6977 17.4195 15.688 17.302 15.7054 17.1866C15.7228 17.0712 15.7703 16.9562 15.8587 16.8801C15.9404 16.8098 16.05 16.7787 16.1576 16.7728C16.2652 16.7668 16.3726 16.7839 16.4793 16.7995C16.7306 16.8362 16.984 16.8651 17.2296 16.9297C17.3846 16.9705 17.5356 17.0253 17.6903 17.0671C17.9485 17.137 18.2189 17.1704 18.4845 17.1393C18.7705 17.1059 19.0482 16.9985 19.3361 17.0055C19.4542 17.0083 19.5714 17.0306 19.6841 17.0661C19.799 17.1024 19.9124 17.1543 19.9969 17.2403C20.0611 17.3056 20.1058 17.3879 20.1394 17.4731C20.1895 17.6001 20.2164 17.7354 20.228 17.8714C20.2382 17.9919 20.2366 18.1138 20.2594 18.2325C20.2969 18.4278 20.3996 18.606 20.5271 18.7587C20.6546 18.9113 20.8071 19.0409 20.9593 19.169C21.111 19.2965 21.2636 19.4235 21.4272 19.5353C21.504 19.5878 21.5832 19.6369 21.6561 19.6947C21.7291 19.7524 21.7961 19.8196 21.8417 19.9007C21.9035 20.0107 21.9224 20.1441 21.8825 20.2707C21.8425 20.3973 21.7701 20.5193 21.6798 20.6264Z" fill="#F2BC1F"/>
<path d="M6.07957 16.4083C6.20091 16.358 6.3374 16.3488 6.46658 16.3726C6.59575 16.3965 6.71782 16.4523 6.82647 16.5261C7.04377 16.6737 7.20494 16.8886 7.35929 17.1012C7.71376 17.5893 8.05494 18.0877 8.36421 18.6056C8.61507 19.0258 8.84551 19.4597 9.13539 19.854C9.32461 20.1113 9.53801 20.3501 9.72818 20.6068C9.91834 20.8635 10.0869 21.1421 10.1712 21.4502C10.2808 21.8506 10.2383 22.2919 10.0478 22.6606C9.91376 22.92 9.70816 23.1426 9.45809 23.2933C9.20802 23.4441 8.91404 23.522 8.62225 23.5111C8.15836 23.4937 7.73459 23.2618 7.30332 23.0901C6.42465 22.7401 5.47026 22.6303 4.56459 22.3578C4.28624 22.274 4.01255 22.1749 3.73228 22.0978C3.60775 22.0636 3.48124 22.0335 3.36363 21.9801C3.24603 21.9267 3.13605 21.8474 3.07064 21.736C3.02008 21.65 2.99868 21.5486 3.00006 21.4488C3.00144 21.349 3.02479 21.2505 3.05877 21.1566C3.12674 20.9689 3.23656 20.799 3.31068 20.6136C3.43171 20.3109 3.45345 19.9771 3.43713 19.6516C3.42081 19.326 3.36803 19.0033 3.34574 18.678C3.33578 18.5328 3.33203 18.3857 3.35976 18.2428C3.38748 18.0999 3.44897 17.9602 3.55382 17.8593C3.65048 17.7662 3.77877 17.7109 3.91014 17.6835C4.04152 17.6561 4.17686 17.6549 4.31103 17.6579C4.4452 17.6609 4.57967 17.6681 4.71342 17.6571C4.84717 17.6461 4.98151 17.6161 5.09802 17.5495C5.20879 17.4862 5.29941 17.3921 5.37448 17.2889C5.44955 17.1858 5.51022 17.073 5.57242 16.9616C5.63463 16.8502 5.699 16.7392 5.78043 16.641C5.86186 16.5427 5.96171 16.4571 6.07957 16.4083" fill="#F2BC1F"/>
<path d="M10.3779 4.37059C10.2428 4.37795 10.1135 4.44032 10.0146 4.53271C9.91577 4.6251 9.84611 4.74604 9.80326 4.87441C9.71755 5.13113 9.73683 5.40944 9.75631 5.67939C9.77396 5.92382 9.792 6.17296 9.88354 6.40029C9.9293 6.51396 9.99357 6.6211 10.0793 6.70864C10.1651 6.79617 10.2729 6.86356 10.3918 6.89334C10.5032 6.92127 10.6223 6.91549 10.7319 6.88105C10.8415 6.84661 10.9416 6.78402 11.0237 6.70366C11.1435 6.58644 11.2243 6.43309 11.2706 6.27199C11.3169 6.11089 11.3301 5.94183 11.3276 5.77423C11.3246 5.56449 11.2972 5.35401 11.2316 5.15478C11.166 4.95555 11.0612 4.76758 10.915 4.61718C10.8442 4.54433 10.7634 4.48022 10.6723 4.43528C10.5812 4.39034 10.4794 4.36507 10.3779 4.37059Z" fill="white"/>
<path d="M10.0522 5.48966C10.0239 5.66005 10.0229 5.83882 10.0815 6.0013C10.1202 6.10859 10.1839 6.20592 10.2615 6.28957C10.3122 6.34433 10.3698 6.3941 10.4372 6.42638C10.5045 6.45865 10.5825 6.47238 10.6549 6.4542C10.7218 6.43742 10.7803 6.39437 10.8234 6.34061C10.8665 6.28685 10.8953 6.22278 10.9158 6.15697C10.9763 5.96268 10.9666 5.75017 10.9065 5.55575C10.8627 5.41409 10.7903 5.27745 10.6769 5.18194C10.6228 5.13637 10.5594 5.10067 10.4906 5.08432C10.4218 5.06797 10.3473 5.0718 10.2829 5.10106C10.2114 5.13354 10.1561 5.19537 10.1198 5.26504C10.0836 5.33472 10.065 5.41219 10.0522 5.48966Z" fill="#020204"/>
<path d="M12.7693 4.37059C12.5584 4.51552 12.3816 4.7177 12.2951 4.9586C12.1862 5.26221 12.2279 5.60205 12.333 5.907C12.4407 6.21936 12.6209 6.51709 12.8929 6.7046C13.029 6.79835 13.1864 6.86264 13.3505 6.88203C13.5145 6.90142 13.685 6.87483 13.8315 6.7985C14.0101 6.70549 14.1462 6.5426 14.2308 6.3599C14.3153 6.1772 14.3513 5.97522 14.3626 5.77423C14.377 5.51812 14.352 5.25781 14.2678 5.0155C14.1763 4.7523 14.0106 4.5094 13.7767 4.35795C13.6597 4.28223 13.5269 4.23022 13.3889 4.21113C13.2509 4.19204 13.1078 4.20632 12.978 4.25678C12.904 4.28554 12.8348 4.32563 12.7693 4.37059Z" fill="white"/>
<path d="M13.2557 5.00752C13.1764 5.0132 13.0991 5.04028 13.0318 5.08265C12.9645 5.12502 12.9071 5.18244 12.8621 5.24798C12.772 5.37905 12.7324 5.53984 12.726 5.69876C12.7212 5.81806 12.7345 5.93891 12.774 6.05155C12.8136 6.16419 12.8803 6.26845 12.9723 6.34461C13.0663 6.42254 13.1859 6.46932 13.308 6.47518C13.43 6.48104 13.5538 6.44584 13.654 6.37605C13.7339 6.32044 13.7984 6.2439 13.8442 6.15805C13.8901 6.07221 13.9177 5.97721 13.9304 5.8807C13.9527 5.71024 13.9274 5.53223 13.8487 5.37942C13.7699 5.22661 13.6362 5.10076 13.4748 5.04133C13.405 5.01558 13.33 5.0022 13.2557 5.00752Z" fill="#020204"/>
<path d="M9.7345 7.6081C9.73916 7.63051 9.74759 7.65214 9.75931 7.6718C9.77947 7.70558 9.80893 7.73297 9.84074 7.75612C9.87256 7.77927 9.90697 7.79857 9.94028 7.81951C10.1173 7.93081 10.2616 8.08726 10.3898 8.25252C10.5618 8.47423 10.7139 8.72026 10.9436 8.88141C11.1058 8.99521 11.2999 9.06009 11.497 9.0799C11.7285 9.10316 11.9629 9.06579 12.1861 9.00008C12.3929 8.93918 12.593 8.85368 12.7765 8.74049C13.1254 8.52532 13.4168 8.20994 13.8016 8.06848C13.8856 8.0376 13.973 8.01551 14.054 7.97741C14.1349 7.93932 14.2111 7.88227 14.2498 7.80157C14.287 7.724 14.2855 7.63446 14.2976 7.5493C14.3106 7.45819 14.3396 7.3701 14.3556 7.27946C14.3715 7.18883 14.3734 7.09188 14.3342 7.00862C14.3018 6.93967 14.2428 6.88511 14.1749 6.85044C14.107 6.81578 14.0307 6.80003 13.9546 6.79629C13.8023 6.78882 13.652 6.82779 13.5002 6.84165C13.2992 6.86001 13.0967 6.8342 12.895 6.84021C12.644 6.84769 12.3966 6.9043 12.1458 6.91646C11.8596 6.93034 11.5741 6.88623 11.2879 6.87463C11.1639 6.86961 11.039 6.87074 10.9167 6.89172C10.7944 6.91271 10.6743 6.95421 10.5722 7.02472C10.4727 7.09342 10.3934 7.1871 10.3021 7.2663C10.2564 7.3059 10.2073 7.34212 10.1529 7.36853C10.0985 7.39494 10.0385 7.41132 9.97805 7.41004C9.94697 7.40935 9.91501 7.4042 9.88539 7.41362C9.86688 7.4195 9.85045 7.43084 9.83656 7.44442C9.82267 7.45799 9.81116 7.47378 9.80031 7.48989C9.77508 7.52734 9.75304 7.56693 9.7345 7.6081Z" fill="#B98A00"/>
<path d="M10.333 6.63102C10.1866 6.72955 10.0549 6.84975 9.94334 6.9865C9.87956 7.06471 9.82167 7.14969 9.78954 7.24536C9.76428 7.32062 9.75567 7.40026 9.73975 7.47803C9.73378 7.50716 9.72674 7.53639 9.72687 7.56613C9.72693 7.581 9.72882 7.59593 9.73343 7.61007C9.73804 7.6242 9.74544 7.63754 9.75574 7.64826C9.77279 7.66601 9.79674 7.67565 9.82085 7.68061C9.84495 7.68556 9.86969 7.6863 9.89414 7.68909C10.0045 7.70163 10.1062 7.75525 10.1977 7.81823C10.2891 7.88122 10.3735 7.95445 10.4673 8.01383C10.6748 8.14501 10.9222 8.20338 11.1674 8.21283C11.4127 8.22228 11.6573 8.18503 11.898 8.13697C12.0893 8.09878 12.28 8.05346 12.4614 7.98192C12.7393 7.87237 12.9897 7.70371 13.2291 7.52503C13.3378 7.44386 13.445 7.36014 13.5426 7.2659C13.5758 7.23392 13.6078 7.20069 13.6434 7.1714C13.6789 7.14212 13.7183 7.11664 13.7622 7.10254C13.829 7.08104 13.9014 7.08721 13.9707 7.09878C14.0228 7.1075 14.0751 7.11919 14.1279 7.11709C14.1543 7.11603 14.1808 7.11146 14.2053 7.10163C14.2298 7.09181 14.2525 7.07657 14.2693 7.05618C14.2914 7.02939 14.3027 6.99439 14.3028 6.95965C14.3029 6.92491 14.2923 6.89054 14.2746 6.8606C14.2394 6.80074 14.1784 6.76021 14.1149 6.732C14.028 6.69335 13.9339 6.67423 13.8414 6.6519C13.5572 6.58329 13.2811 6.4819 13.0192 6.35191C12.8891 6.28729 12.7625 6.21568 12.6344 6.14703C12.5028 6.07645 12.3685 6.00862 12.2256 5.96529C11.9059 5.86839 11.5565 5.90017 11.2409 6.00975C10.8904 6.13149 10.5734 6.34838 10.333 6.63102V6.63102Z" fill="#F2BC1F"/>
</svg>
