<svg width="14" height="16" viewBox="0 0 14 16" fill="none" xmlns="http://www.w3.org/2000/svg">
<path d="M8.4 0H0.7C0.514348 0 0.336301 0.0702379 0.205025 0.195262C0.0737498 0.320286 0 0.489856 0 0.666667V15.3333C0 15.5101 0.0737498 15.6797 0.205025 15.8047C0.336301 15.9298 0.514348 16 0.7 16H13.3C13.4857 16 13.6637 15.9298 13.795 15.8047C13.9263 15.6797 14 15.5101 14 15.3333V5.33333H9.1C8.91435 5.33333 8.7363 5.2631 8.60503 5.13807C8.47375 5.01305 8.4 4.84348 8.4 4.66667V0ZM2.1 11.3333H11.9V12.6667H2.1V11.3333ZM2.1 8H11.9V9.33333H2.1V8ZM6.3 6H2.1V4.66667H6.3V6Z" fill="#00a3ef"/>
<path d="M13.5898 3.99999H9.79998V0.390656L13.5898 3.99999Z" fill="#00a3ef"/>
</svg>
