<?xml version="1.0" encoding="utf-8"?>
<!-- Generator: Adobe Illustrator 16.0.0, SVG Export Plug-In . SVG Version: 6.00 Build 0)  -->
<!DOCTYPE svg PUBLIC "-//W3C//DTD SVG 1.1//EN" "http://www.w3.org/Graphics/SVG/1.1/DTD/svg11.dtd">
<svg version="1.1" id="Layer_1" xmlns="http://www.w3.org/2000/svg" xmlns:xlink="http://www.w3.org/1999/xlink" x="0px" y="0px"
	 width="512px" height="512px" viewBox="0 0 512 512" enable-background="new 0 0 512 512" xml:space="preserve">
<text transform="matrix(1 0 0 1 168.783 543.8093)" fill="#FFFF00" font-family="'Verdana-Bold'" font-size="20">simpleicon.com</text>
<text transform="matrix(1 0 0 1 9.1931 567.8093)" fill="#FFFF00" font-family="'Verdana'" font-size="20">Collection Of Flat Icon, Symbols And Glyph Icons</text>
<path d="M366.24,82.96c0-18.202-14.758-32.96-32.96-32.96H176.72c-18.202,0-32.96,14.758-32.96,32.96v346.08
	c0,18.202,14.758,32.96,32.96,32.96h156.56c18.202,0,32.96-14.758,32.96-32.96V82.96z M238.653,87.08h32.959
	c2.277,0,4.12,1.845,4.12,4.12c0,2.275-1.843,4.12-4.12,4.12h-32.959c-2.275,0-4.12-1.845-4.12-4.12
	C234.533,88.925,236.378,87.08,238.653,87.08z M253.761,442.494c-9.101,0-16.486-7.379-16.486-16.479
	c0-9.102,7.385-16.48,16.486-16.48c9.101,0,16.472,7.379,16.472,16.48C270.233,435.115,262.862,442.494,253.761,442.494z
	 M345.64,396.08H164.36V120.04h181.28V396.08z"/>
</svg>
