<?xml version="1.0" encoding="UTF-8" standalone="no"?>
<!-- Generator: Adobe Illustrator 19.0.0, SVG Export Plug-In . SVG Version: 6.00 Build 0)  -->

<svg
   xmlns:dc="http://purl.org/dc/elements/1.1/"
   xmlns:cc="http://creativecommons.org/ns#"
   xmlns:rdf="http://www.w3.org/1999/02/22-rdf-syntax-ns#"
   xmlns:svg="http://www.w3.org/2000/svg"
   xmlns="http://www.w3.org/2000/svg"
   xmlns:sodipodi="http://sodipodi.sourceforge.net/DTD/sodipodi-0.dtd"
   xmlns:inkscape="http://www.inkscape.org/namespaces/inkscape"
   version="1.1"
   id="Capa_1"
   x="0px"
   y="0px"
   viewBox="0 0 36.552243 22.818555"
   xml:space="preserve"
   width="311.91248"
   height="194.71834"
   sodipodi:docname="solr-cloud.svg"
   inkscape:version="0.92.3 (unknown)"><metadata
   id="metadata39"><rdf:RDF><cc:Work
       rdf:about=""><dc:format>image/svg+xml</dc:format><dc:type
         rdf:resource="http://purl.org/dc/dcmitype/StillImage" /><dc:title></dc:title></cc:Work></rdf:RDF></metadata><defs
   id="defs37" /><sodipodi:namedview
   pagecolor="#ffffff"
   bordercolor="#666666"
   borderopacity="1"
   objecttolerance="10"
   gridtolerance="10"
   guidetolerance="10"
   inkscape:pageopacity="0"
   inkscape:pageshadow="2"
   inkscape:window-width="1871"
   inkscape:window-height="853"
   id="namedview35"
   showgrid="false"
   fit-margin-top="0"
   fit-margin-left="0"
   fit-margin-right="0"
   fit-margin-bottom="0"
   inkscape:zoom="0.4609375"
   inkscape:cx="168.6663"
   inkscape:cy="79.698535"
   inkscape:window-x="0"
   inkscape:window-y="360"
   inkscape:window-maximized="0"
   inkscape:current-layer="Capa_1" />
<path
   d="M 21.68823,4.4258989 C 21.543651,1.9661564 19.516003,0 17.071839,0 15.587794,0 14.150758,0.72781168 13.260332,1.915321 13.239842,1.904549 13.218242,1.897274 13.197462,1.887446 13.143352,1.861207 13.088411,1.836338 13.032386,1.813929 13.001226,1.801694 12.970076,1.79043 12.938646,1.779498 12.883166,1.760095 12.826868,1.742873 12.769469,1.727286 12.738039,1.718776 12.706869,1.710077 12.675179,1.702962 12.613669,1.689038 12.55082,1.678359 12.487416,1.66881 12.459806,1.66469 12.432766,1.65923 12.404896,1.656309 12.314156,1.646202 12.222329,1.639898 12.129132,1.639898 c -1.356412,0 -2.4597425,1.1033322 -2.4597425,2.4597452 0,0.03471 0.00226,0.068875 0.00439,0.1030404 v 0.00115 C 8.5371048,4.8236792 7.7562714,6.121876 7.7562714,7.4214425 c 0,1.9358161 1.5747809,3.5108705 3.5105986,3.5108705 h 6.698153 c 0.02842,0 0.05656,-0.0017 0.08499,-0.0039 l 0.01694,-0.0023 0.03661,0.0023 c 0.02788,0.0023 0.05576,0.0039 0.08445,0.0039 h 2.679223 c 1.812557,0 3.28731,-1.4747509 3.28731,-3.2873107 0,-1.5001696 -1.045938,-2.8456482 -2.466302,-3.2189811 z m -0.821008,5.9596841 h -2.679205 c -0.01613,0 -0.03169,-0.0013 -0.04756,-0.0025 l -0.07408,-0.0031 -0.05411,0.0031 c -0.01557,0.0012 -0.03143,0.0025 -0.04729,0.0025 h -6.698146 c -1.6343631,0 -2.9639907,-1.3296286 -2.9639907,-2.9642655 0,-1.1353082 0.7392887,-2.3137983 1.7581707,-2.8021911 l 0.154964,-0.074075 V 4.3728706 c 0,-0.03471 0.0023,-0.069966 0.0041,-0.1054875 l 0.0025,-0.04374 -0.0032,-0.057398 c -0.0017,-0.02213 -0.0032,-0.044286 -0.0032,-0.066694 0,-1.0546845 0.85845,-1.9131333 1.913133,-1.9131333 0.08445,0 0.16781,0.00731 0.250621,0.018313 0.02132,0.00266 0.04264,0.00638 0.06367,0.00984 0.07296,0.012102 0.144851,0.027888 0.215637,0.048382 0.0096,0.00279 0.01939,0.00465 0.02897,0.00731 0.07789,0.023779 0.153869,0.053834 0.228209,0.087733 0.01939,0.00878 0.03826,0.018313 0.0574,0.027609 0.06559,0.032516 0.129825,0.068064 0.191862,0.1082271 0.526658,0.3410841 0.876761,0.9327874 0.876761,1.605665 0,0.1511389 0.122165,0.2733046 0.273305,0.2733046 0.151138,0 0.273305,-0.1221644 0.273305,-0.2733046 0,-0.7526807 -0.340538,-1.4263789 -0.874576,-1.8778751 0.783565,-1.0248962 2.073839,-1.6750857 3.35755,-1.6750857 2.116745,0 3.874642,1.6767228 4.058028,3.7956552 -0.279318,-0.019683 -0.697474,-0.02979 -1.115904,0.033886 -0.149222,0.022688 -0.251712,0.162072 -0.229028,0.3112931 0.02049,0.1352879 0.136925,0.2323105 0.269752,0.2323105 0.01366,0 0.02762,-0.00115 0.04127,-0.00332 0.608652,-0.092095 1.242993,-0.00572 1.28016,-5.732e-4 1.272508,0.2418751 2.231807,1.41408 2.231807,2.7289483 0,1.5111041 -1.229597,2.740701 -2.740699,2.740701 z"
   id="path2"
   inkscape:connector-curvature="0"
   style="opacity:1;fill:#006df0;stroke-width:0.27330476" />
<g
   id="g4"
   transform="translate(-11.251367,-16.521117)">
</g>
<g
   id="g6"
   transform="translate(-11.251367,-16.521117)">
</g>
<g
   id="g8"
   transform="translate(-11.251367,-16.521117)">
</g>
<g
   id="g10"
   transform="translate(-11.251367,-16.521117)">
</g>
<g
   id="g12"
   transform="translate(-11.251367,-16.521117)">
</g>
<g
   id="g14"
   transform="translate(-11.251367,-16.521117)">
</g>
<g
   id="g16"
   transform="translate(-11.251367,-16.521117)">
</g>
<g
   id="g18"
   transform="translate(-11.251367,-16.521117)">
</g>
<g
   id="g20"
   transform="translate(-11.251367,-16.521117)">
</g>
<g
   id="g22"
   transform="translate(-11.251367,-16.521117)">
</g>
<g
   id="g24"
   transform="translate(-11.251367,-16.521117)">
</g>
<g
   id="g26"
   transform="translate(-11.251367,-16.521117)">
</g>
<g
   id="g28"
   transform="translate(-11.251367,-16.521117)">
</g>
<g
   id="g30"
   transform="translate(-11.251367,-16.521117)">
</g>
<g
   id="g32"
   transform="translate(-11.251367,-16.521117)">
</g>
<g
   id="g4631"
   transform="matrix(0.14305843,0,0,0.14305843,-0.03579836,4.272918)"><path
     id="path4621"
     d="m 51.552577,89.659717 c -2.951448,-1.570749 -6.286774,-2.67707 -9.911581,-3.288757 -3.560617,-0.599099 -7.182906,-0.902425 -10.766179,-0.902425 -2.928793,0 -5.891569,-0.252982 -8.807776,-0.751393 C 19.227609,84.233835 16.656262,83.342737 14.419706,82.06902 12.243563,80.830544 10.443746,79.097434 9.0680815,76.914998 7.7112962,74.767803 7.0240933,71.92082 7.0240933,68.486064 c 0.065448,-3.033258 0.7702714,-5.628519 2.0968499,-7.714042 1.3441988,-2.119505 3.1012238,-3.841288 5.2194698,-5.11878 2.172367,-1.310217 4.679525,-2.273056 7.45225,-2.862087 4.721059,-1.001857 9.707685,-1.18939 14.787449,-0.480791 1.982316,0.279413 3.943236,0.774048 5.82738,1.470061 1.850162,0.685944 3.589565,1.626128 5.167867,2.790346 1.555646,1.151631 2.930052,2.596519 4.085459,4.29313 l 0.646927,0.950253 4.767628,-2.00623 -1.011926,-1.428526 c -1.29763,-1.832541 -2.734967,-3.482583 -4.272992,-4.907333 -1.569491,-1.448664 -3.41336,-2.680847 -5.48252,-3.657531 -2.04273,-0.962839 -4.379975,-1.704163 -6.950063,-2.203832 -2.543658,-0.493376 -5.508951,-0.742582 -8.81407,-0.742582 -3.170447,0 -6.444101,0.362481 -9.729082,1.07989 -3.334067,0.729996 -6.42648,1.935748 -9.189136,3.58579 -2.8218114,1.686542 -5.1477289,3.933167 -6.9135635,6.678203 -1.7935241,2.792863 -2.7047602,6.238946 -2.7047602,10.243854 0,4.203769 0.8445295,7.782007 2.5084165,10.634025 1.653818,2.834397 3.8714948,5.131367 6.5913582,6.82546 2.663226,1.66137 5.770743,2.855794 9.235705,3.54929 3.38567,0.677134 6.928667,1.020736 10.532077,1.020736 2.864604,0 5.897863,0.216481 9.016707,0.648186 3.034517,0.419118 5.858845,1.264906 8.393692,2.51345 2.4694,1.219597 4.527233,2.914949 6.113086,5.040747 1.53425,2.057829 2.313331,4.836849 2.313331,8.259019 0,3.07354 -0.750133,5.69397 -2.226487,7.7946 -1.525439,2.16985 -3.506497,3.96085 -5.889052,5.32267 -2.434158,1.39077 -5.189263,2.41528 -8.193573,3.04333 -3.052138,0.63937 -6.07281,0.96284 -8.976431,0.96284 -4.87461,0 -9.691323,-0.93138 -14.315469,-2.76895 -4.604008,-1.82625 -8.6869496,-4.57129 -12.1330331,-8.15833 l -0.9250809,-0.96284 -3.80227106,3.29505 1.06730416,1.0673 c 3.402032,3.40455 7.6271973,6.36858 12.5546689,8.81281 4.987885,2.4757 10.894557,3.73053 17.553881,3.73053 3.166671,0 6.527169,-0.36248 9.990873,-1.07611 3.511532,-0.72622 6.806582,-1.96596 9.792012,-3.689 3.033259,-1.74947 5.556779,-4.03889 7.503854,-6.80406 1.999936,-2.84069 3.014379,-6.39502 3.014379,-10.56984 0,-4.2302 -0.950253,-7.812211 -2.825587,-10.646608 -1.851421,-2.794122 -4.323337,-5.02942 -7.349044,-6.640445"
     inkscape:connector-curvature="0"
     style="fill:#201f26" /><path
     id="path4623"
     d="m 96.395966,124.62123 c -3.438532,0 -6.582548,-0.70986 -9.346463,-2.10944 -2.800415,-1.41594 -5.272332,-3.34413 -7.349044,-5.73424 -2.08804,-2.40018 -3.746892,-5.20688 -4.929989,-8.34335 -1.191907,-3.15031 -1.867782,-6.45291 -2.004971,-9.759287 0,-3.057172 0.566376,-6.18105 1.681507,-9.286049 1.113873,-3.094931 2.736226,-5.918001 4.824266,-8.389917 2.081746,-2.463107 4.615335,-4.503319 7.531542,-6.066517 2.867122,-1.535508 6.094206,-2.31459 9.593152,-2.31459 3.290015,0 6.397534,0.728737 9.235704,2.163556 2.87719,1.456216 5.40826,3.407067 7.52399,5.798432 2.12077,2.401435 3.81486,5.209401 5.03697,8.347124 1.21708,3.133948 1.8338,6.413894 1.8338,9.747961 0,3.053397 -0.56637,6.178537 -1.68025,9.284787 -1.11639,3.10123 -2.73874,5.92304 -4.82552,8.39244 -2.07797,2.45807 -4.60778,4.47815 -7.52021,6.00359 -2.86839,1.50404 -6.099246,2.2655 -9.604484,2.2655 M 117.26,77.578035 c -2.49457,-2.914948 -5.52657,-5.326452 -9.01419,-7.166544 -3.53544,-1.865265 -7.52273,-2.809225 -11.849844,-2.809225 -3.941978,0 -7.707749,0.844529 -11.192849,2.508416 -3.459929,1.653818 -6.519618,3.934426 -9.093482,6.776375 -2.563796,2.830621 -4.619111,6.164688 -6.10931,9.909063 -1.492715,3.749409 -2.2504,7.746766 -2.2504,11.878793 0,3.905477 0.69853,7.727887 2.076712,11.361507 1.375664,3.6311 3.334067,6.92615 5.821087,9.79704 2.498347,2.88349 5.53664,5.24087 9.030551,7.00545 3.520342,1.77967 7.454767,2.72112 11.692518,2.79789 h 0.02643 0.02643 c 4.009947,-0.0768 7.807177,-0.9792 11.285987,-2.67833 3.45364,-1.68654 6.50955,-3.98477 9.08341,-6.82672 2.5638,-2.83187 4.60149,-6.12944 6.05394,-9.80082 1.45621,-3.68018 2.19502,-7.60202 2.19502,-11.656017 0,-3.671375 -0.6784,-7.413233 -2.01378,-11.119849 -1.33791,-3.706616 -3.27869,-7.063339 -5.76823,-9.977029"
     inkscape:connector-curvature="0"
     style="fill:#201f26" /><path
     id="path4625"
     d="m 151.01148,123.23008 c -0.84327,0.21019 -1.58585,0.37004 -2.20509,0.47324 -0.65196,0.10824 -1.3593,0.21774 -2.12076,0.32598 -0.70105,0.0994 -1.39455,0.15104 -2.06161,0.15104 -1.68277,0 -2.92124,-0.55757 -3.78843,-1.70543 -0.9578,-1.26364 -1.42349,-2.51848 -1.42349,-3.83751 V 45.213673 h -5.01558 V 118.6374 c 0,2.75511 0.86971,5.19304 2.58646,7.24206 1.77842,2.12832 4.312,3.20569 7.53028,3.20569 1.00941,0 2.01126,-0.0591 2.97914,-0.17494 0.93389,-0.11202 1.77338,-0.22404 2.52478,-0.33605 0.76775,-0.1158 1.65633,-0.28949 2.64308,-0.51604 l 1.70039,-0.39268 -2.23278,-4.71477 z"
     inkscape:connector-curvature="0"
     style="fill:#201f26" /><path
     id="path4627"
     d="m 172.65296,72.655473 c -2.60911,1.833799 -4.91363,4.162234 -6.88587,6.950063 V 68.484428 h -5.01558 v 60.049702 h 5.01558 V 91.148279 c 0.69475,-2.449261 1.6513,-4.746231 2.84572,-6.829236 1.20449,-2.098109 2.7035,-3.945753 4.45298,-5.490072 1.74947,-1.54306 3.7859,-2.79538 6.05518,-3.722978 2.26299,-0.92634 4.81672,-1.467543 7.5907,-1.607249 l 1.33413,-0.06671 v -4.947609 h -1.40461 c -5.34533,0 -10.05129,1.403354 -13.98823,4.171045"
     inkscape:connector-curvature="0"
     style="fill:#201f26" /><path
     id="path4629"
     d="m 244.31035,13.792641 -41.53424,44.90355 52.19847,-24.082309 C 253.43026,26.64686 249.64939,19.482832 244.31035,13.792641 Z M 213.49358,0.43598368 c -5.75438,0 -11.2369,1.15414852 -16.23611,3.23715372 L 191.68433,50.637038 219.53367,0.87272254 C 217.56016,0.58953452 215.54512,0.43598368 213.49358,0.43598368 Z M 255.38842,37.201088 205.92743,64.880514 252.3325,59.37408 c 2.20006,-5.116263 3.42343,-10.752334 3.42343,-16.675368 0,-1.865266 -0.13341,-3.696548 -0.36751,-5.497624 z m -18.23555,40.521059 c 5.52657,-3.740599 10.11548,-8.757432 13.3564,-14.623829 l -43.49642,8.637863 z M 222.08034,1.31072 197.8684,53.788606 242.78202,12.246812 C 237.14972,6.8284812 230.02597,2.9506933 222.08034,1.31072 Z M 217.026,84.802854 c 4.67953,-0.387653 9.14257,-1.531732 13.26579,-3.320222 L 205.92755,78.591597 Z M 174.96969,25.324686 c -1.90051,4.207545 -3.13269,8.77757 -3.56062,13.582956 l 6.56367,11.730277 z M 193.59515,5.4106532 c -5.96331,3.1893263 -11.06824,7.7656448 -14.89191,13.2997678 l 6.12567,30.841063 z"
     inkscape:connector-curvature="0"
     style="fill:#c7402b" /></g></svg>