<?xml version="1.0" encoding="UTF-8" standalone="no"?>
<!-- Created with Inkscape (http://www.inkscape.org/) -->

<svg
   xmlns:dc="http://purl.org/dc/elements/1.1/"
   xmlns:cc="http://creativecommons.org/ns#"
   xmlns:rdf="http://www.w3.org/1999/02/22-rdf-syntax-ns#"
   xmlns:svg="http://www.w3.org/2000/svg"
   xmlns="http://www.w3.org/2000/svg"
   xmlns:sodipodi="http://sodipodi.sourceforge.net/DTD/sodipodi-0.dtd"
   xmlns:inkscape="http://www.inkscape.org/namespaces/inkscape"
   version="1.1"
   id="svg2"
   xml:space="preserve"
   width="890.59998"
   height="280.44"
   viewBox="0 0 890.59998 280.44"
   sodipodi:docname="storm.svg"
   inkscape:version="0.92.3 (unknown)"><metadata
     id="metadata8"><rdf:RDF><cc:Work
         rdf:about=""><dc:format>image/svg+xml</dc:format><dc:type
           rdf:resource="http://purl.org/dc/dcmitype/StillImage" /><dc:title></dc:title></cc:Work></rdf:RDF></metadata><defs
     id="defs6" /><sodipodi:namedview
     pagecolor="#ffffff"
     bordercolor="#666666"
     borderopacity="1"
     objecttolerance="10"
     gridtolerance="10"
     guidetolerance="10"
     inkscape:pageopacity="0"
     inkscape:pageshadow="2"
     inkscape:window-width="1850"
     inkscape:window-height="915"
     id="namedview4"
     showgrid="false"
     inkscape:zoom="0.42106446"
     inkscape:cx="136.55866"
     inkscape:cy="130.72027"
     inkscape:window-x="0"
     inkscape:window-y="360"
     inkscape:window-maximized="0"
     inkscape:current-layer="g10" /><g
     id="g10"
     inkscape:groupmode="layer"
     inkscape:label="ink_ext_XXXXXX"
     transform="matrix(1.3333333,0,0,-1.3333333,0,280.44)"><g
       id="g12"
       transform="scale(0.1)"><path
         d="m 1851.71,843.531 c 219.88,0 373.45,148.891 373.45,362.079 0,113.1 -50.55,204.66 -146.19,264.78 -66.77,41.98 -154.9,68.13 -262.88,78.13 29.74,88.07 23.68,186.37 -19.98,274.65 -41.68,84.24 -181.55,280.18 -579.25,280.18 -261.54,0 -431.098,-149.24 -476.837,-194.97 -25.484,-25.49 -141.828,-137.23 -258.636,-249.13 82.074,27.54 175.195,54.93 264.847,72.93 42.223,40.68 74.004,71.46 86.254,83.72 36.754,36.75 173.102,156.67 384.372,156.67 324.41,0 431.18,-145.04 462.03,-207.39 39.7,-80.26 32.13,-169.14 -20.24,-237.75 l -80.19,-105.06 h 132.17 c 317.17,0 383.75,-117.88 383.75,-216.76 0,-138.35 -97.52,-231.29 -242.67,-231.29 h -247.1 L 1438.58,843.531 h 413.13"
         style="fill:#1b75bb;fill-opacity:1;fill-rule:nonzero;stroke:none"
         id="path14"
         inkscape:connector-curvature="0" /><path
         d="m 925.805,1622.21 c 253.245,0 356.535,-78.12 356.535,-269.66 0,-302.62 -422.59,-311.09 -426.863,-311.09 h -476.68 l 404.598,317.18 H 571.43 L 0,910.68 h 867.754 v 0.16 c 163.006,4.051 545.356,88.43 545.356,441.71 0,202.75 -100.87,298.18 -185.49,342.55 -97.87,51.31 -212.71,57.89 -301.815,57.89 -54.602,0 -116.207,-8.07 -179.571,-20.81 -54.367,-52.36 -126.05,-121.12 -195.91,-188.03 124.324,40.52 268.391,78.06 375.481,78.06"
         style="fill:#26aae0;fill-opacity:1;fill-rule:nonzero;stroke:none"
         id="path16"
         inkscape:connector-curvature="0" /><path
         d="m 231.84,1420.53 54.332,24.6 c 2.156,0.97 119.848,52 264.152,99.02 69.86,66.91 141.543,135.67 195.91,188.03 -89.652,-18 -182.773,-45.39 -264.847,-72.93 C 376.98,1559.24 272.465,1459.34 231.84,1420.53"
         style="fill:#2294d1;fill-opacity:1;fill-rule:nonzero;stroke:none"
         id="path18"
         inkscape:connector-curvature="0" /><path
         d="M 1227.22,843.531 841.371,539.629 H 1490.82 L 796.391,0 h 213.139 l 862.72,670.398 h -653.47 l 219.8,173.133 h -211.36"
         style="fill:#faaf40;fill-opacity:1;fill-rule:nonzero;stroke:none"
         id="path20"
         inkscape:connector-curvature="0" /><path
         d="M 1438.58,843.531 1604.61,974.32 H 1393.27 L 1227.22,843.531 h 211.36"
         style="fill:#8b927d;fill-opacity:1;fill-rule:nonzero;stroke:none"
         id="path22"
         inkscape:connector-curvature="0" /><path
         d="m 3070.45,1083.15 c -4.63,4.63 -13.09,10.95 -25.38,18.9 -12.28,7.97 -27.21,15.76 -44.78,23.39 -17.57,7.62 -36.64,14.08 -57.21,19.41 -20.57,5.29 -41.47,7.96 -62.69,7.96 -37.82,0 -66.02,-6.97 -84.59,-20.9 -18.57,-13.93 -27.86,-33.51 -27.86,-58.71 0,-14.6 3.48,-26.71 10.45,-36.32 6.97,-9.63 17.07,-18.09 30.35,-25.39 13.26,-7.3 30,-13.92 50.25,-19.888 20.23,-5.981 43.62,-12.293 70.15,-18.922 34.51,-9.289 65.84,-19.239 94.05,-29.84 28.19,-10.621 52.08,-23.891 71.63,-39.801 19.59,-15.918 34.69,-35.008 45.3,-57.23 10.59,-22.239 15.92,-49.598 15.92,-82.09 0,-37.821 -7.15,-70.168 -21.4,-97.039 -14.27,-26.86 -33.34,-48.598 -57.21,-65.18 -23.9,-16.578 -51.74,-28.699 -83.61,-36.328 -31.84,-7.59 -65.01,-11.434 -99.49,-11.434 -53.09,0 -105.49,7.961 -157.24,23.891 -51.75,15.91 -98.19,38.461 -139.32,67.672 l 60.7,118.418 c 5.98,-5.981 16.75,-13.778 32.35,-23.387 15.58,-9.621 33.98,-19.262 55.23,-28.871 21.22,-9.621 44.77,-17.75 70.65,-24.371 25.87,-6.641 52.4,-9.949 79.61,-9.949 75.63,0 113.43,24.211 113.43,72.64 0,15.918 -4.32,29.188 -12.91,39.809 -8.63,10.59 -20.92,19.898 -36.84,27.859 -15.92,7.973 -35.17,15.25 -57.71,21.883 -22.56,6.637 -47.77,13.598 -75.63,20.898 -33.83,9.29 -63.19,19.418 -88.07,30.36 -24.88,10.941 -45.62,23.719 -62.19,38.32 -16.59,14.59 -29.04,31.84 -37.32,51.731 -8.3,19.919 -12.44,43.449 -12.44,70.659 0,35.83 6.63,67.67 19.9,95.54 13.27,27.86 31.67,51.07 55.23,69.65 23.54,18.57 50.91,32.67 82.1,42.3 31.17,9.6 64.68,14.43 100.51,14.43 49.76,0 95.54,-7.81 137.32,-23.39 41.81,-15.59 78.27,-34.01 109.46,-55.23 l -60.7,-111.45"
         style="fill:#000000;fill-opacity:1;fill-rule:nonzero;stroke:none"
         id="path24"
         inkscape:connector-curvature="0" /><path
         d="m 3784.96,1147.83 h -224.9 V 561.699 h -137.33 v 586.131 h -225.89 v 120.4 h 588.12 v -120.4"
         style="fill:#000000;fill-opacity:1;fill-rule:nonzero;stroke:none"
         id="path26"
         inkscape:connector-curvature="0" /><path
         d="m 3948.14,914.969 c 0,-30.528 4.48,-60.047 13.44,-88.559 8.96,-28.539 21.89,-53.75 38.82,-75.64 16.91,-21.891 37.63,-39.469 62.18,-52.739 24.55,-13.269 52.4,-19.902 83.59,-19.902 31.85,0 59.87,6.801 84.09,20.391 24.21,13.601 44.6,31.671 61.2,54.242 16.58,22.547 29.18,47.918 37.81,76.136 8.63,28.192 12.95,56.872 12.95,86.071 0,30.511 -4.66,60.043 -13.94,88.561 -9.3,28.52 -22.39,53.74 -39.31,75.63 -16.92,21.9 -37.48,39.32 -61.7,52.25 -24.22,12.94 -51.58,19.4 -82.1,19.4 -31.83,0 -59.88,-6.81 -84.09,-20.4 -24.22,-13.59 -44.76,-31.51 -61.7,-53.74 -16.91,-22.22 -29.68,-47.42 -38.31,-75.63 -8.62,-28.2 -12.93,-56.88 -12.93,-86.071 z m 196.05,-358.25 c -49.76,0 -95.21,10.113 -136.35,30.351 -41.13,20.239 -76.45,47.102 -105.97,80.61 -29.53,33.5 -52.25,71.808 -68.17,114.941 -15.92,43.117 -23.88,87.219 -23.88,132.348 0,47.101 8.46,92.211 25.37,135.341 16.93,43.12 40.47,81.25 70.66,114.44 30.17,33.16 65.84,59.53 106.97,79.11 41.12,19.56 85.91,29.36 134.35,29.36 49.76,0 95.18,-10.45 136.33,-31.34 41.13,-20.91 76.27,-48.28 105.48,-82.11 29.19,-33.83 51.75,-72.32 67.68,-115.44 15.92,-43.13 23.88,-86.92 23.88,-131.342 0,-47.117 -8.46,-92.058 -25.37,-134.847 -16.93,-42.789 -40.32,-80.61 -70.16,-113.442 -29.85,-32.847 -65.36,-59.051 -106.49,-78.617 -41.13,-19.57 -85.91,-29.363 -134.33,-29.363"
         style="fill:#000000;fill-opacity:1;fill-rule:nonzero;stroke:none"
         id="path28"
         inkscape:connector-curvature="0" /><path
         d="m 4724.34,918.949 h 172.16 c 12.59,0 24.38,2.981 35.32,8.961 10.95,5.969 20.41,14.078 28.36,24.379 7.96,10.281 14.26,22.402 18.91,36.313 4.64,13.938 6.96,28.868 6.96,44.788 0,16.57 -2.65,31.84 -7.96,45.77 -5.31,13.94 -12.43,26.04 -21.38,36.33 -8.97,10.28 -19.26,18.24 -30.85,23.88 -11.62,5.63 -23.39,8.46 -35.33,8.46 h -166.19 z m -137.33,-357.25 v 706.531 h 312.47 c 32.49,0 62.52,-6.8 90.07,-20.39 27.51,-13.6 51.24,-31.52 71.14,-53.74 19.9,-22.23 35.48,-47.44 46.78,-75.62 11.26,-28.21 16.91,-56.57 16.91,-85.09 0,-45.781 -11.43,-87.41 -34.32,-124.89 -22.89,-37.5 -53.92,-64.531 -93.05,-81.102 L 5163.19,561.699 H 5007.95 L 4859.68,798.531 H 4724.34 V 561.699 h -137.33"
         style="fill:#000000;fill-opacity:1;fill-rule:nonzero;stroke:none"
         id="path30"
         inkscape:connector-curvature="0" /><path
         d="M 5833.9,561.699 V 1029.41 L 5651.8,681.109 h -74.64 L 5395.05,1029.41 V 561.699 H 5257.71 V 1268.23 H 5405 l 208.97,-402.019 210.97,402.019 h 146.28 V 561.699 H 5833.9"
         style="fill:#000000;fill-opacity:1;fill-rule:nonzero;stroke:none"
         id="path32"
         inkscape:connector-curvature="0" /><path
         d="m 6175.04,1242.93 h -43.21 v -112.59 h -26.38 v 112.59 h -43.39 v 23.12 h 112.98 v -23.12"
         style="fill:#000000;fill-opacity:1;fill-rule:nonzero;stroke:none"
         id="path34"
         inkscape:connector-curvature="0" /><path
         d="m 6302.71,1130.34 v 89.84 l -34.97,-66.91 h -14.33 l -34.98,66.91 v -89.84 h -26.38 v 135.71 h 28.28 l 40.15,-77.22 40.53,77.22 h 28.09 v -135.71 h -26.39"
         style="fill:#000000;fill-opacity:1;fill-rule:nonzero;stroke:none"
         id="path36"
         inkscape:connector-curvature="0" /><path
         d="m 2836.1,1792.42 -91.32,-217.36 h 180.13 z m -203.89,-388.89 185.75,439.66 h 35.65 l 185.76,-439.66 h -46.91 L 2934.92,1541 H 2735.4 l -56.91,-137.47 h -46.28"
         style="fill:#000000;fill-opacity:1;fill-rule:nonzero;stroke:none"
         id="path38"
         inkscape:connector-curvature="0" /><path
         d="m 3146.93,1604.16 h 141.98 c 12.91,0 24.7,2.79 35.33,8.36 10.63,5.58 19.71,13.01 27.2,22.3 7.51,9.29 13.35,20.02 17.52,32.2 4.16,12.17 6.25,24.86 6.25,38.08 0,13.63 -2.4,26.53 -7.19,38.71 -4.8,12.17 -11.25,22.8 -19.39,31.89 -8.13,9.07 -17.72,16.2 -28.76,21.36 -11.05,5.16 -22.63,7.74 -34.71,7.74 h -138.23 z m -43.15,-200.63 v 439.66 h 183.88 c 19.17,0 36.79,-4.01 52.84,-12.07 16.05,-8.05 29.92,-18.58 41.6,-31.58 11.66,-13.01 20.74,-27.77 27.2,-44.28 6.47,-16.51 9.7,-33.24 9.7,-50.16 0,-18.17 -3.03,-35.6 -9.08,-52.33 -6.04,-16.71 -14.69,-31.48 -25.96,-44.27 -11.25,-12.8 -24.69,-23.12 -40.32,-30.96 -15.64,-7.85 -33.06,-11.77 -52.23,-11.77 h -144.48 v -162.24 h -43.15"
         style="fill:#000000;fill-opacity:1;fill-rule:nonzero;stroke:none"
         id="path40"
         inkscape:connector-curvature="0" /><path
         d="m 3619.75,1792.42 -91.29,-217.36 h 180.09 z m -203.88,-388.89 185.73,439.66 h 35.66 l 185.76,-439.66 H 3776.1 L 3718.56,1541 h -199.49 l -56.91,-137.47 h -46.29"
         style="fill:#000000;fill-opacity:1;fill-rule:nonzero;stroke:none"
         id="path42"
         inkscape:connector-curvature="0" /><path
         d="m 3858.65,1626.46 c 0,26.42 4.7,52.73 14.07,78.95 9.39,26.22 23.03,49.64 40.97,70.29 17.92,20.63 40.03,37.46 66.3,50.47 26.27,13.01 56.06,19.5 89.44,19.5 39.6,0 73.38,-8.88 101.32,-26.63 27.93,-17.75 48.79,-40.87 62.54,-69.35 l -35.03,-21.05 c -7.09,14.44 -15.63,26.62 -25.63,36.53 -10.01,9.9 -20.86,17.96 -32.53,24.15 -11.68,6.2 -23.77,10.62 -36.27,13.31 -12.52,2.68 -24.82,4.03 -36.91,4.03 -26.68,0 -50.25,-5.37 -70.67,-16.11 -20.43,-10.73 -37.63,-24.76 -51.59,-42.1 -13.99,-17.34 -24.51,-36.85 -31.59,-58.52 -7.09,-21.67 -10.63,-43.66 -10.63,-65.95 0,-24.36 4.27,-47.68 12.81,-69.98 8.55,-22.29 20.23,-42.01 35.02,-59.14 14.81,-17.13 32.32,-30.75 52.55,-40.86 20.21,-10.12 42.22,-15.17 65.99,-15.17 12.5,0 25.33,1.55 38.45,4.63 13.14,3.11 25.85,8.06 38.16,14.88 12.28,6.8 23.65,15.26 34.08,25.38 10.42,10.11 19.18,22.39 26.27,36.85 l 36.27,-18.59 c -7.09,-16.51 -17.1,-31.06 -30.01,-43.64 -12.93,-12.61 -27.31,-23.23 -43.15,-31.9 -15.85,-8.67 -32.64,-15.28 -50.37,-19.82 -17.72,-4.53 -35.11,-6.81 -52.21,-6.81 -30.44,0 -58.38,6.6 -83.81,19.82 -25.43,13.21 -47.32,30.44 -65.67,51.71 -18.35,21.25 -32.63,45.41 -42.85,72.45 -10.21,27.03 -15.32,54.59 -15.32,82.67"
         style="fill:#000000;fill-opacity:1;fill-rule:nonzero;stroke:none"
         id="path44"
         inkscape:connector-curvature="0" /><path
         d="m 4668.6,1843.19 v -439.66 h -43.78 v 205.59 h -263.31 v -205.59 h -43.15 v 439.66 h 43.15 v -195.68 h 263.31 v 195.68 h 43.78"
         style="fill:#000000;fill-opacity:1;fill-rule:nonzero;stroke:none"
         id="path46"
         inkscape:connector-curvature="0" /><path
         d="m 5078.88,1441.92 v -38.39 h -298.33 v 439.66 h 292.69 V 1804.8 H 4823.7 v -158.53 h 217.64 v -36.54 H 4823.7 v -167.81 h 255.18"
         style="fill:#000000;fill-opacity:1;fill-rule:nonzero;stroke:none"
         id="path48"
         inkscape:connector-curvature="0" /><path
         d="m 2758.36,190.082 c 0,11.328 -1.61,21.75 -4.84,31.207 -3.21,9.473 -7.91,17.66 -14.08,24.57 -6.16,6.903 -13.72,12.262 -22.66,16.063 -8.94,3.808 -19.23,5.726 -30.85,5.726 h -45.88 v -155.66 h 45.88 c 11.8,0 22.21,2 31.25,5.992 9.03,3.969 16.59,9.461 22.67,16.461 6.08,6.989 10.68,15.231 13.81,24.707 3.13,9.461 4.7,19.774 4.7,30.934 z M 2621.55,95.5313 V 284.109 h 64.38 c 15.2,0 28.52,-2.488 39.97,-7.437 11.44,-4.961 20.96,-11.692 28.57,-20.203 7.6,-8.489 13.27,-18.438 17.03,-29.86 3.76,-11.429 5.63,-23.597 5.63,-36.527 0,-14.352 -2.14,-27.32 -6.43,-38.91 -4.29,-11.59 -10.38,-21.512 -18.24,-29.75 -7.87,-8.223 -17.44,-14.602 -28.71,-19.121 -11.26,-4.5119 -23.87,-6.7697 -37.82,-6.7697 h -64.38"
         style="fill:#1b75bb;fill-opacity:1;fill-rule:nonzero;stroke:none"
         id="path50"
         inkscape:connector-curvature="0" /><path
         d="M 2809.33,95.5313 V 233.91 h 18.23 V 95.5313 Z m 0,167.3277 v 26.551 h 18.23 v -26.551 h -18.23"
         style="fill:#1b75bb;fill-opacity:1;fill-rule:nonzero;stroke:none"
         id="path52"
         inkscape:connector-curvature="0" /><path
         d="m 2913.67,92.8789 c -10.9,0 -21.55,1.7695 -31.92,5.3008 -10.37,3.5503 -19.31,8.6723 -26.82,15.4103 l 8.31,12.219 c 7.87,-6.368 15.87,-11.149 24.01,-14.348 8.13,-3.191 16.86,-4.77 26.16,-4.77 11.27,0 20.25,2.25 26.96,6.77 6.7,4.519 10.05,10.93 10.05,19.25 0,3.898 -0.89,7.121 -2.68,9.699 -1.78,2.559 -4.43,4.82 -7.9,6.781 -3.49,1.938 -7.88,3.668 -13.16,5.168 -5.27,1.512 -11.4,3.051 -18.37,4.641 -8.05,1.949 -15.02,3.91 -20.93,5.852 -5.9,1.949 -10.77,4.16 -14.61,6.636 -3.85,2.481 -6.72,5.543 -8.59,9.172 -1.88,3.621 -2.81,8.192 -2.81,13.672 0,6.906 1.38,13.02 4.15,18.328 2.77,5.309 6.53,9.692 11.27,13.149 4.73,3.453 10.28,6.062 16.63,7.832 6.34,1.769 13.1,2.66 20.25,2.66 10.74,0 20.48,-1.731 29.23,-5.18 8.77,-3.449 15.84,-8.019 21.21,-13.68 l -8.86,-10.621 c -5.18,5.309 -11.5,9.282 -18.9,11.961 -7.43,2.641 -15.16,3.957 -23.21,3.957 -4.83,0 -9.3,-0.476 -13.42,-1.449 -4.11,-0.969 -7.73,-2.508 -10.86,-4.641 -3.13,-2.128 -5.59,-4.816 -7.38,-8.109 -1.79,-3.277 -2.68,-7.129 -2.68,-11.551 0,-3.718 0.62,-6.738 1.88,-9.039 1.25,-2.301 3.3,-4.277 6.17,-5.969 2.86,-1.679 6.48,-3.179 10.86,-4.511 4.38,-1.328 9.7,-2.699 15.96,-4.117 8.94,-2.133 16.81,-4.243 23.61,-6.372 6.79,-2.128 12.48,-4.609 17.03,-7.441 4.57,-2.828 8,-6.277 10.33,-10.348 2.33,-4.07 3.49,-9.043 3.49,-14.871 0,-12.769 -4.92,-22.859 -14.75,-30.289 -9.85,-7.4412 -23.08,-11.1521 -39.71,-11.1521"
         style="fill:#1b75bb;fill-opacity:1;fill-rule:nonzero;stroke:none"
         id="path54"
         inkscape:connector-curvature="0" /><path
         d="m 3064.7,102.18 c -1.08,-0.551 -2.64,-1.25 -4.7,-2.129 -2.06,-0.8908 -4.42,-1.7815 -7.11,-2.6604 -2.68,-0.9023 -5.72,-1.6914 -9.12,-2.3789 -3.39,-0.7109 -6.97,-1.0703 -10.73,-1.0703 -3.93,0 -7.69,0.5195 -11.27,1.5899 -3.57,1.0585 -6.69,2.6992 -9.38,4.9097 -2.69,2.219 -4.84,5.008 -6.44,8.379 -1.61,3.36 -2.41,7.239 -2.41,11.668 v 99.082 h -19.31 v 14.34 h 19.31 v 46.738 h 18.23 V 233.91 h 32.2 v -14.34 h -32.2 v -94.019 c 0.36,-5.141 2.15,-8.903 5.37,-11.281 3.22,-2.411 7.06,-3.598 11.54,-3.598 5.17,0 9.74,0.84 13.67,2.527 3.93,1.672 6.45,2.86 7.52,3.582 l 4.83,-14.601"
         style="fill:#1b75bb;fill-opacity:1;fill-rule:nonzero;stroke:none"
         id="path56"
         inkscape:connector-curvature="0" /><path
         d="m 3155.9,217.969 c -12.35,-0.36 -23.07,-3.719 -32.19,-10.09 -9.12,-6.379 -15.56,-15.149 -19.32,-26.297 V 95.5313 h -18.23 V 233.91 h 17.16 v -33.199 c 4.83,9.738 11.17,17.828 19.05,24.289 7.86,6.469 16.36,9.711 25.49,9.711 1.6,0 3.12,0 4.55,0 1.43,0 2.59,-0.102 3.49,-0.27 v -16.472"
         style="fill:#1b75bb;fill-opacity:1;fill-rule:nonzero;stroke:none"
         id="path58"
         inkscape:connector-curvature="0" /><path
         d="M 3180.31,95.5313 V 233.91 h 18.23 V 95.5313 Z m 0,167.3277 v 26.551 h 18.23 v -26.551 h -18.23"
         style="fill:#1b75bb;fill-opacity:1;fill-rule:nonzero;stroke:none"
         id="path60"
         inkscape:connector-curvature="0" /><path
         d="m 3301.84,108.82 c 7.69,0 14.71,1.539 21.05,4.641 6.35,3.098 11.81,7.258 16.36,12.48 4.58,5.219 8.13,11.161 10.73,17.797 2.6,6.641 3.89,13.492 3.89,20.594 0,7.25 -1.2,14.238 -3.62,20.969 -2.41,6.719 -5.81,12.699 -10.19,17.929 -4.38,5.231 -9.62,9.391 -15.69,12.481 -6.09,3.109 -12.79,4.648 -20.12,4.648 -5.55,0 -10.73,-0.937 -15.55,-2.789 -4.84,-1.859 -9.32,-4.379 -13.42,-7.558 -4.12,-3.192 -7.83,-6.883 -11.14,-11.043 -3.3,-4.149 -6.03,-8.528 -8.18,-13.129 v -43.031 c 0.72,-4.778 2.64,-9.27 5.77,-13.418 3.12,-4.161 6.93,-7.75 11.39,-10.762 4.48,-3.008 9.22,-5.391 14.22,-7.168 5.01,-1.762 9.84,-2.641 14.5,-2.641 z m 4.29,-15.9411 c -10.91,0 -21.01,2.7305 -30.32,8.2301 -9.3,5.493 -16.53,12.571 -21.73,21.243 V 95.5313 h -16.36 V 289.41 h 18.24 v -84.461 c 6.26,9.391 13.78,16.961 22.53,22.723 8.77,5.75 19.06,8.629 30.85,8.629 9.66,0 18.42,-2.039 26.29,-6.121 7.87,-4.071 14.54,-9.508 19.98,-16.328 5.46,-6.813 9.67,-14.52 12.62,-23.102 2.95,-8.578 4.43,-17.398 4.43,-26.418 0,-9.75 -1.7,-18.961 -5.09,-27.633 -3.41,-8.668 -8.11,-16.25 -14.09,-22.711 -6,-6.468 -13.06,-11.609 -21.2,-15.406 -8.14,-3.8125 -16.85,-5.7031 -26.15,-5.7031"
         style="fill:#1b75bb;fill-opacity:1;fill-rule:nonzero;stroke:none"
         id="path62"
         inkscape:connector-curvature="0" /><path
         d="m 3446.15,92.8789 c -14.68,0 -25.76,4.9922 -33.28,15.0001 -7.5,10 -11.26,24.91 -11.26,44.762 v 81.269 h 18.24 v -78.078 c 0,-31.352 10.81,-47.012 32.45,-47.012 5.37,0 10.65,0.879 15.84,2.641 5.18,1.777 9.96,4.348 14.35,7.711 4.38,3.367 8.32,7.34 11.81,11.949 3.49,4.598 6.29,9.84 8.44,15.668 v 87.121 h 18.25 v -115 c 0,-4.961 2.22,-7.449 6.69,-7.449 V 95.5313 c -3.57,-0.5196 -6.07,-0.7891 -7.5,-0.7891 -4.12,0 -7.65,1.2383 -10.6,3.7187 -2.95,2.4691 -4.42,5.5701 -4.42,9.2891 v 19.121 c -6.26,-10.812 -14.58,-19.172 -24.96,-25.09 -10.37,-5.9412 -21.72,-8.9021 -34.05,-8.9021"
         style="fill:#1b75bb;fill-opacity:1;fill-rule:nonzero;stroke:none"
         id="path64"
         inkscape:connector-curvature="0" /><path
         d="m 3629.65,102.18 c -1.09,-0.551 -2.65,-1.25 -4.7,-2.129 -2.06,-0.8908 -4.43,-1.7815 -7.11,-2.6604 -2.68,-0.9023 -5.72,-1.6914 -9.13,-2.3789 -3.39,-0.7109 -6.96,-1.0703 -10.72,-1.0703 -3.94,0 -7.7,0.5195 -11.27,1.5899 -3.58,1.0585 -6.7,2.6992 -9.38,4.9097 -2.7,2.219 -4.84,5.008 -6.44,8.379 -1.62,3.36 -2.41,7.239 -2.41,11.668 v 99.082 h -19.32 v 14.34 h 19.32 v 46.738 h 18.23 V 233.91 h 32.2 v -14.34 h -32.2 v -94.019 c 0.35,-5.141 2.14,-8.903 5.36,-11.281 3.22,-2.411 7.07,-3.598 11.54,-3.598 5.18,0 9.75,0.84 13.67,2.527 3.94,1.672 6.45,2.86 7.53,3.582 l 4.83,-14.601"
         style="fill:#1b75bb;fill-opacity:1;fill-rule:nonzero;stroke:none"
         id="path66"
         inkscape:connector-curvature="0" /><path
         d="m 3763.76,172.02 c -0.54,7.441 -2.29,14.218 -5.24,20.312 -2.95,6.129 -6.71,11.387 -11.27,15.809 -4.56,4.441 -9.87,7.879 -15.96,10.359 -6.08,2.48 -12.51,3.73 -19.32,3.73 -6.8,0 -13.23,-1.25 -19.3,-3.73 -6.08,-2.48 -11.4,-5.918 -15.97,-10.359 -4.55,-4.422 -8.21,-9.731 -11,-15.93 -2.76,-6.211 -4.42,-12.922 -4.95,-20.191 z m -51.51,-79.1411 c -10.19,0 -19.58,1.8906 -28.17,5.7031 -8.58,3.797 -16,9.039 -22.26,15.688 -6.26,6.621 -11.13,14.281 -14.62,22.972 -3.49,8.668 -5.24,17.957 -5.24,27.879 0,9.731 1.75,18.899 5.24,27.488 3.49,8.582 8.36,16.102 14.62,22.571 6.26,6.461 13.63,11.601 22.13,15.41 8.49,3.801 17.84,5.711 28.02,5.711 10.21,0 19.54,-1.91 28.05,-5.711 8.48,-3.809 15.78,-8.988 21.85,-15.531 6.09,-6.559 10.82,-14.079 14.22,-22.579 3.4,-8.5 5.09,-17.539 5.09,-27.089 0,-1.422 -0.04,-2.84 -0.13,-4.262 -0.09,-1.41 -0.22,-2.379 -0.4,-2.918 h -119.37 c 0.54,-7.441 2.28,-14.301 5.23,-20.57 2.95,-6.289 6.71,-11.743 11.27,-16.34 4.55,-4.61 9.84,-8.211 15.82,-10.75 5.99,-2.59 12.39,-3.86 19.18,-3.86 4.64,0 9.21,0.618 13.68,1.848 4.48,1.231 8.59,2.922 12.35,5.051 3.75,2.121 7.11,4.73 10.05,7.832 2.95,3.098 5.23,6.508 6.85,10.226 l 15.82,-4.25 c -2.14,-5.136 -5.19,-9.789 -9.12,-13.937 -3.93,-4.16 -8.5,-7.801 -13.68,-10.891 -5.2,-3.1012 -10.91,-5.488 -17.17,-7.1716 -6.26,-1.6875 -12.7,-2.5195 -19.31,-2.5195"
         style="fill:#1b75bb;fill-opacity:1;fill-rule:nonzero;stroke:none"
         id="path68"
         inkscape:connector-curvature="0" /><path
         d="m 3870.25,108.82 c 4.64,0 9.52,0.879 14.62,2.641 5.1,1.777 9.84,4.199 14.22,7.32 4.39,3.078 8.18,6.719 11.41,10.879 3.21,4.16 5.18,8.629 5.89,13.41 v 42.77 c -1.79,4.781 -4.43,9.25 -7.9,13.41 -3.5,4.16 -7.43,7.832 -11.81,11.02 -4.39,3.191 -9.04,5.671 -13.95,7.441 -4.93,1.758 -9.79,2.648 -14.62,2.648 -7.52,0 -14.36,-1.578 -20.51,-4.777 -6.18,-3.191 -11.42,-7.391 -15.7,-12.613 -4.3,-5.231 -7.65,-11.199 -10.06,-17.918 -2.42,-6.75 -3.62,-13.641 -3.62,-20.719 0,-7.441 1.33,-14.543 4.02,-21.262 2.68,-6.718 6.34,-12.609 10.99,-17.648 4.66,-5.063 10.15,-9.082 16.51,-12.09 6.34,-3.012 13.18,-4.512 20.51,-4.512 z m -3.76,-15.9411 c -9.65,0 -18.6,1.9805 -26.81,5.9727 -8.24,3.9884 -15.34,9.2504 -21.33,15.8084 -5.99,6.539 -10.65,14.121 -13.96,22.699 -3.3,8.59 -4.96,17.571 -4.96,26.973 0,9.727 1.62,18.977 4.84,27.75 3.21,8.758 7.63,16.418 13.27,22.977 5.63,6.543 12.34,11.722 20.12,15.531 7.78,3.801 16.32,5.711 25.61,5.711 11.81,0 22.27,-3.051 31.4,-9.172 9.12,-6.098 16.35,-13.488 21.72,-22.18 v 84.461 h 18.25 v -170.5 c 0,-4.961 2.14,-7.449 6.44,-7.449 V 95.5313 c -3.05,-0.5196 -5.47,-0.7891 -7.25,-0.7891 -4.48,0 -8.14,1.2695 -11,3.8398 -2.87,2.566 -4.29,5.617 -4.29,9.168 v 14.602 c -5.73,-9.02 -13.28,-16.192 -22.67,-21.512 -9.38,-5.3087 -19.17,-7.9611 -29.38,-7.9611"
         style="fill:#1b75bb;fill-opacity:1;fill-rule:nonzero;stroke:none"
         id="path70"
         inkscape:connector-curvature="0" /><path
         d="m 4233.83,181.582 h 62.49 c 5.55,0 10.6,1.188 15.15,3.59 4.57,2.387 8.46,5.617 11.68,9.687 3.23,4.071 5.73,8.672 7.51,13.813 1.79,5.137 2.69,10.547 2.69,16.199 0,5.668 -1.05,11.121 -3.09,16.34 -2.05,5.219 -4.83,9.781 -8.31,13.68 -3.49,3.89 -7.61,6.988 -12.34,9.289 -4.75,2.3 -9.71,3.468 -14.89,3.468 h -60.89 z M 4215.31,95.5313 V 284.109 h 80.22 c 8.21,0 15.82,-1.738 22.79,-5.187 6.98,-3.442 12.97,-7.961 17.98,-13.551 5.01,-5.582 8.89,-11.902 11.66,-18.98 2.78,-7.082 4.16,-14.25 4.16,-21.52 0,-6.902 -1.03,-13.5 -3.08,-19.769 -2.06,-6.293 -4.97,-11.973 -8.72,-17.012 -3.76,-5.039 -8.22,-9.289 -13.42,-12.75 -5.18,-3.449 -10.99,-5.789 -17.43,-7.039 l 46.95,-72.7697 h -21.21 l -45.04,69.5897 h -56.34 V 95.5313 h -18.52"
         style="fill:#1b75bb;fill-opacity:1;fill-rule:nonzero;stroke:none"
         id="path72"
         inkscape:connector-curvature="0" /><path
         d="m 4500.47,172.02 c -0.55,7.441 -2.29,14.218 -5.25,20.312 -2.95,6.129 -6.71,11.387 -11.26,15.809 -4.56,4.441 -9.88,7.879 -15.96,10.359 -6.08,2.48 -12.52,3.73 -19.32,3.73 -6.8,0 -13.23,-1.25 -19.31,-3.73 -6.07,-2.48 -11.39,-5.918 -15.96,-10.359 -4.56,-4.422 -8.22,-9.731 -11,-15.93 -2.77,-6.211 -4.43,-12.922 -4.95,-20.191 z m -51.52,-79.1411 c -10.18,0 -19.58,1.8906 -28.17,5.7031 -8.58,3.797 -16.01,9.039 -22.26,15.688 -6.26,6.621 -11.13,14.281 -14.61,22.972 -3.5,8.668 -5.24,17.957 -5.24,27.879 0,9.731 1.74,18.899 5.24,27.488 3.48,8.582 8.35,16.102 14.61,22.571 6.25,6.461 13.64,11.601 22.13,15.41 8.49,3.801 17.85,5.711 28.03,5.711 10.21,0 19.54,-1.91 28.05,-5.711 8.47,-3.809 15.77,-8.988 21.84,-15.531 6.1,-6.559 10.83,-14.079 14.22,-22.579 3.41,-8.5 5.1,-17.539 5.1,-27.089 0,-1.422 -0.04,-2.84 -0.13,-4.262 -0.09,-1.41 -0.22,-2.379 -0.4,-2.918 h -119.38 c 0.54,-7.441 2.28,-14.301 5.24,-20.57 2.95,-6.289 6.71,-11.743 11.26,-16.34 4.56,-4.61 9.84,-8.211 15.82,-10.75 6,-2.59 12.39,-3.86 19.19,-3.86 4.64,0 9.21,0.618 13.68,1.848 4.48,1.231 8.59,2.922 12.35,5.051 3.75,2.121 7.11,4.73 10.05,7.832 2.94,3.098 5.23,6.508 6.85,10.226 l 15.82,-4.25 c -2.15,-5.136 -5.19,-9.789 -9.12,-13.937 -3.94,-4.16 -8.51,-7.801 -13.68,-10.891 -5.2,-3.1012 -10.92,-5.488 -17.17,-7.1716 -6.26,-1.6875 -12.7,-2.5195 -19.32,-2.5195"
         style="fill:#1b75bb;fill-opacity:1;fill-rule:nonzero;stroke:none"
         id="path74"
         inkscape:connector-curvature="0" /><path
         d="m 4592.21,92.8789 c -10.92,0 -21.56,1.7695 -31.92,5.3008 -10.37,3.5503 -19.31,8.6723 -26.83,15.4103 l 8.32,12.219 c 7.87,-6.368 15.88,-11.149 24,-14.348 8.14,-3.191 16.86,-4.77 26.15,-4.77 11.27,0 20.27,2.25 26.97,6.77 6.7,4.519 10.05,10.93 10.05,19.25 0,3.898 -0.88,7.121 -2.67,9.699 -1.79,2.559 -4.44,4.82 -7.92,6.781 -3.48,1.938 -7.86,3.668 -13.15,5.168 -5.27,1.512 -11.39,3.051 -18.37,4.641 -8.04,1.949 -15.02,3.91 -20.91,5.852 -5.91,1.949 -10.79,4.16 -14.63,6.636 -3.85,2.481 -6.7,5.543 -8.6,9.172 -1.86,3.621 -2.8,8.192 -2.8,13.672 0,6.906 1.38,13.02 4.15,18.328 2.78,5.309 6.54,9.692 11.27,13.149 4.75,3.453 10.27,6.062 16.63,7.832 6.35,1.769 13.1,2.66 20.26,2.66 10.72,0 20.47,-1.731 29.24,-5.18 8.75,-3.449 15.82,-8.019 21.19,-13.68 l -8.86,-10.621 c -5.18,5.309 -11.5,9.282 -18.9,11.961 -7.44,2.641 -15.15,3.957 -23.21,3.957 -4.83,0 -9.3,-0.476 -13.42,-1.449 -4.11,-0.969 -7.73,-2.508 -10.85,-4.641 -3.13,-2.128 -5.59,-4.816 -7.38,-8.109 -1.79,-3.277 -2.68,-7.129 -2.68,-11.551 0,-3.718 0.62,-6.738 1.87,-9.039 1.25,-2.301 3.31,-4.277 6.17,-5.969 2.86,-1.679 6.47,-3.179 10.86,-4.511 4.38,-1.328 9.71,-2.699 15.97,-4.117 8.93,-2.133 16.81,-4.243 23.61,-6.372 6.8,-2.128 12.47,-4.609 17.02,-7.441 4.57,-2.828 8.01,-6.277 10.33,-10.348 2.34,-4.07 3.5,-9.043 3.5,-14.871 0,-12.769 -4.92,-22.859 -14.76,-30.289 -9.83,-7.4412 -23.07,-11.1521 -39.7,-11.1521"
         style="fill:#1b75bb;fill-opacity:1;fill-rule:nonzero;stroke:none"
         id="path76"
         inkscape:connector-curvature="0" /><path
         d="M 4675.9,95.5313 V 233.91 h 18.23 V 95.5313 Z m 0,167.3277 v 26.551 h 18.23 v -26.551 h -18.23"
         style="fill:#1b75bb;fill-opacity:1;fill-rule:nonzero;stroke:none"
         id="path78"
         inkscape:connector-curvature="0" /><path
         d="m 4734.11,289.41 h 18.23 V 126.871 c 0,-5.133 1.44,-9.16 4.3,-12.09 2.85,-2.922 6.88,-4.383 12.06,-4.383 1.97,0 4.31,0.274 6.98,0.801 2.69,0.539 5.19,1.231 7.51,2.133 l 3.23,-14.6132 c -3.41,-1.418 -7.57,-2.5704 -12.49,-3.4571 -4.92,-0.8828 -9.16,-1.3203 -12.73,-1.3203 -8.42,0 -15.03,2.3399 -19.85,7.0386 -4.83,4.68 -7.24,11.282 -7.24,19.782 V 289.41"
         style="fill:#1b75bb;fill-opacity:1;fill-rule:nonzero;stroke:none"
         id="path80"
         inkscape:connector-curvature="0" /><path
         d="M 4804.12,95.5313 V 233.91 h 18.23 V 95.5313 Z m 0,167.3277 v 26.551 h 18.23 v -26.551 h -18.23"
         style="fill:#1b75bb;fill-opacity:1;fill-rule:nonzero;stroke:none"
         id="path82"
         inkscape:connector-curvature="0" /><path
         d="m 4974.19,172.02 c -0.54,7.441 -2.28,14.218 -5.24,20.312 -2.95,6.129 -6.7,11.387 -11.26,15.809 -4.56,4.441 -9.88,7.879 -15.96,10.359 -6.08,2.48 -12.52,3.73 -19.32,3.73 -6.8,0 -13.24,-1.25 -19.31,-3.73 -6.07,-2.48 -11.39,-5.918 -15.96,-10.359 -4.56,-4.422 -8.22,-9.731 -11,-15.93 -2.77,-6.211 -4.43,-12.922 -4.95,-20.191 z m -51.51,-79.1411 c -10.19,0 -19.58,1.8906 -28.17,5.7031 -8.58,3.797 -16.01,9.039 -22.26,15.688 -6.25,6.621 -11.13,14.281 -14.61,22.972 -3.5,8.668 -5.24,17.957 -5.24,27.879 0,9.731 1.74,18.899 5.24,27.488 3.48,8.582 8.36,16.102 14.61,22.571 6.25,6.461 13.64,11.601 22.13,15.41 8.49,3.801 17.85,5.711 28.03,5.711 10.21,0 19.54,-1.91 28.04,-5.711 8.48,-3.809 15.78,-8.988 21.85,-15.531 6.1,-6.559 10.83,-14.079 14.22,-22.579 3.41,-8.5 5.1,-17.539 5.1,-27.089 0,-1.422 -0.04,-2.84 -0.13,-4.262 -0.09,-1.41 -0.22,-2.379 -0.4,-2.918 h -119.38 c 0.54,-7.441 2.28,-14.301 5.23,-20.57 2.96,-6.289 6.72,-11.743 11.27,-16.34 4.56,-4.61 9.84,-8.211 15.82,-10.75 6,-2.59 12.39,-3.86 19.19,-3.86 4.64,0 9.21,0.618 13.68,1.848 4.47,1.231 8.59,2.922 12.35,5.051 3.75,2.121 7.11,4.73 10.05,7.832 2.95,3.098 5.23,6.508 6.85,10.226 l 15.82,-4.25 c -2.15,-5.136 -5.19,-9.789 -9.13,-13.937 -3.92,-4.16 -8.5,-7.801 -13.67,-10.891 -5.2,-3.1012 -10.92,-5.488 -17.18,-7.1716 -6.25,-1.6875 -12.69,-2.5195 -19.31,-2.5195"
         style="fill:#1b75bb;fill-opacity:1;fill-rule:nonzero;stroke:none"
         id="path84"
         inkscape:connector-curvature="0" /><path
         d="m 5136.47,95.5313 h -18.25 V 172.82 c 0,16.469 -2.41,28.418 -7.23,35.852 -4.83,7.43 -12.35,11.148 -22.53,11.148 -5.37,0 -10.74,-0.961 -16.1,-2.91 -5.36,-1.949 -10.37,-4.691 -15.03,-8.238 -4.65,-3.531 -8.71,-7.742 -12.2,-12.621 -3.49,-4.86 -6.13,-10.121 -7.91,-15.789 V 95.5313 h -18.25 V 233.91 h 16.63 v -31.34 c 2.87,4.95 6.39,9.512 10.61,13.68 4.2,4.16 8.9,7.738 14.07,10.75 5.2,3.012 10.7,5.309 16.51,6.91 5.81,1.602 11.85,2.391 18.1,2.391 7.86,0 14.44,-1.422 19.72,-4.262 5.27,-2.82 9.52,-6.809 12.74,-11.937 3.23,-5.141 5.55,-11.43 6.99,-18.864 1.41,-7.437 2.13,-15.668 2.13,-24.699 V 95.5313"
         style="fill:#1b75bb;fill-opacity:1;fill-rule:nonzero;stroke:none"
         id="path86"
         inkscape:connector-curvature="0" /><path
         d="m 5240.83,102.18 c -1.07,-0.551 -2.64,-1.25 -4.7,-2.129 -2.06,-0.8908 -4.42,-1.7815 -7.11,-2.6604 -2.68,-0.9023 -5.72,-1.6914 -9.12,-2.3789 -3.4,-0.7109 -6.97,-1.0703 -10.73,-1.0703 -3.93,0 -7.69,0.5195 -11.27,1.5899 -3.57,1.0585 -6.69,2.6992 -9.38,4.9097 -2.69,2.219 -4.84,5.008 -6.44,8.379 -1.61,3.36 -2.41,7.239 -2.41,11.668 v 99.082 h -19.31 v 14.34 h 19.31 v 46.738 h 18.23 V 233.91 h 32.2 v -14.34 h -32.2 v -94.019 c 0.36,-5.141 2.15,-8.903 5.37,-11.281 3.22,-2.411 7.06,-3.598 11.53,-3.598 5.18,0 9.75,0.84 13.69,2.527 3.92,1.672 6.44,2.86 7.52,3.582 l 4.82,-14.601"
         style="fill:#1b75bb;fill-opacity:1;fill-rule:nonzero;stroke:none"
         id="path88"
         inkscape:connector-curvature="0" /><path
         d="m 5520.44,181.582 h 62.49 c 5.55,0 10.6,1.188 15.16,3.59 4.57,2.387 8.45,5.617 11.68,9.687 3.22,4.071 5.72,8.672 7.5,13.813 1.79,5.137 2.68,10.547 2.68,16.199 0,5.668 -1.03,11.121 -3.08,16.34 -2.06,5.219 -4.83,9.781 -8.31,13.68 -3.49,3.89 -7.6,6.988 -12.35,9.289 -4.74,2.3 -9.71,3.468 -14.88,3.468 h -60.89 z M 5501.92,95.5313 V 284.109 h 80.22 c 8.21,0 15.82,-1.738 22.79,-5.187 6.97,-3.442 12.97,-7.961 17.98,-13.551 5.01,-5.582 8.9,-11.902 11.66,-18.98 2.78,-7.082 4.16,-14.25 4.16,-21.52 0,-6.902 -1.03,-13.5 -3.08,-19.769 -2.06,-6.293 -4.97,-11.973 -8.72,-17.012 -3.76,-5.039 -8.22,-9.289 -13.41,-12.75 -5.19,-3.449 -11,-5.789 -17.44,-7.039 l 46.95,-72.7697 h -21.2 l -45.05,69.5897 h -56.34 V 95.5313 h -18.52"
         style="fill:#1b75bb;fill-opacity:1;fill-rule:nonzero;stroke:none"
         id="path90"
         inkscape:connector-curvature="0" /><path
         d="m 5787.09,172.02 c -0.54,7.441 -2.29,14.218 -5.24,20.312 -2.95,6.129 -6.71,11.387 -11.26,15.809 -4.57,4.441 -9.88,7.879 -15.97,10.359 -6.08,2.48 -12.51,3.73 -19.31,3.73 -6.79,0 -13.24,-1.25 -19.31,-3.73 -6.08,-2.48 -11.4,-5.918 -15.97,-10.359 -4.55,-4.422 -8.21,-9.731 -11,-15.93 -2.76,-6.211 -4.42,-12.922 -4.95,-20.191 z m -51.51,-79.1411 c -10.19,0 -19.58,1.8906 -28.17,5.7031 -8.58,3.797 -16,9.039 -22.26,15.688 -6.26,6.621 -11.13,14.281 -14.62,22.972 -3.49,8.668 -5.24,17.957 -5.24,27.879 0,9.731 1.75,18.899 5.24,27.488 3.49,8.582 8.36,16.102 14.62,22.571 6.26,6.461 13.63,11.601 22.13,15.41 8.49,3.801 17.84,5.711 28.03,5.711 10.2,0 19.53,-1.91 28.04,-5.711 8.49,-3.809 15.78,-8.988 21.85,-15.531 6.09,-6.559 10.82,-14.079 14.22,-22.579 3.4,-8.5 5.09,-17.539 5.09,-27.089 0,-1.422 -0.04,-2.84 -0.13,-4.262 -0.09,-1.41 -0.22,-2.379 -0.39,-2.918 h -119.38 c 0.54,-7.441 2.28,-14.301 5.23,-20.57 2.95,-6.289 6.71,-11.743 11.27,-16.34 4.55,-4.61 9.84,-8.211 15.82,-10.75 5.99,-2.59 12.39,-3.86 19.18,-3.86 4.65,0 9.21,0.618 13.68,1.848 4.48,1.231 8.59,2.922 12.35,5.051 3.75,2.121 7.11,4.73 10.05,7.832 2.95,3.098 5.23,6.508 6.85,10.226 l 15.82,-4.25 c -2.14,-5.136 -5.19,-9.789 -9.12,-13.937 -3.93,-4.16 -8.5,-7.801 -13.68,-10.891 -5.2,-3.1012 -10.91,-5.488 -17.17,-7.1716 -6.26,-1.6875 -12.7,-2.5195 -19.31,-2.5195"
         style="fill:#1b75bb;fill-opacity:1;fill-rule:nonzero;stroke:none"
         id="path92"
         inkscape:connector-curvature="0" /><path
         d="m 5873.45,106.691 c 8.04,0 16.05,1.731 24.01,5.168 7.96,3.45 14.26,8.192 18.92,14.211 1.25,1.602 2.31,3.321 3.22,5.18 0.89,1.852 1.33,3.59 1.33,5.172 V 159 c -6.08,2.309 -12.42,4.082 -19.05,5.332 -6.61,1.227 -13.04,1.848 -19.3,1.848 -13.06,0 -23.66,-2.621 -31.79,-7.828 -8.14,-5.243 -12.21,-12.442 -12.21,-21.653 0,-3.719 0.72,-7.359 2.15,-10.89 1.43,-3.547 3.62,-6.739 6.56,-9.559 2.96,-2.84 6.58,-5.141 10.87,-6.918 4.29,-1.762 9.39,-2.641 15.29,-2.641 z m -4.55,-13.8121 c -7.15,0 -13.69,1.1016 -19.58,3.3203 -5.91,2.211 -10.96,5.2618 -15.16,9.1598 -4.22,3.903 -7.48,8.411 -9.8,13.551 -2.32,5.129 -3.48,10.52 -3.48,16.199 0,6.371 1.42,12.172 4.29,17.403 2.86,5.207 6.87,9.687 12.07,13.41 5.17,3.707 11.39,6.59 18.64,8.617 7.24,2.051 15.24,3.07 24.01,3.07 6.97,0 14.12,-0.629 21.46,-1.879 7.33,-1.23 13.86,-3.011 19.58,-5.3 v 12.492 c 0,12.219 -3.53,21.898 -10.6,29.066 -7.07,7.184 -16.59,10.75 -28.56,10.75 -7.51,0 -14.99,-1.406 -22.4,-4.238 -7.42,-2.84 -14.99,-6.91 -22.67,-12.211 l -6.43,11.941 c 9.11,6.02 17.96,10.54 26.55,13.559 8.58,3 17.53,4.512 26.82,4.512 17,0 30.49,-4.871 40.51,-14.621 10.02,-9.731 15.03,-23.188 15.03,-40.348 V 118.91 c 0,-4.961 2.15,-7.449 6.42,-7.449 V 95.5313 c -1.42,-0.1719 -2.76,-0.3204 -4.01,-0.3907 -1.26,-0.0898 -2.32,-0.1289 -3.22,-0.1289 -3.58,0 -6.84,1.0391 -9.79,3.168 -2.96,2.1293 -4.62,5.3203 -4.97,9.5703 l -0.53,10.879 c -6.08,-8.141 -14.09,-14.469 -24.02,-18.9806 -9.92,-4.5078 -19.98,-6.7695 -30.16,-6.7695"
         style="fill:#1b75bb;fill-opacity:1;fill-rule:nonzero;stroke:none"
         id="path94"
         inkscape:connector-curvature="0" /><path
         d="m 5979.68,289.41 h 18.23 V 126.871 c 0,-5.133 1.44,-9.16 4.31,-12.09 2.85,-2.922 6.87,-4.383 12.06,-4.383 1.97,0 4.29,0.274 6.98,0.801 2.67,0.539 5.17,1.231 7.5,2.133 l 3.22,-14.6132 c -3.4,-1.418 -7.56,-2.5704 -12.47,-3.4571 -4.92,-0.8828 -9.17,-1.3203 -12.74,-1.3203 -8.42,0 -15.03,2.3399 -19.86,7.0386 -4.82,4.68 -7.23,11.282 -7.23,19.782 V 289.41"
         style="fill:#1b75bb;fill-opacity:1;fill-rule:nonzero;stroke:none"
         id="path96"
         inkscape:connector-curvature="0" /><path
         d="m 6043.79,159.539 h 78.0625 v 16.7422 H 6043.79 Z"
         style="fill:#1b75bb;fill-opacity:1;fill-rule:nonzero;stroke:none"
         id="path98"
         inkscape:connector-curvature="0" /><path
         d="m 6224.86,102.18 c -1.08,-0.551 -2.64,-1.25 -4.69,-2.129 -2.07,-0.8908 -4.44,-1.7815 -7.11,-2.6604 -2.69,-0.9023 -5.73,-1.6914 -9.13,-2.3789 -3.39,-0.7109 -6.97,-1.0703 -10.73,-1.0703 -3.93,0 -7.69,0.5195 -11.27,1.5899 -3.57,1.0585 -6.7,2.6992 -9.37,4.9097 -2.7,2.219 -4.85,5.008 -6.45,8.379 -1.62,3.36 -2.41,7.239 -2.41,11.668 v 99.082 h -19.32 v 14.34 h 19.32 v 46.738 h 18.23 V 233.91 h 32.2 v -14.34 h -32.2 v -94.019 c 0.35,-5.141 2.15,-8.903 5.36,-11.281 3.23,-2.411 7.07,-3.598 11.55,-3.598 5.17,0 9.74,0.84 13.67,2.527 3.93,1.672 6.44,2.86 7.53,3.582 l 4.82,-14.601"
         style="fill:#1b75bb;fill-opacity:1;fill-rule:nonzero;stroke:none"
         id="path100"
         inkscape:connector-curvature="0" /><path
         d="M 6246.32,95.5313 V 233.91 h 18.23 V 95.5313 Z m 0,167.3277 v 26.551 h 18.23 v -26.551 h -18.23"
         style="fill:#1b75bb;fill-opacity:1;fill-rule:nonzero;stroke:none"
         id="path102"
         inkscape:connector-curvature="0" /><path
         d="m 6511.62,95.5313 h -18.25 V 172.82 c 0,16.11 -2.54,27.969 -7.65,35.602 -5.1,7.598 -12.83,11.398 -23.2,11.398 -5.36,0 -10.42,-0.961 -15.16,-2.91 -4.73,-1.949 -9.12,-4.691 -13.13,-8.238 -4.04,-3.531 -7.57,-7.742 -10.61,-12.621 -3.03,-4.86 -5.36,-10.211 -6.96,-16.063 V 95.5313 h -18.25 V 172.82 c 0,16.469 -2.51,28.418 -7.51,35.852 -5.01,7.43 -12.7,11.148 -23.07,11.148 -10.56,0 -19.94,-3.609 -28.17,-10.879 -8.23,-7.261 -14.13,-16.832 -17.71,-28.679 V 95.5313 h -18.24 V 233.91 h 16.64 v -31.34 c 5.71,10.621 13.23,18.899 22.53,24.828 9.3,5.934 19.58,8.903 30.85,8.903 11.81,0 21.29,-3.281 28.44,-9.84 7.15,-6.539 11.43,-15.121 12.87,-25.75 13.06,23.719 31.12,35.59 54.19,35.59 7.67,0 14.27,-1.422 19.71,-4.262 5.45,-2.82 9.84,-6.859 13.14,-12.07 3.32,-5.227 5.73,-11.508 7.26,-18.867 1.51,-7.34 2.28,-15.532 2.28,-24.563 V 95.5313"
         style="fill:#1b75bb;fill-opacity:1;fill-rule:nonzero;stroke:none"
         id="path104"
         inkscape:connector-curvature="0" /><path
         d="m 6662.11,172.02 c -0.55,7.441 -2.29,14.218 -5.24,20.312 -2.95,6.129 -6.71,11.387 -11.27,15.809 -4.56,4.441 -9.88,7.879 -15.96,10.359 -6.08,2.48 -12.52,3.73 -19.32,3.73 -6.8,0 -13.23,-1.25 -19.3,-3.73 -6.08,-2.48 -11.4,-5.918 -15.97,-10.359 -4.55,-4.422 -8.21,-9.731 -11,-15.93 -2.76,-6.211 -4.42,-12.922 -4.95,-20.191 z M 6610.6,92.8789 c -10.19,0 -19.58,1.8906 -28.17,5.7031 -8.59,3.797 -16,9.039 -22.26,15.688 -6.26,6.621 -11.14,14.281 -14.62,22.972 -3.49,8.668 -5.24,17.957 -5.24,27.879 0,9.731 1.75,18.899 5.24,27.488 3.48,8.582 8.36,16.102 14.62,22.571 6.26,6.461 13.63,11.601 22.13,15.41 8.48,3.801 17.84,5.711 28.02,5.711 10.21,0 19.54,-1.91 28.05,-5.711 8.48,-3.809 15.78,-8.988 21.84,-15.531 6.1,-6.559 10.83,-14.079 14.22,-22.579 3.41,-8.5 5.1,-17.539 5.1,-27.089 0,-1.422 -0.04,-2.84 -0.13,-4.262 -0.09,-1.41 -0.22,-2.379 -0.4,-2.918 h -119.37 c 0.54,-7.441 2.27,-14.301 5.23,-20.57 2.95,-6.289 6.71,-11.743 11.26,-16.34 4.56,-4.61 9.84,-8.211 15.83,-10.75 5.99,-2.59 12.39,-3.86 19.18,-3.86 4.64,0 9.21,0.618 13.68,1.848 4.48,1.231 8.59,2.922 12.35,5.051 3.75,2.121 7.11,4.73 10.05,7.832 2.95,3.098 5.23,6.508 6.85,10.226 l 15.82,-4.25 c -2.14,-5.136 -5.19,-9.789 -9.12,-13.937 -3.93,-4.16 -8.5,-7.801 -13.68,-10.891 -5.2,-3.1012 -10.92,-5.488 -17.17,-7.1716 -6.26,-1.6875 -12.7,-2.5195 -19.31,-2.5195"
         style="fill:#1b75bb;fill-opacity:1;fill-rule:nonzero;stroke:none"
         id="path106"
         inkscape:connector-curvature="0" /><path
         d="m 4098.62,179.949 c 0,-11.527 -9.35,-20.89 -20.89,-20.89 -11.53,0 -20.89,9.363 -20.89,20.89 0,11.539 9.36,20.891 20.89,20.891 11.54,0 20.89,-9.352 20.89,-20.891"
         style="fill:#1b75bb;fill-opacity:1;fill-rule:nonzero;stroke:none"
         id="path108"
         inkscape:connector-curvature="0" /><path
         d="m 5377.41,179.949 c 0,-11.527 -9.35,-20.89 -20.89,-20.89 -11.53,0 -20.89,9.363 -20.89,20.89 0,11.539 9.36,20.891 20.89,20.891 11.54,0 20.89,-9.352 20.89,-20.891"
         style="fill:#1b75bb;fill-opacity:1;fill-rule:nonzero;stroke:none"
         id="path110"
         inkscape:connector-curvature="0" /></g></g></svg>