<svg width="24" height="24" viewBox="0 0 24 24" fill="none" xmlns="http://www.w3.org/2000/svg">
<path d="M16.0916 11.5349C18.1723 11.5349 19.859 9.84819 19.859 7.76747C19.859 5.68675 18.1723 4 16.0916 4C14.0109 4 12.3241 5.68675 12.3241 7.76747C12.3241 9.84819 14.0109 11.5349 16.0916 11.5349Z" fill="#1475BB"/>
<path d="M10.121 20C11.6205 20 12.8362 18.7844 12.8362 17.2848C12.8362 15.7852 11.6205 14.5696 10.121 14.5696C8.6214 14.5696 7.40576 15.7852 7.40576 17.2848C7.40576 18.7844 8.6214 20 10.121 20Z" fill="#1475BB"/>
<path d="M5.569 12.6577C6.43553 12.6577 7.13799 11.9552 7.13799 11.0887C7.13799 10.2221 6.43553 9.51967 5.569 9.51967C4.70246 9.51967 4 10.2221 4 11.0887C4 11.9552 4.70246 12.6577 5.569 12.6577Z" fill="#1475BB"/>
</svg>
