<svg width="64" height="64" viewBox="0 0 64 64" fill="none" xmlns="http://www.w3.org/2000/svg">
  <path d="M31.9479 30.75C30.1517 30.75 28.8565 31.9875 28.8565 33.8438C28.8565 35.7 30.3144 36.9375 32.1106 36.9375C33.1959 36.9375 34.1526 36.4837 34.7448 35.7189L33.5001 34.9592C33.1715 35.3391 32.672 35.5608 32.1106 35.5608C31.3313 35.5608 30.6691 35.1311 30.4234 34.4436H34.9824C35.0182 34.2511 35.0393 34.0517 35.0393 33.842C35.0393 31.9875 33.7442 30.75 31.9479 30.75V30.75ZM30.4087 33.2422C30.6121 32.5564 31.1686 32.125 31.9463 32.125C32.7257 32.125 33.2821 32.5564 33.4839 33.2422H30.4087V33.2422ZM49.468 30.75C47.6718 30.75 46.3766 31.9875 46.3766 33.8438C46.3766 35.7 47.8345 36.9375 49.6307 36.9375C50.716 36.9375 51.6727 36.4837 52.2649 35.7189L51.0202 34.9592C50.6916 35.3391 50.1921 35.5608 49.6307 35.5608C48.8514 35.5608 48.1892 35.1311 47.9435 34.4436H52.5025C52.5383 34.2511 52.5594 34.0517 52.5594 33.842C52.5594 31.9875 51.2643 30.75 49.468 30.75V30.75ZM47.9305 33.2422C48.1338 32.5564 48.6903 32.125 49.468 32.125C50.2474 32.125 50.8038 32.5564 51.0056 33.2422H47.9305ZM41.5801 33.8438C41.5801 34.875 42.2179 35.5625 43.2071 35.5625C43.8775 35.5625 44.3802 35.2411 44.6389 34.7169L45.8885 35.4783C45.3711 36.3892 44.4014 36.9375 43.2071 36.9375C41.4092 36.9375 40.1157 35.7 40.1157 33.8438C40.1157 31.9875 41.4109 30.75 43.2071 30.75C44.4014 30.75 45.3695 31.2983 45.8885 32.2092L44.6389 32.9706C44.3802 32.4464 43.8775 32.125 43.2071 32.125C42.2195 32.125 41.5801 32.8125 41.5801 33.8438ZM55 28.8594V36.7656H53.5357V28.8594H55ZM15.012 28L21.0239 39H9L15.012 28ZM30.0427 28.8594L25.5341 37.1094L21.0255 28.8594H22.716L25.5341 34.0156L28.3522 28.8594H30.0427ZM39.6276 30.9219V32.5873C39.4649 32.5375 39.2924 32.5031 39.107 32.5031C38.1616 32.5031 37.4799 33.1906 37.4799 34.2219V36.7656H36.0156V30.9219H37.4799V32.5031C37.4799 31.63 38.4415 30.9219 39.6276 30.9219Z" fill="black"/>
</svg>