<svg width="256px" height="222px" viewBox="0 0 256 222" fill="none" xmlns="http://www.w3.org/2000/svg">
<path fill-rule="evenodd" clip-rule="evenodd" d="M4.91228 0C2.1993 0 0 2.19076 0 4.8932V13.1068C0 15.8092 2.1993 18 4.91228 18H15.0877C17.8007 18 20 15.8092 20 13.1068V4.8932C20 2.19076 17.8007 0 15.0877 0H4.91228ZM9.91228 1.04854C9.57316 1.04854 9.29825 1.32239 9.29825 1.66019V3.05825C9.29825 3.39606 9.57316 3.6699 9.91228 3.6699C10.2514 3.6699 10.5263 3.39606 10.5263 3.05825V1.66019C10.5263 1.32239 10.2514 1.04854 9.91228 1.04854ZM9.29825 14.9417C9.29825 14.6039 9.57316 14.3301 9.91228 14.3301C10.2514 14.3301 10.5263 14.6039 10.5263 14.9417V16.3398C10.5263 16.6776 10.2514 16.9515 9.91228 16.9515C9.57316 16.9515 9.29825 16.6776 9.29825 16.3398V14.9417ZM0.877193 9C0.877193 9.33781 1.15211 9.61165 1.49123 9.61165H2.89474C3.23386 9.61165 3.50877 9.33781 3.50877 9C3.50877 8.66219 3.23386 8.38835 2.89474 8.38835H1.49123C1.15211 8.38835 0.877193 8.66219 0.877193 9ZM16.9298 9.61165C16.5907 9.61165 16.3158 9.33781 16.3158 9C16.3158 8.66219 16.5907 8.38835 16.9298 8.38835H18.3333C18.6725 8.38835 18.9474 8.66219 18.9474 9C18.9474 9.33781 18.6725 9.61165 18.3333 9.61165H16.9298ZM5.55122 7.31499L5.87989 6.9876C6.07583 6.79243 6.3901 6.78201 6.59863 6.96376L9.47248 9.46861C9.61843 9.59583 9.84032 9.58097 9.96785 9.43544L14.2298 4.5725C14.4152 4.36098 14.735 4.3325 14.9551 4.50791L15.445 4.8983C15.6801 5.08565 15.7098 5.43091 15.5101 5.65537L10.2264 11.5953C9.96012 11.8946 9.49647 11.9108 9.2098 11.6307L5.55486 8.06C5.34591 7.85587 5.34428 7.52114 5.55122 7.31499Z" fill="#FAA81A"/>
</svg>
