<svg width="24" height="24" viewBox="0 0 24 24" fill="none" xmlns="http://www.w3.org/2000/svg">
<path d="M6.53901 12.788V6.28796H3.57697C2.70505 6.28796 2 6.96796 2 7.80396V21.24C2 21.916 2.85106 22.252 3.34752 21.776L6.60576 18.652H15.884C16.7559 18.652 17.461 17.976 17.461 17.14V14.3H8.12015C7.24823 14.3 6.53901 13.624 6.53901 12.788Z" fill="#00AC47"/>
<path d="M20.423 2H8.12018C7.24826 2 6.54321 2.676 6.54321 3.512V6.288H15.884C16.756 6.288 17.461 6.964 17.461 7.8V14.296H20.423C21.295 14.296 22 13.62 22 12.784V3.512C22 2.676 21.295 2 20.423 2Z" fill="#5BB974"/>
<path d="M15.884 6.28796H6.53894V12.784C6.53894 13.6199 7.24399 14.2959 8.11591 14.2959H17.4568V7.80396C17.4609 6.96796 16.7559 6.28796 15.884 6.28796Z" fill="#00832D"/>
</svg>
