<?xml version="1.0" encoding="UTF-8" standalone="no"?>
<!-- Created with Inkscape (http://www.inkscape.org/) -->

<svg
   xmlns:dc="http://purl.org/dc/elements/1.1/"
   xmlns:cc="http://creativecommons.org/ns#"
   xmlns:rdf="http://www.w3.org/1999/02/22-rdf-syntax-ns#"
   xmlns:svg="http://www.w3.org/2000/svg"
   xmlns="http://www.w3.org/2000/svg"
   xmlns:sodipodi="http://sodipodi.sourceforge.net/DTD/sodipodi-0.dtd"
   xmlns:inkscape="http://www.inkscape.org/namespaces/inkscape"
   version="1.1"
   id="svg2"
   xml:space="preserve"
   width="486.66666"
   height="172.02667"
   viewBox="0 0 486.66666 172.02667"
   sodipodi:docname="hipchat.svg"
   inkscape:version="0.92.3 (unknown)"><metadata
     id="metadata8"><rdf:RDF><cc:Work
         rdf:about=""><dc:format>image/svg+xml</dc:format><dc:type
           rdf:resource="http://purl.org/dc/dcmitype/StillImage" /><dc:title></dc:title></cc:Work></rdf:RDF></metadata><defs
     id="defs6" /><sodipodi:namedview
     pagecolor="#ffffff"
     bordercolor="#666666"
     borderopacity="1"
     objecttolerance="10"
     gridtolerance="10"
     guidetolerance="10"
     inkscape:pageopacity="0"
     inkscape:pageshadow="2"
     inkscape:window-width="1301"
     inkscape:window-height="702"
     id="namedview4"
     showgrid="false"
     inkscape:zoom="0.63904111"
     inkscape:cx="243.33333"
     inkscape:cy="86.013336"
     inkscape:window-x="0"
     inkscape:window-y="0"
     inkscape:window-maximized="0"
     inkscape:current-layer="g10" /><g
     id="g10"
     inkscape:groupmode="layer"
     inkscape:label="ink_ext_XXXXXX"
     transform="matrix(1.3333333,0,0,-1.3333333,0,172.02667)"><g
       id="g12"
       transform="scale(0.1)"><path
         d="m 2302.75,732.406 c 35.21,0 83.95,-4.918 130.38,-12.98 3.99,-0.727 8.11,0.277 11.36,2.637 3.29,2.48 5.46,6.074 5.94,10.156 l 9.94,77.375 c 1.01,7.566 -3.89,14.613 -11.3,16.367 -46.55,11.203 -99.78,17.32 -149.73,17.32 -139.5,0 -210.3,-58.09 -210.3,-172.453 V 412.563 c 0,-114.497 70.8,-172.532 210.3,-172.532 49.97,0 103.18,6.141 149.73,17.258 7.41,1.781 12.31,8.871 11.3,16.371 l -9.94,77.426 c -0.48,4.035 -2.65,7.641 -5.94,10.043 -3.25,2.437 -7.37,3.465 -11.36,2.769 -46.44,-8.117 -95.22,-12.992 -130.38,-12.992 -69.17,0 -92.52,20.348 -92.52,80.543 v 220.379 c 0,60.266 23.35,80.578 92.52,80.578"
         style="fill:#314585;fill-opacity:1;fill-rule:nonzero;stroke:none"
         id="path14"
         inkscape:connector-curvature="0" /><path
         d="m 1388.27,834.703 h -91.36 c -8.21,0 -14.88,-6.683 -14.88,-14.976 v -220.93 h -199.71 v 220.93 c 0,8.293 -6.67,14.976 -14.91,14.976 h -91.324 c -8.246,0 -14.906,-6.683 -14.906,-14.976 V 263.531 c 0,-8.222 6.66,-14.91 14.906,-14.91 h 91.324 c 8.24,0 14.91,6.688 14.91,14.91 v 226.981 h 199.71 V 263.531 c 0,-8.222 6.67,-14.91 14.88,-14.91 h 91.36 c 8.23,0 14.91,6.688 14.91,14.91 v 556.196 c 0,8.293 -6.68,14.976 -14.91,14.976"
         style="fill:#314585;fill-opacity:1;fill-rule:nonzero;stroke:none"
         id="path16"
         inkscape:connector-curvature="0" /><path
         d="m 3145.89,407.027 v -51.871 c -14.56,-7.785 -40.93,-18.855 -72.75,-18.855 -27.4,0 -35.79,8.379 -35.79,35.785 0,26.594 5.19,34.941 37.51,34.941 z m -59,282.133 c -44.46,0 -98.66,-6.992 -137.98,-17.797 -7.35,-2.121 -11.96,-9.308 -10.75,-16.84 l 10.31,-63.835 c 0.63,-3.969 2.86,-7.567 6.16,-9.836 3.3,-2.348 7.44,-3.219 11.37,-2.414 36.56,7.121 74.34,11.046 106.31,11.046 63.43,0 73.58,-13.398 73.58,-56.437 V 495.5 h -94.24 c -90.08,0 -128.54,-37.141 -128.54,-124.309 0,-83.32 42.15,-131.16 115.65,-131.16 42.46,0 85.04,11.809 120.83,33.43 l 3.77,-13.832 c 1.81,-6.488 7.67,-11.008 14.33,-11.008 h 71.05 c 8.2,0 14.85,6.699 14.85,14.91 V 531.34 c 0,115.055 -47.9,157.82 -176.7,157.82"
         style="fill:#314585;fill-opacity:1;fill-rule:nonzero;stroke:none"
         id="path18"
         inkscape:connector-curvature="0" /><path
         d="m 3568.48,334.32 c -0.61,4.16 -2.95,7.832 -6.46,10.18 -3.41,2.316 -7.78,3.055 -11.78,2.117 -15.54,-3.914 -30.45,-6.019 -41.91,-6.019 -21.81,0 -31.42,9.382 -31.42,30.597 V 584.32 h 85.41 c 8.22,0 14.86,6.66 14.86,14.875 v 66.504 c 0,8.172 -6.64,14.875 -14.86,14.875 h -85.41 v 102.61 c 0,4.355 -1.89,8.402 -5.15,11.257 -3.29,2.825 -7.53,4.071 -11.78,3.465 l -88,-12.23 c -7.34,-1.047 -12.79,-7.321 -12.79,-14.766 v -90.336 h -47.92 c -8.25,0 -14.88,-6.703 -14.88,-14.875 v -66.504 c 0,-8.215 6.63,-14.875 14.88,-14.875 h 47.92 V 357.426 c 0,-77.875 40.88,-117.395 121.64,-117.395 22.97,0 61.94,5.27 87.5,14.149 5.86,2.058 9.83,7.531 10,13.629 v 0.66 l -0.18,1.98 -9.67,63.871"
         style="fill:#314585;fill-opacity:1;fill-rule:nonzero;stroke:none"
         id="path20"
         inkscape:connector-curvature="0" /><path
         d="m 1579.47,680.574 h -87.99 c -8.19,0 -14.83,-6.679 -14.83,-14.875 V 263.531 c 0,-8.172 6.64,-14.91 14.83,-14.91 h 87.99 c 8.24,0 14.9,6.738 14.9,14.91 v 402.168 c 0,8.196 -6.66,14.875 -14.9,14.875"
         style="fill:#314585;fill-opacity:1;fill-rule:nonzero;stroke:none"
         id="path22"
         inkscape:connector-curvature="0" /><path
         d="m 1579.47,851.48 h -87.99 c -8.19,0 -14.83,-6.679 -14.83,-14.863 v -87.269 c 0,-8.246 6.64,-14.887 14.83,-14.887 h 87.99 c 8.24,0 14.9,6.641 14.9,14.887 v 87.269 c 0,8.184 -6.66,14.863 -14.9,14.863"
         style="fill:#314585;fill-opacity:1;fill-rule:nonzero;stroke:none"
         id="path24"
         inkscape:connector-curvature="0" /><path
         d="m 1579.47,680.574 h -87.99 c -8.19,0 -14.83,-6.679 -14.83,-14.875 V 263.531 c 0,-8.172 6.64,-14.91 14.83,-14.91 h 87.99 c 8.24,0 14.9,6.738 14.9,14.91 v 402.168 c 0,8.196 -6.66,14.875 -14.9,14.875"
         style="fill:#314585;fill-opacity:1;fill-rule:nonzero;stroke:none"
         id="path26"
         inkscape:connector-curvature="0" /><path
         d="M 1910.95,539.945 V 391.887 c 0,-35.676 -12.98,-49.559 -46.15,-49.559 -33.45,0 -68.84,6.266 -86.58,9.949 v 200.309 c 19.46,16.871 54.12,34.336 87.43,34.336 32.51,0 45.3,-13.152 45.3,-46.977 M 1674.88,77.9883 h 89.05 c 7.99,0.293 14.29,6.8515 14.29,14.8828 V 250.66 c 34.47,-6.699 73.34,-10.629 105.51,-10.629 96.16,0 144.87,51.914 144.87,154.379 v 142.969 c 0,125.512 -73.62,151.777 -135.44,151.777 -46.63,0 -88.9,-13.047 -128.79,-39.941 l -6.06,20.73 c -1.86,6.285 -7.69,10.633 -14.31,10.633 h -68.55 c -8.21,0 -14.91,-6.695 -14.91,-14.867 V 92.8711 c 0,-8.0313 6.38,-14.5898 14.34,-14.8828"
         style="fill:#314585;fill-opacity:1;fill-rule:nonzero;stroke:none"
         id="path28"
         inkscape:connector-curvature="0" /><path
         d="m 2775.58,689.16 c -43.05,0 -100.64,-14.48 -146.79,-36.543 v 183.942 c 0,8.339 -6.66,15.007 -14.87,15.007 h -87.89 c -8.22,0 -14.92,-6.668 -14.92,-15.007 v -573.09 c 0,-8.117 6.7,-14.848 14.92,-14.848 h 87.89 c 8.21,0 14.87,6.731 14.87,14.848 v 278.59 c 31.67,16.129 76.28,32.804 102.86,32.804 19.84,0 27.17,-7.343 27.17,-27.215 V 263.469 c 0,-8.117 6.64,-14.848 14.91,-14.848 h 87.94 c 8.2,0 14.87,6.731 14.87,14.848 v 295.414 c 0,86.441 -33.97,130.277 -100.96,130.277"
         style="fill:#314585;fill-opacity:1;fill-rule:nonzero;stroke:none"
         id="path30"
         inkscape:connector-curvature="0" /><path
         d="m 1089.38,1203.88 c -0.75,2.32 -2.87,3.89 -5.3,3.89 h -51.87 c -2.42,0 -4.6,-1.57 -5.3,-3.89 L 961.426,996.152 c -0.543,-1.707 -0.223,-3.515 0.836,-4.961 1.027,-1.421 2.703,-2.261 4.488,-2.261 h 35.71 c 2.44,0 4.62,1.59 5.31,3.949 l 45.09,152.791 c 0,0 1.19,3.83 5.26,3.83 4.19,0 5.16,-3.97 5.16,-3.97 l 20.9,-72.42 h -28.09 c -2.49,0 -4.66,-1.73 -5.36,-4.08 l -8.02,-28.65 c -0.47,-1.7 -0.15,-3.51 0.91,-4.87 1.05,-1.44 2.69,-2.24 4.41,-2.24 h 47.84 l 12.61,-40.434 c 0.73,-2.328 2.89,-3.906 5.3,-3.906 h 35.76 c 1.79,0 3.46,0.84 4.47,2.261 1.07,1.446 1.35,3.254 0.83,4.961 l -65.46,207.728"
         style="fill:#314585;fill-opacity:1;fill-rule:nonzero;stroke:none"
         id="path32"
         inkscape:connector-curvature="0" /><path
         d="m 1245,1020.93 c -0.25,1.56 -1.14,2.91 -2.43,3.78 -1.29,0.89 -2.87,1.14 -4.43,0.79 -5.79,-1.45 -11.35,-2.24 -15.66,-2.24 -8.09,0 -11.71,3.54 -11.71,11.42 v 79.62 h 31.89 c 3.05,0 5.54,2.47 5.54,5.52 v 24.83 c 0,3.08 -2.49,5.61 -5.54,5.61 h -31.89 v 38.29 c 0,1.61 -0.73,3.15 -1.89,4.18 -1.24,1.07 -2.86,1.54 -4.46,1.33 l -32.83,-4.58 c -2.75,-0.39 -4.78,-2.74 -4.78,-5.51 v -33.71 h -17.87 c -3.1,0 -5.59,-2.53 -5.59,-5.61 v -24.83 c 0,-3.05 2.49,-5.52 5.59,-5.52 h 17.87 v -84.73 c 0,-29.11 15.27,-43.879 45.41,-43.879 8.61,0 23.14,1.961 32.71,5.293 2.49,0.903 4.06,3.45 3.64,6.098 l -3.57,23.848"
         style="fill:#314585;fill-opacity:1;fill-rule:nonzero;stroke:none"
         id="path34"
         inkscape:connector-curvature="0" /><path
         d="m 1305.8,1212.18 h -32.84 c -3.07,0 -5.56,-2.49 -5.56,-5.53 V 994.496 c 0,-3.066 2.49,-5.57 5.56,-5.57 h 32.84 c 3.05,0 5.54,2.504 5.54,5.57 v 212.114 c 0,3.08 -2.49,5.57 -5.54,5.57"
         style="fill:#314585;fill-opacity:1;fill-rule:nonzero;stroke:none"
         id="path36"
         inkscape:connector-curvature="0" /><path
         d="m 1412.27,1048.06 v -19.34 c -5.44,-2.92 -15.3,-7.1 -27.16,-7.1 -10.27,0 -13.37,3.17 -13.37,13.42 0,9.94 1.9,13.02 13.99,13.02 z m -22.01,105.38 c -16.67,0 -36.88,-2.62 -51.56,-6.71 -2.76,-0.76 -4.46,-3.43 -4.01,-6.23 l 3.84,-23.84 c 0.25,-1.5 1.09,-2.8 2.3,-3.67 1.25,-0.88 2.77,-1.2 4.25,-0.91 13.65,2.69 27.75,4.13 39.68,4.13 23.72,0 27.51,-4.99 27.51,-21.08 v -14.02 h -35.21 c -33.63,0 -48.01,-13.89 -48.01,-46.42 0,-31.14 15.78,-48.995 43.21,-48.995 15.88,0 31.77,4.41 45.12,12.493 l 1.38,-5.196 c 0.71,-2.379 2.87,-4.066 5.4,-4.066 h 26.5 c 3.07,0 5.56,2.492 5.56,5.578 v 99.986 c 0,42.97 -17.89,58.95 -65.96,58.95"
         style="fill:#314585;fill-opacity:1;fill-rule:nonzero;stroke:none"
         id="path38"
         inkscape:connector-curvature="0" /><path
         d="m 1538.53,1088.75 c -20.39,5.24 -20.39,5.47 -20.39,16.66 0,7.51 0.73,11.14 17.53,11.14 11.51,0 28.47,-2.02 39.36,-3.88 1.49,-0.31 3.06,0.08 4.25,1.01 1.24,0.91 2.04,2.25 2.22,3.77 l 3.08,25.05 c 0.32,2.81 -1.5,5.47 -4.24,6.12 -12.6,2.93 -30.15,4.82 -44.67,4.82 -50.49,0 -60.85,-19.07 -60.85,-47.71 0,-31.47 5.89,-42.02 44.55,-51.5 25.47,-6.15 25.47,-10.69 25.47,-18.27 0,-9.9 -0.83,-13.37 -17.53,-13.37 -13.43,0 -28.98,2.11 -42.63,5.77 -1.54,0.37 -3.09,0.15 -4.39,-0.69 -1.34,-0.83 -2.21,-2.17 -2.53,-3.66 l -4.34,-23.8 c -0.49,-2.71 1.09,-5.39 3.78,-6.272 14.89,-4.872 36.31,-8.235 52.03,-8.235 48.9,0 58.9,20.477 58.9,51.227 0,33.97 -6.01,40.25 -49.6,51.82"
         style="fill:#314585;fill-opacity:1;fill-rule:nonzero;stroke:none"
         id="path40"
         inkscape:connector-curvature="0" /><path
         d="m 1665.41,1088.75 c -20.38,5.24 -20.38,5.47 -20.38,16.66 0,7.51 0.74,11.14 17.49,11.14 11.55,0 28.49,-2.02 39.37,-3.88 1.53,-0.31 3.1,0.08 4.3,1.01 1.23,0.87 2.01,2.25 2.18,3.77 l 3.11,25.05 c 0.39,2.81 -1.48,5.47 -4.23,6.12 -12.66,2.93 -30.16,4.82 -44.73,4.82 -50.46,0 -60.81,-19.07 -60.81,-47.71 0,-31.47 5.86,-42.02 44.56,-51.5 25.45,-6.15 25.45,-10.69 25.45,-18.27 0,-9.9 -0.85,-13.37 -17.49,-13.37 -13.46,0 -29,2.11 -42.67,5.77 -1.49,0.37 -3.07,0.15 -4.4,-0.69 -1.33,-0.83 -2.23,-2.17 -2.5,-3.66 l -4.4,-23.8 c -0.45,-2.71 1.13,-5.39 3.8,-6.272 14.89,-4.872 36.31,-8.235 52.06,-8.235 48.91,0 58.97,20.477 58.97,51.227 0,33.97 -6.07,40.25 -49.68,51.82"
         style="fill:#314585;fill-opacity:1;fill-rule:nonzero;stroke:none"
         id="path42"
         inkscape:connector-curvature="0" /><path
         d="m 1771.67,1212.2 h -32.83 c -3.07,0 -5.58,-2.51 -5.58,-5.55 v -29.17 c 0,-3.1 2.51,-5.59 5.58,-5.59 h 32.83 c 3.07,0 5.59,2.49 5.59,5.59 v 29.17 c 0,3.04 -2.52,5.55 -5.59,5.55"
         style="fill:#314585;fill-opacity:1;fill-rule:nonzero;stroke:none"
         id="path44"
         inkscape:connector-curvature="0" /><path
         d="m 1771.67,1150.26 h -32.83 c -3.07,0 -5.58,-2.53 -5.58,-5.62 V 994.496 c 0,-3.074 2.51,-5.566 5.58,-5.566 h 32.83 c 3.07,0 5.59,2.492 5.59,5.566 v 150.144 c 0,3.09 -2.52,5.62 -5.59,5.62"
         style="fill:#314585;fill-opacity:1;fill-rule:nonzero;stroke:none"
         id="path46"
         inkscape:connector-curvature="0" /><path
         d="m 1878.97,1048.06 v -19.34 c -5.45,-2.89 -15.33,-7.1 -27.15,-7.1 -10.23,0 -13.36,3.17 -13.36,13.42 0,9.94 1.94,13.02 14,13.02 z m -22.03,105.38 c -16.65,0 -36.86,-2.62 -51.54,-6.71 -2.73,-0.76 -4.46,-3.43 -4.01,-6.23 l 3.83,-23.84 c 0.29,-1.5 1.1,-2.84 2.35,-3.67 1.2,-0.88 2.73,-1.2 4.21,-0.91 13.65,2.69 27.78,4.13 39.69,4.13 23.74,0 27.5,-4.99 27.5,-21.08 v -14.02 h -35.18 c -33.65,0 -48.03,-13.89 -48.03,-46.42 0,-31.14 15.77,-48.995 43.2,-48.995 15.85,0 31.76,4.41 45.13,12.493 l 1.43,-5.196 c 0.65,-2.379 2.82,-4.066 5.33,-4.066 h 26.54 c 3.06,0 5.56,2.492 5.56,5.578 v 99.986 c 0,42.97 -17.9,58.95 -66.01,58.95"
         style="fill:#314585;fill-opacity:1;fill-rule:nonzero;stroke:none"
         id="path48"
         inkscape:connector-curvature="0" /><path
         d="m 2044.41,1153.44 c -17.39,0 -41.12,-6 -61.14,-15.39 l -2.41,8.17 c -0.69,2.4 -2.87,4.01 -5.36,4.01 h -24.3 c -3.08,0 -5.59,-2.5 -5.59,-5.58 V 994.504 c 0,-3.086 2.51,-5.578 5.59,-5.578 h 32.85 c 3.03,0 5.56,2.492 5.56,5.578 v 103.986 c 11.84,6.03 28.46,12.25 38.39,12.25 7.4,0 10.16,-2.74 10.16,-10.13 V 994.504 c 0,-3.086 2.52,-5.578 5.58,-5.578 h 32.82 c 3.11,0 5.55,2.492 5.55,5.578 v 110.286 c 0,32.28 -12.63,48.65 -37.7,48.65"
         style="fill:#314585;fill-opacity:1;fill-rule:nonzero;stroke:none"
         id="path50"
         inkscape:connector-curvature="0" /><path
         d="m 672.621,466.629 c -0.012,8.148 -6.605,15.461 -15.473,15.461 -3.582,0 -7.253,-1.215 -10.253,-3.926 C 607.734,442.965 541.098,411.82 460.5,411.613 h -0.309 c -80.453,0.207 -145.183,32.586 -186.39,66.551 -2.606,2.149 -7.434,3.613 -10.567,3.613 -9.57,0 -15.148,-8.16 -15.16,-17.132 0,-6.907 4.852,-12.696 8.832,-18.672 23.102,-34.711 94.77,-93.641 202.602,-93.641 h 1.687 c 107.825,0 179.5,58.93 202.59,93.641 3.985,5.976 8.836,13.73 8.836,20.656"
         style="fill:#314585;fill-opacity:1;fill-rule:nonzero;stroke:none"
         id="path52"
         inkscape:connector-curvature="0" /><path
         d="m 675.824,228.738 c 1.211,-1.617 1.864,-3 1.864,-4.488 0,-2.262 -2.141,-3.801 -4.821,-3.801 -19.472,0 -79.472,32.34 -111.043,59 -4.332,3.641 -10.375,4.981 -18.965,3.11 -26.336,-5.739 -53.968,-8.829 -82.507,-8.829 -178.661,0 -323.516,119.657 -323.516,267.313 0,147.586 144.855,267.219 323.516,267.219 178.664,0 323.496,-119.633 323.496,-267.219 0,-88.109 -51.578,-166.215 -131.125,-214.922 -5.328,-3.266 -10.985,-9.371 -10.985,-17.027 0,-15.723 14.754,-54.684 34.086,-80.356 m 104.02,-32.609 c -27.457,15.641 -53.516,42.101 -65.446,78.371 -2.351,7.121 -0.265,12.852 5.215,17.086 79.418,61.441 129.403,150.652 129.403,250.019 0,185.29 -174.008,335.524 -388.653,335.524 -214.656,0 -388.6872,-150.234 -388.6872,-335.524 0,-185.39 174.0312,-335.644 388.6872,-335.644 28.043,0 55.391,2.578 81.754,7.449 6.465,1.192 11.735,-0.328 16.035,-2.961 53.196,-32.668 132.403,-60.07 201.875,-60.07 22.375,0 30.977,14.203 30.977,27.141 0,8.339 -4.512,14.82 -11.16,18.609"
         style="fill:#314585;fill-opacity:1;fill-rule:nonzero;stroke:none"
         id="path54"
         inkscape:connector-curvature="0" /></g></g></svg>