<?xml version="1.0" encoding="UTF-8" standalone="no"?>
<!-- Generator: Adobe Illustrator 17.1.0, SVG Export Plug-In . SVG Version: 6.00 Build 0)  -->

<svg
   xmlns:dc="http://purl.org/dc/elements/1.1/"
   xmlns:cc="http://creativecommons.org/ns#"
   xmlns:rdf="http://www.w3.org/1999/02/22-rdf-syntax-ns#"
   xmlns:svg="http://www.w3.org/2000/svg"
   xmlns="http://www.w3.org/2000/svg"
   xmlns:sodipodi="http://sodipodi.sourceforge.net/DTD/sodipodi-0.dtd"
   xmlns:inkscape="http://www.inkscape.org/namespaces/inkscape"
   version="1.1"
   id="Layer_1"
   x="0px"
   y="0px"
   viewBox="0 0 779.06799 165.964"
   enable-background="new 0 0 1307 156"
   xml:space="preserve"
   sodipodi:docname="pagerduty.svg"
   width="779.06799"
   height="165.964"
   inkscape:version="0.92.3 (unknown)"><metadata
   id="metadata65"><rdf:RDF><cc:Work
       rdf:about=""><dc:format>image/svg+xml</dc:format><dc:type
         rdf:resource="http://purl.org/dc/dcmitype/StillImage" /><dc:title></dc:title></cc:Work></rdf:RDF></metadata><defs
   id="defs63" /><sodipodi:namedview
   pagecolor="#ffffff"
   bordercolor="#666666"
   borderopacity="1"
   objecttolerance="10"
   gridtolerance="10"
   guidetolerance="10"
   inkscape:pageopacity="0"
   inkscape:pageshadow="2"
   inkscape:window-width="1458"
   inkscape:window-height="751"
   id="namedview61"
   showgrid="false"
   fit-margin-top="10"
   fit-margin-left="10"
   fit-margin-right="10"
   fit-margin-bottom="10"
   inkscape:zoom="0.19892884"
   inkscape:cx="665.52485"
   inkscape:cy="52.802453"
   inkscape:window-x="0"
   inkscape:window-y="0"
   inkscape:window-maximized="0"
   inkscape:current-layer="Layer_1" />
<g
   id="g38"
   transform="translate(1.971,5)">
	<g
   id="g4">
		<path
   d="m 170.847,49.166 c -1.721,-3.269 -3.862,-5.93 -6.421,-7.955 -2.56,-2.039 -5.337,-3.514 -8.316,-4.411 -2.994,-0.911 -5.771,-1.36 -8.359,-1.36 h -44.603 v 17.702 h 44.603 c 2.3,0 4.194,0.723 5.698,2.155 1.519,1.432 2.271,3.37 2.271,5.799 v 7.781 h -34.248 c -4.686,0 -8.663,0.853 -11.946,2.574 -3.269,1.721 -5.915,3.862 -7.955,6.422 -2.025,2.56 -3.5,5.337 -4.411,8.359 -0.911,3.008 -1.36,5.8 -1.36,8.388 0,4.686 0.868,8.663 2.574,11.932 1.721,3.269 3.862,5.93 6.422,7.955 2.56,2.039 5.337,3.5 8.316,4.411 2.994,0.911 5.771,1.359 8.359,1.359 h 26.279 c 4.686,0 8.663,-0.853 11.946,-2.574 3.269,-1.721 5.915,-3.862 7.955,-6.422 2.024,-2.56 3.5,-5.322 4.411,-8.316 0.911,-2.98 1.36,-5.771 1.36,-8.345 V 61.098 c -0.001,-4.686 -0.854,-8.663 -2.575,-11.932 z m -15.128,45.312 c 0,2.285 -0.694,4.194 -2.083,5.727 -1.388,1.533 -3.355,2.3 -5.886,2.3 h -26.134 c -2.198,0 -4.107,-0.68 -5.698,-2.039 -1.605,-1.374 -2.401,-3.268 -2.401,-5.713 0,-2.285 0.68,-4.208 2.068,-5.771 1.388,-1.547 3.355,-2.329 5.886,-2.329 h 34.248 z"
   id="path2"
   inkscape:connector-curvature="0"
   style="fill:#25c151" />
	</g>
	<g
   id="g8">
		<path
   d="m 323.114,87.051 c 4.699,0 8.714,-0.858 12.002,-2.59 3.288,-1.731 5.965,-3.884 8.001,-6.459 2.051,-2.561 3.521,-5.354 4.437,-8.365 0.917,-2.997 1.368,-5.805 1.368,-8.394 0,-4.714 -0.858,-8.714 -2.59,-12.017 -1.731,-3.288 -3.884,-5.965 -6.459,-8.001 -2.575,-2.051 -5.354,-3.521 -8.365,-4.437 -2.997,-0.917 -5.805,-1.368 -8.394,-1.368 h -26.448 c -4.714,0 -8.714,0.858 -12.002,2.59 -3.302,1.731 -5.965,3.884 -8.016,6.459 -2.037,2.575 -3.521,5.368 -4.437,8.365 -0.902,3.011 -1.368,5.805 -1.368,8.409 V 94.95 c 0,4.714 0.873,8.714 2.604,12.002 1.731,3.302 3.884,5.965 6.445,8.016 2.575,2.037 5.368,3.521 8.38,4.423 2.997,0.917 5.805,1.382 8.394,1.382 h 49.594 v -17.894 h -49.448 c -2.313,0 -4.248,-0.698 -5.805,-2.095 -1.571,-1.397 -2.343,-3.331 -2.343,-5.834 v -7.899 z m -34.45,-25.663 c 0,-2.313 0.698,-4.248 2.095,-5.819 1.382,-1.557 3.361,-2.342 5.906,-2.342 h 26.448 c 2.211,0 4.088,0.698 5.659,2.095 1.557,1.397 2.342,3.317 2.342,5.776 0,2.299 -0.698,4.248 -2.095,5.805 -1.397,1.557 -3.361,2.343 -5.906,2.343 h -34.45 v -7.858 z"
   id="path6"
   inkscape:connector-curvature="0"
   style="fill:#25c151" />
	</g>
	<g
   id="g12">
		<path
   d="m 477.297,120.422 c -0.036,0 -0.069,0 -0.1,0 h -28.259 c -10.068,0 -15.945,-4.094 -19.103,-7.529 -6.298,-6.851 -6.345,-15.702 -6.232,-18.063 V 60.85 c 0,-9.816 4.005,-15.627 7.363,-18.774 6.885,-6.448 15.898,-6.558 18.086,-6.483 h 35.342 V 5 h 18 v 90.267 c 0,9.24 -3.795,14.902 -6.979,18.024 -6.908,6.776 -16.246,7.131 -18.118,7.131 z M 441.578,95.794 c -0.024,0.935 0.202,3.543 1.553,4.964 1.309,1.375 3.881,1.664 5.808,1.664 h 28.387 c 7.069,-0.097 7.069,-5.408 7.069,-7.155 V 53.593 l -36.079,-0.014 c -0.013,0 -0.026,0 -0.041,0 -0.993,0 -3.615,0.29 -5.049,1.678 -1.076,1.042 -1.622,2.924 -1.622,5.593 z"
   id="path10"
   inkscape:connector-curvature="0"
   style="fill:#25c151" />
	</g>
	<g
   id="g16">
		<path
   d="m 26.029,150.964 h -18 V 60.485 c 0,-9.255 3.8,-14.924 6.988,-18.051 7.059,-6.924 16.622,-7.159 18.251,-7.142 h 28.321 c 10.084,0 15.97,4.1 19.132,7.54 6.308,6.863 6.354,15.729 6.242,18.092 v 34.06 c 0,9.832 -4.01,15.651 -7.374,18.802 -6.893,6.457 -15.914,6.567 -18.114,6.493 H 26.029 Z m 36.183,-48.672 c 0.945,-0.012 3.655,-0.271 5.118,-1.688 1.083,-1.049 1.633,-2.94 1.633,-5.621 L 68.988,59.959 C 69.013,59.02 68.785,56.397 67.426,54.967 66.11,53.583 63.526,53.292 61.59,53.292 H 33.135 c -7.106,0.097 -7.106,5.437 -7.106,7.193 v 41.792 z"
   id="path14"
   inkscape:connector-curvature="0"
   style="fill:#25c151" />
	</g>
	<g
   id="g20">
		<path
   d="m 374.186,120.443 h -18 V 60.58 c 0,-9.219 3.787,-14.883 6.964,-18.011 7.093,-6.984 16.763,-7.209 18.292,-7.208 h 34.995 v 18 h -35.069 c -7.183,0.115 -7.183,5.461 -7.183,7.22 v 59.862 z"
   id="path18"
   inkscape:connector-curvature="0"
   style="fill:#25c151" />
	</g>
	<g
   id="g24">
		<path
   d="m 536.984,120.506 c -1.373,0 -11.145,-0.268 -18.267,-7.334 -3.152,-3.128 -6.91,-8.776 -6.91,-17.916 V 35.381 h 18 v 59.875 c 0,3.936 1.355,5.231 2.821,6.044 1.699,0.943 3.796,1.19 4.473,1.207 h 35.206 V 35.381 h 18 v 85.125 h -53.25 c -0.02,0 -0.044,0 -0.073,0 z"
   id="path22"
   inkscape:connector-curvature="0"
   style="fill:#25c151" />
	</g>
	<g
   id="g28">
		<path
   d="m 235.056,150.167 h -42.745 v -18 h 42.745 c 4.498,0 6.082,-1.757 7.038,-3.475 1.096,-1.97 1.42,-4.349 1.458,-5.166 v -3.437 h -33.954 c -2.266,0.085 -11.803,-0.003 -19.079,-6.813 -3.536,-3.309 -7.75,-9.432 -7.75,-19.812 v -31.37 c -0.067,-2.17 0.054,-11.825 6.966,-19.139 3.31,-3.503 9.411,-7.678 19.68,-7.678 h 25.562 c 10.682,0 26.573,7.077 26.573,26.573 v 61.823 c -0.1,10.701 -7.24,26.494 -26.494,26.494 z m -34.296,-88.703 0.028,0.33 -0.018,0.128 v 31.542 c 0,3.153 0.689,5.397 2.049,6.67 2.116,1.98 5.95,1.973 5.981,1.975 l 0.595,-0.02 h 34.157 V 61.85 c 0,-4.777 -1.927,-6.384 -3.812,-7.327 -2.268,-1.134 -4.739,-1.247 -4.762,-1.247 h -25.562 c -3.06,0 -5.262,0.668 -6.545,1.987 -1.783,1.832 -2.126,5.028 -2.111,6.201 z"
   id="path26"
   inkscape:connector-curvature="0"
   style="fill:#25c151" />
	</g>
	<g
   id="g32">
		<path
   d="M 740.658,150.401 H 697.97 v -18 h 42.688 c 4.484,0 6.055,-1.739 7,-3.44 1.086,-1.955 1.402,-4.318 1.438,-5.126 v -3.309 h -34.062 c -10.372,0 -16.502,-4.212 -19.818,-7.746 -6.853,-7.302 -6.949,-16.893 -6.869,-19.136 v -58.18 h 18 l -0.014,58.907 c -0.02,1.176 0.306,4.332 2.06,6.146 1.289,1.333 3.523,2.009 6.642,2.009 h 34.062 V 35.339 h 18 v 88.625 c -0.077,10.665 -7.181,26.437 -26.439,26.437 z"
   id="path30"
   inkscape:connector-curvature="0"
   style="fill:#25c151" />
	</g>
	<g
   id="g36">
		<polygon
   points="630.167,12.297 648.167,12.297 648.167,35.422 678.917,35.422 678.917,53.422 648.167,53.422 648.167,120.547 630.167,120.547 630.167,53.422 599.542,53.422 599.542,35.422 630.167,35.422 "
   id="polygon34"
   style="fill:#25c151" />
	</g>
</g>

</svg>