<svg width="24" height="24" viewBox="0 0 24 24" fill="none" xmlns="http://www.w3.org/2000/svg">
<g clip-path="url(#clip0_2830_10450)">
<path d="M23.4323 0.09375H0.755167C0.389877 0.09375 0.09375 0.389877 0.09375 0.755167V23.4323C0.09375 23.7976 0.389877 24.0938 0.755167 24.0938H23.4323C23.7976 24.0938 24.0938 23.7976 24.0938 23.4323V0.755167C24.0938 0.389877 23.7976 0.09375 23.4323 0.09375Z" fill="#293E40" stroke="#293E40"/>
<path d="M4.40625 14.0386V9.92216H5.45672V10.2358C5.76797 10.0006 6.19594 9.84375 6.62391 9.84375C7.16859 9.84375 7.67438 10.079 8.02453 10.5102C8.33578 10.9415 8.49141 11.4511 8.4525 11.9608V14.0386H7.36313V11.8824C7.40203 11.608 7.32422 11.2943 7.12969 11.0983C6.97406 10.9415 6.74063 10.8631 6.50719 10.8631C6.11813 10.8631 5.76797 11.0591 5.49563 11.3727V14.0386H4.40625Z" fill="white"/>
<path fill-rule="evenodd" clip-rule="evenodd" d="M8.8418 12.2744C8.8418 10.9415 9.93117 9.84375 11.254 9.84375C11.9154 9.84375 12.499 10.1182 12.927 10.5886C13.8218 11.5295 13.8218 13.0585 12.8491 13.9994C12.6935 14.1563 12.4212 14.1955 12.2266 14.0386C11.643 13.5682 10.826 13.5682 10.2035 14.0386C10.009 14.1955 9.73664 14.1563 9.58102 13.9994C9.11414 13.5682 8.8418 12.9409 8.8418 12.2744ZM10.0479 12.3136C10.0868 12.9801 10.6315 13.4506 11.254 13.4506L11.2929 13.529C11.9154 13.4898 12.4212 12.9409 12.4212 12.3136V12.2352V12C12.3434 11.3335 11.7598 10.8631 11.0984 10.9415C10.437 11.0199 9.97008 11.608 10.0479 12.2744V12.3136Z" fill="#81B5A1"/>
<path d="M15.7667 14.0388H14.9886L13.3545 9.92236H14.4439L15.3387 12.2746L16.1946 9.92236H17.1284L17.9843 12.2746L18.8792 9.92236H19.9686L18.3345 14.0388H17.5175L16.6615 11.7258L15.7667 14.0388Z" fill="white"/>
<path d="M19.3853 13.5288V13.6072H19.2297V14.0385H19.1129V13.6072H18.9961V13.5288H19.3853Z" fill="white"/>
<path d="M19.6963 13.8424L19.891 13.5288H19.9688V14.0385H19.852V13.764L19.7353 13.9601H19.6575L19.5407 13.764V14.0385H19.4629V13.5288H19.5019L19.6963 13.8424Z" fill="white"/>
</g>
<defs>
<clipPath id="clip0_2830_10450">
<rect width="24" height="24" rx="1" fill="white"/>
</clipPath>
</defs>
</svg>
