<svg width="24" height="24" viewBox="0 0 24 24" fill="none" xmlns="http://www.w3.org/2000/svg">
<path fill-rule="evenodd" clip-rule="evenodd" d="M3 3H21V21H3V3ZM12.15 9.89545C11.6362 9.89545 11.2081 9.71706 10.8655 9.36028C10.5352 9.0035 10.3701 8.5639 10.3701 8.04147C10.3701 7.51904 10.5352 7.07944 10.8655 6.72266C11.2081 6.36589 11.6362 6.1875 12.15 6.1875C12.6515 6.1875 13.0674 6.36589 13.3977 6.72266C13.7403 7.07944 13.9116 7.51904 13.9116 8.04147C13.9116 8.5639 13.7403 9.0035 13.3977 9.36028C13.0674 9.71706 12.6515 9.89545 12.15 9.89545ZM12.5073 11.3267C13.0338 11.4433 13.4179 11.7368 13.6596 12.2072C13.9132 12.6801 13.965 13.2843 13.815 14.0197C13.5199 15.4655 12.7665 16.6144 11.5547 17.4663C11.337 17.6135 11.1085 17.6606 10.8692 17.6077C10.6299 17.5547 10.4383 17.4211 10.2945 17.2068C10.148 17.005 10.0964 16.7983 10.1397 16.5863C10.1804 16.387 10.295 16.2235 10.4836 16.0958C10.9965 15.7274 11.3854 15.2924 11.6503 14.791C11.2033 14.6529 10.8667 14.4025 10.6405 14.0398C10.417 13.6646 10.3535 13.2402 10.4501 12.7666C10.5544 12.2556 10.8037 11.8614 11.1979 11.5839C11.5922 11.3065 12.0287 11.2207 12.5073 11.3267Z" fill="#007BFF"/>
</svg>
