<?xml version="1.0" encoding="UTF-8"?>
<svg width="24px" height="24px" viewBox="0 0 24 24" xmlns="http://www.w3.org/2000/svg" xmlns:xlink="http://www.w3.org/1999/xlink" version="1.1">
 <!-- Generated by Pixelmator Pro 1.7.1 -->
 <defs>
  <linearGradient id="linear-gradient" gradientUnits="userSpaceOnUse" x1="3.78" y1="17.157" x2="11.793" y2="2.967">
   <stop offset="0" stop-color="#1f92ff" stop-opacity="1"/>
   <stop offset="0.202" stop-color="#1b7ff1" stop-opacity="1"/>
   <stop offset="1" stop-color="#000395" stop-opacity="1"/>
  </linearGradient>
 </defs>
 <path id="Path" d="M13.184 3.194 C13.496 3.246 13.831 3.319 14.193 3.419 16.536 4.065 18.929 6.282 16.937 5.839 13.9 4.919 11.918 6.741 10.928 8.888 10.903 8.944 10.876 9.002 10.85 9.06 9.674 12.319 9.081 17.901 4.965 17.075 0.798 15.749 1.808 9.667 3.278 7.389 4.859 4.941 6.682 3.589 9.416 3.151 10.925 2.91 12.177 2.982 13.184 3.194 Z" fill-opacity="1" fill="url(#linear-gradient)" stroke="none"/>
 <defs>
  <linearGradient id="linear-gradient-1" gradientUnits="userSpaceOnUse" x1="21.017" y1="8.593" x2="10.336" y2="22.084">
   <stop offset="0" stop-color="#1f92ff" stop-opacity="1"/>
   <stop offset="0.202" stop-color="#1b7ff1" stop-opacity="1"/>
   <stop offset="1" stop-color="#000395" stop-opacity="1"/>
  </linearGradient>
 </defs>
 <path id="Path-1" d="M9.833 20.806 C9.521 20.754 9.186 20.681 8.824 20.581 6.481 19.935 4.088 17.718 6.08 18.161 9.117 19.081 11.1 17.259 12.089 15.112 12.115 15.056 12.141 14.998 12.167 14.94 13.344 11.681 13.936 6.099 18.052 6.925 22.219 8.251 21.209 14.333 19.739 16.611 18.158 19.059 16.335 20.411 13.601 20.849 12.092 21.09 10.84 21.018 9.833 20.806 Z" fill-opacity="1" fill="url(#linear-gradient-1)" stroke="none"/>
</svg>
