<?xml version="1.0" encoding="UTF-8"?>
<svg xmlns="http://www.w3.org/2000/svg" xmlns:xlink="http://www.w3.org/1999/xlink" width="24pt" height="24pt" viewBox="0 0 24 24" version="1.1">
<g id="surface1">
<path style=" stroke:none;fill-rule:nonzero;fill:rgb(28.235294%,35.686275%,83.529412%);fill-opacity:1;" d="M 21 10 L 16 10 L 16 15 C 16 16.65625 17.34375 18 19 18 C 20.65625 18 22 16.65625 22 15 L 22 11 C 22 10.449219 21.550781 10 21 10 Z M 21 10 "/>
<path style=" stroke:none;fill-rule:nonzero;fill:rgb(42.745098%,50.588235%,100%);fill-opacity:1;" d="M 7.5 10 L 7.5 16.328125 C 7.5 18.992188 9.507812 21.316406 12.167969 21.488281 C 15.078125 21.679688 17.5 19.371094 17.5 16.5 L 17.5 11 C 17.5 10.449219 17.050781 10 16.5 10 Z M 7.5 10 "/>
<path style=" stroke:none;fill-rule:nonzero;fill:rgb(31.764706%,38.039216%,79.607843%);fill-opacity:1;" d="M 12.5 2.5 C 10.84375 2.5 9.5 3.84375 9.5 5.5 C 9.5 7.15625 10.84375 8.5 12.5 8.5 C 14.15625 8.5 15.5 7.15625 15.5 5.5 C 15.5 3.84375 14.15625 2.5 12.5 2.5 Z M 12.5 2.5 "/>
<path style=" stroke:none;fill-rule:nonzero;fill:rgb(20.392157%,25.098039%,62.745098%);fill-opacity:1;" d="M 19 4 C 17.894531 4 17 4.894531 17 6 C 17 7.105469 17.894531 8 19 8 C 20.105469 8 21 7.105469 21 6 C 21 4.894531 20.105469 4 19 4 Z M 19 4 "/>
<path style=" stroke:none;fill-rule:nonzero;fill:rgb(17.647059%,22.352941%,60.392157%);fill-opacity:1;" d="M 11.160156 17 L 2.839844 17 C 2.375 17 2 16.625 2 16.160156 L 2 7.839844 C 2 7.375 2.375 7 2.839844 7 L 11.160156 7 C 11.625 7 12 7.375 12 7.839844 L 12 16.160156 C 12 16.625 11.625 17 11.160156 17 Z M 11.160156 17 "/>
<path style=" stroke:none;fill-rule:nonzero;fill:rgb(100%,100%,100%);fill-opacity:1;" d="M 9.035156 9.5 L 4.964844 9.5 L 4.964844 10.359375 L 6.488281 10.359375 L 6.488281 14.5 L 7.511719 14.5 L 7.511719 10.359375 L 9.035156 10.359375 Z M 9.035156 9.5 "/>
</g>
</svg>
