<?xml version="1.0" encoding="UTF-8"?>
<svg width="24px" height="24px" viewBox="0 0 24 24" xmlns="http://www.w3.org/2000/svg" xmlns:xlink="http://www.w3.org/1999/xlink" version="1.1">
 <!-- Generated by Pixelmator Pro 1.7.1 -->
 <path id="Path" d="M12 0 C5.36 0 0 5.36 0 12 0 18.64 5.36 24 12 24 18.64 24 24 18.64 24 12 24 5.36 18.64 0 12 0 Z M12 20.8 C7.12 20.8 3.2 16.88 3.2 12 3.2 7.12 7.12 3.2 12 3.2 16.88 3.2 20.8 7.12 20.8 12 20.8 16.88 16.88 20.8 12 20.8 Z M17.44 9.04 C17.44 10.4 16.32 11.52 14.96 11.52 13.6 11.52 12.48 10.4 12.48 9.04 12.48 7.68 13.6 6.56 14.96 6.56 16.32 6.56 17.44 7.68 17.44 9.04 Z M17.44 14.96 C17.44 16.32 16.32 17.44 14.96 17.44 13.6 17.44 12.48 16.32 12.48 14.96 12.48 13.6 13.6 12.48 14.96 12.48 16.32 12.48 17.44 13.6 17.44 14.96 Z M11.52 14.96 C11.52 16.32 10.4 17.44 9.04 17.44 7.68 17.44 6.56 16.32 6.56 14.96 6.56 13.6 7.68 12.48 9.04 12.48 10.4 12.48 11.52 13.6 11.52 14.96 Z M11.52 9.04 C11.52 10.4 10.4 11.52 9.04 11.52 7.68 11.52 6.56 10.4 6.56 9.04 6.56 7.68 7.68 6.56 9.04 6.56 10.4 6.56 11.52 7.68 11.52 9.04 Z" fill="#f22f46" fill-opacity="1" stroke="none"/>
</svg>
