<?xml version="1.0" encoding="UTF-8"?>
<svg width="200px" height="48px" viewBox="0 0 200 48" version="1.1" xmlns="http://www.w3.org/2000/svg" xmlns:xlink="http://www.w3.org/1999/xlink">
    <!-- Generator: Sketch 47 (45396) - http://www.bohemiancoding.com/sketch -->
    <title>vo-logo-horizontal@2x</title>
    <desc>Created with Sketch.</desc>
    <defs></defs>
    <g id="----press" stroke="none" stroke-width="1" fill="none" fill-rule="evenodd">
        <g id="press-logos-branding" transform="translate(-330.000000, -799.000000)">
            <g id="Group-22" transform="translate(301.000000, 775.000000)">
                <g id="Group-24">
                    <g id="vo-logo-horizontal" transform="translate(29.000000, 24.000000)">
                        <g id="mark">
                            <path d="M48.4848485,24.0002359 C48.4848485,37.2551324 37.6304938,48 24.2419477,48 C10.8536398,48 0,37.2551324 0,24.0002359 C0,10.7453393 10.8536398,0 24.2419477,0 C37.6304938,0 48.4848485,10.7453393 48.4848485,24.0002359 Z" id="path-3" fill="#FBB040"></path>
                            <polygon id="path-5" fill="#2D2D2D" points="35.7593395 24.7684772 34.1556356 22.0303585 37.5385743 17.2732181 28.1880444 21.7458567 27.9980201 20.4003248 30.7303671 15.9877719 30.3385858 15.2609531 31.5999698 10.0728371 26.697987 15.1849411 26.4037485 12.3616408 27.8694201 8.12862081 25.9130441 8.77918642 24.2048959 3.59541401 22.4974378 8.77918642 20.5410617 8.12862081 22.0069634 12.3616408 21.7129549 15.1849411 16.810282 10.0728371 18.071666 15.2609531 17.6801148 15.9877719 20.4124617 20.4003248 20.2228976 21.7458567 10.8719076 17.2732181 14.2555364 22.0303585 12.6511424 24.7684772 19.8336468 28.3666166 19.9482135 29.565916 14.5033042 27.8589051 17.2407123 31.2596548 17.4693856 32.3390242 20.8058534 33.8235494 21.1486334 34.8430746 19.6532848 34.2183288 23.686355 38.8603655 23.686355 44.395414 24.7234367 44.395414 24.7234367 38.8603655 28.7571971 34.2183288 27.2618485 34.8430746 27.6048585 33.8235494 30.9415563 32.3390242 31.1704597 31.2596548 33.9069476 27.8589051 28.4624984 29.565916 28.576375 28.3666166"></polygon>
                        </g>
                        <path d="M176.826787,31.4171291 C174.401941,31.4171291 173.225636,29.2454801 173.225636,27.0383595 C173.225636,23.869959 174.973515,22.5169153 176.826787,22.5169153 C178.965452,22.5169153 180.427544,24.2971945 180.427544,27.0383595 C180.427544,29.8504676 178.751902,31.4171291 176.826787,31.4171291 L176.826787,31.4171291 Z M154.296201,30.8117474 C150.481103,30.8117474 147.414815,27.5365381 147.414815,23.1936342 C147.414815,19.0284824 150.481103,15.8955535 154.296201,15.8955535 C158.110508,15.8955535 161.177191,19.0284824 161.177191,23.1936342 C161.177191,27.5365381 158.110508,30.8117474 154.296201,30.8117474 L154.296201,30.8117474 Z M118.752047,31.3812634 C116.506014,31.3812634 114.5809,29.7081871 114.5809,26.9670222 C114.5809,24.1903856 116.506014,22.445578 118.752047,22.445578 C120.998474,22.445578 122.923588,24.1903856 122.923588,26.9670222 C122.923588,29.7081871 120.998474,31.3812634 118.752047,31.3812634 L118.752047,31.3812634 Z M193.333333,22.2 C195.900679,22.2 196.969697,24 196.969697,24 L199.393939,19.2 C199.393939,19.2 197.611847,17.4 193.333333,17.4 C189.395474,17.4 185.884805,19.1742741 185.454545,22.2 C184.151926,19.1868863 183.050426,17.4 178.181818,17.4 C173.31321,17.4 172.727273,19.8 172.727273,19.8 C172.727273,19.8 172.727273,19.2089145 172.727273,18.0267434 L167.272727,18.0267434 L167.235953,19.9251251 C165.830307,14.2642549 161.050264,10.2 154.545455,10.2 C148.41722,10.2 143.353404,13.8078539 141.639867,18.9583275 L141.818182,17.4267434 C141.818182,17.4267434 141.283423,17.4267434 140.926979,17.4267434 C138.181609,17.4267434 135.755578,19.8 135.151515,22.2 C135.151515,22.2 135.151515,20.8 135.151515,18 L129.161558,18 L129.161558,26.9299741 C129.141032,21.183578 124.586906,17.4267434 118.787879,17.4267434 C113.047273,17.4267434 108.341746,21.2001314 108.341746,26.9670222 C108.341746,28.3799735 108.770426,31.2 108.485429,31.2 C107.308729,31.2 105.454545,30.864446 105.454545,28.8 L105.454545,22.8 L109.090909,22.8 L109.090909,18 L105.454545,18 L105.454545,13.2 L99.3939394,13.2 L99.3939394,18 L96.969697,18 L96.969697,19.2 C95.8170758,18.4046483 93.3753551,17.4267434 90.3030303,17.4 C85.4054663,17.3573686 82.4108517,20.1317871 81.2121212,23.4427235 L81.2121212,18 L75.1515152,18 L75.1515152,36.6 L81.2121212,36.6 L81.2121212,30.6156738 C81.5980853,33.1632568 85.4237321,36.6 90.3030303,36.6 C95.4369315,36.6 98.432361,33.4815751 98.432361,33.4815751 L96.1863286,29.1737486 C96.1863286,29.1737486 93.4760415,31.2 90.9090909,31.2 C87.8072767,31.2 86.5599678,28.9956025 86.5599678,26.8243476 C86.5599678,24.6526986 88.0212705,22.445578 90.94506,22.445578 C93.4764846,22.445578 95.2594948,24.2258572 95.2594948,24.2258572 L96.969697,21.6 L96.969697,22.8 L99.3939394,22.8 L99.3939394,29.4 C99.3939394,35.5582606 104.33313,36.6 107.256525,36.6 C108.254806,36.6 109.136738,36.6 109.090909,36.6 L109.090909,31.2 C110.736552,34.5146222 114.579232,36.6 118.787879,36.6 C124.55138,36.6 129.141032,32.7146007 129.161558,27.0040703 L129.090909,36.6 L135.151515,36.6 L135.329661,29.1386712 C135.329661,28.1415256 135.436633,27.3233145 135.650579,26.6462014 C136.541887,23.9054306 138.930418,23.4427235 140.39172,23.4427235 C140.60764,23.4427235 140.79948,23.4521826 140.967636,23.4640065 C141.102635,30.8097768 146.93776,36.6 154.545455,36.6 C161.050264,36.6 165.867082,32.2007859 167.272727,26.4 L167.272727,43.2 L172.727273,43.2 C172.727273,37.5991802 172.727273,34.7991802 172.727273,34.8 C172.798719,34.8 175.186582,36.6 178.181818,36.6 C183.066248,36.6 186.666667,32.8060385 186.666667,27.0040703 C186.666667,26.6517192 186.69114,26.1377683 186.666667,25.8 C188.885857,28.9203167 194.259788,29.3936724 194.259788,30.669467 C194.259788,31.2744545 193.368481,31.5235438 192.441647,31.5235438 C189.802855,31.5235438 187.878788,29.4 187.878788,29.4 L184.848485,34.2 C184.848485,34.2 188.129025,36.6 192.727273,36.6 C197.469598,36.6 200,33.8374733 200,30.7045444 C200,24.7953732 191.515152,24.8312389 191.515152,23.4427235 C191.515152,22.8018703 192.407289,22.2 193.333333,22.2 Z M75.1515152,15.6 L81.2121212,15.6 L81.2121212,10.8 L69.0909091,10.8 L64.7777954,25.1157998 C64.2788525,26.7179329 63.8154356,29.2104026 63.8154356,29.2104026 C63.7439889,29.2104026 63.280572,26.7179329 62.7816291,25.1157998 L58.1818182,10.8 L51.5151515,10.8 L60.6060606,36.6 L66.6666667,36.6 L75.1515152,13.8 L75.1515152,15.6 Z" id="Fill-1" fill="#231F20"></path>
                    </g>
                </g>
            </g>
        </g>
    </g>
</svg>