<?xml version="1.0" encoding="UTF-8" standalone="no"?>
<svg
   xmlns:dc="http://purl.org/dc/elements/1.1/"
   xmlns:cc="http://creativecommons.org/ns#"
   xmlns:rdf="http://www.w3.org/1999/02/22-rdf-syntax-ns#"
   xmlns:svg="http://www.w3.org/2000/svg"
   xmlns="http://www.w3.org/2000/svg"
   xmlns:sodipodi="http://sodipodi.sourceforge.net/DTD/sodipodi-0.dtd"
   xmlns:inkscape="http://www.inkscape.org/namespaces/inkscape"
   width="151"
   height="32"
   viewBox="0 0 151 32"
   version="1.1"
   id="svg10"
   sodipodi:docname="logo-full.svg"
   inkscape:version="0.92.3 (2405546, 2018-03-11)">
  <metadata
     id="metadata16">
    <rdf:RDF>
      <cc:Work
         rdf:about="">
        <dc:format>image/svg+xml</dc:format>
        <dc:type
           rdf:resource="http://purl.org/dc/dcmitype/StillImage" />
      </cc:Work>
    </rdf:RDF>
  </metadata>
  <defs
     id="defs14" />
  <sodipodi:namedview
     pagecolor="#ffffff"
     bordercolor="#666666"
     borderopacity="1"
     objecttolerance="10"
     gridtolerance="10"
     guidetolerance="10"
     inkscape:pageopacity="0"
     inkscape:pageshadow="2"
     inkscape:window-width="1370"
     inkscape:window-height="755"
     id="namedview12"
     showgrid="false"
     inkscape:zoom="5.3758847"
     inkscape:cx="31.085148"
     inkscape:cy="18.370155"
     inkscape:window-x="0"
     inkscape:window-y="0"
     inkscape:window-maximized="0"
     inkscape:current-layer="svg10" />
  <g
     fill="none"
     fill-rule="nonzero"
     id="g8">
    <path
       fill="#FFF"
       d="M56.192 20.241c0 1.322-.526 2.383-1.581 3.18-.96.727-2.125 1.09-3.5 1.09-.532 0-.834-.012-.906-.038-.15-.07-.224-.288-.224-.651 0-.197-.025-.489-.074-.878a7.687 7.687 0 0 1-.072-.865c0-.115.079-.192.238-.228.116-.026.28-.026.492 0 .275.026.407.04.4.04 1.675 0 2.514-.514 2.514-1.544 0-.486-.368-.934-1.106-1.341-1.196-.657-1.884-1.06-2.061-1.212-.736-.63-1.105-1.455-1.105-2.474 0-1.331.502-2.369 1.505-3.113.905-.667 2.048-.998 3.433-.998.123 0 .215.056.272.172.058.116.169.474.332 1.078.166.602.248.966.248 1.09 0 .097-.086.16-.253.187-.569.079-1.141.154-1.717.226-.683.187-1.024.559-1.024 1.117 0 .4.359.802 1.077 1.212 1.066.593 1.739 1.023 2.022 1.29.729.691 1.09 1.578 1.09 2.66M66.211 16.384c0-.736-.29-1.389-.87-1.956-.581-.568-1.237-.852-1.963-.852-.815 0-1.542.329-2.174.986-.636.656-.952 1.392-.952 2.207 0 .188.16.281.478.281 1.313 0 2.883-.133 4.709-.4.516-.072.772-.16.772-.266m3.166.81c0 .657-.283 1.096-.85 1.317-.38.142-3.127.404-8.237.787.116.78.546 1.445 1.29 1.994.71.523 1.474.786 2.29.786 1.402 0 2.688-.454 3.857-1.358l.427-.347c.07 0 .116.01.139.027.023.02.19.327.5.926.309.599.464.92.464.963 0 .055-.07.157-.213.306-1.303 1.385-2.976 2.076-5.014 2.076-2.06 0-3.7-.613-4.924-1.843-1.224-1.228-1.837-2.867-1.837-4.916 0-1.828.586-3.419 1.756-4.776 1.233-1.412 2.746-2.113 4.537-2.113 1.668 0 3.06.61 4.179 1.834 1.091 1.19 1.636 2.635 1.636 4.337M91.464 23.848c0 .346-.103.52-.306.52-.133 0-.334-.015-.606-.043a7.478 7.478 0 0 0-.618-.038c-.15 0-.378.009-.68.026-.3.018-.526.027-.677.027-.186 0-.28-.207-.28-.625 0-.408.017-1.018.047-1.83.031-.811.047-1.42.047-1.83 0-2.244-.009-3.494-.026-3.751-.072-.913-.258-1.544-.559-1.888-.345-.374-.963-.559-1.85-.559-.559 0-1.189.265-1.89.798-.726.558-1.104 1.11-1.13 1.649-.035.691-.054 1.957-.054 3.792 0 .436.019 1.087.054 1.956.035.87.053 1.521.053 1.955 0 .24-.079.361-.24.361-.159 0-.39-.014-.698-.042a9.597 9.597 0 0 0-.697-.038c-.142 0-.35.009-.627.026-.276.018-.483.027-.623.027-.18 0-.269-.128-.269-.387 0-.425.014-1.066.04-1.92.028-.857.04-1.498.04-1.925v-3.206c0-1-.12-1.716-.36-2.142-.337-.602-.978-.903-1.927-.903-.56 0-1.224.234-1.997.705-.851.514-1.276 1.032-1.276 1.555v3.886c0 .444.003 1.105.012 1.982.009.878.014 1.535.014 1.968 0 .259-.104.387-.306.387h-2.473c-.18 0-.267-.12-.267-.358 0-.719.004-1.8.012-3.24.01-1.442.014-2.521.014-3.239a23.13 23.13 0 0 0-.52-4.858 1.289 1.289 0 0 1-.04-.277c0-.116.04-.183.12-.2.33-.036.807-.102 1.437-.201.293-.088.733-.186 1.317-.293l.107-.012c.107 0 .205.312.298.937s.176.938.246.938l.667-.585a7.816 7.816 0 0 1 1.57-1.078c.753-.39 1.506-.585 2.261-.585 2.04 0 3.339.834 3.898 2.5a6.773 6.773 0 0 1 2.049-1.755c.87-.497 1.73-.744 2.58-.744 1.643 0 2.777.477 3.408 1.436.451.71.677 1.832.677 3.366 0 .294-.009.744-.026 1.357a53.24 53.24 0 0 0-.028 1.358c0 .558.014 1.4.042 2.521.027 1.12.04 1.96.04 2.519M103.639 17.86c0-1.092-.325-2.026-.971-2.807-.686-.841-1.558-1.265-2.622-1.265-1.065 0-1.95.417-2.66 1.252-.685.798-1.025 1.738-1.025 2.82 0 1.075.34 2.006 1.025 2.794.71.825 1.595 1.238 2.66 1.238 1.038 0 1.907-.421 2.608-1.264.656-.79.985-1.712.985-2.767m3.393-5.563c0 .035-.014.116-.042.24-.346 2.031-.518 3.782-.518 5.256 0 .089.11 2.08.332 5.973l.012.185c.01.26-.106.387-.35.387-.245 0-.612.03-1.105.088-.492.056-.857.085-1.097.085-.17 0-.298-.31-.387-.932-.09-.62-.173-.93-.253-.93-.053 0-.293.172-.718.518a7.893 7.893 0 0 1-1.465.972c-.7.354-1.4.531-2.101.531-1.721 0-3.172-.686-4.351-2.061-1.117-1.314-1.677-2.843-1.677-4.592 0-1.968.566-3.596 1.69-4.881 1.181-1.338 2.733-2.009 4.657-2.009 1.358 0 2.543.469 3.553 1.41.151.177.385.434.705.772l.08.04c.054 0 .128-.28.226-.838.098-.559.221-.839.372-.839.239 0 .688.067 1.345.2.727.16 1.092.302 1.092.425M116.61 21.891c0 .195-.017.46-.053.8-.042.416-.07.686-.08.81-.008.16-.022.257-.04.294-.035.061-.12.123-.251.186-.729.344-1.874.518-3.435.518-2.075 0-3.113-.94-3.113-2.82 0-.753.017-1.887.052-3.4.037-1.511.053-2.645.053-3.399 0-.363-.18-.56-.544-.586-.328 0-.654-.004-.972-.012-.185-.046-.28-.41-.28-1.093 0-.256.022-.527.055-.81.027-.213.168-.341.426-.385.22 0 .44-.005.652-.014.408-.018.61-.2.61-.546 0-.354-.01-.895-.03-1.623a59.11 59.11 0 0 1-.036-1.635c0-.649.125-.973.373-.973.08 0 .914.138 2.503.412.202.028.307.124.307.294 0 .389-.03.976-.089 1.755a25.82 25.82 0 0 0-.086 1.756c0 .259.121.387.36.387h3.194c.149 0 .224.052.224.16 0 .106-.015.277-.045.512a4.28 4.28 0 0 0-.048.527c0 .132.003.335.014.61.009.276.014.48.014.612 0 .169-.127.253-.374.253-.355 0-.892-.025-1.61-.072a26.23 26.23 0 0 0-1.609-.074c-.071 0-.125.253-.16.758-.045.63-.067 1.512-.067 2.648v1.982c0 .764.07 1.296.213 1.597.214.461.652.693 1.318.693.275 0 .678-.061 1.21-.182.533-.118.927-.178 1.185-.178.106 0 .16.079.16.238M126.614 16.384c0-.736-.288-1.389-.87-1.956-.58-.568-1.235-.852-1.963-.852-.814 0-1.541.329-2.173.986-.635.656-.953 1.392-.953 2.207 0 .188.162.281.481.281 1.309 0 2.882-.133 4.707-.4.515-.072.77-.16.77-.266m3.17.81c0 .657-.284 1.096-.853 1.317-.38.142-3.125.404-8.235.787.116.78.546 1.445 1.292 1.994.709.523 1.472.786 2.287.786 1.4 0 2.688-.454 3.858-1.358l.425-.347c.07 0 .118.01.14.027.024.02.19.327.5.926s.467.92.467.963c0 .055-.072.157-.215.306-1.304 1.385-2.976 2.076-5.016 2.076-2.058 0-3.698-.613-4.922-1.843-1.226-1.228-1.836-2.867-1.836-4.916 0-1.828.584-3.419 1.755-4.776 1.232-1.412 2.745-2.113 4.537-2.113 1.668 0 3.06.61 4.178 1.834 1.092 1.19 1.638 2.635 1.638 4.337M141.625 24.099c0 .126-.095.21-.279.254a2.41 2.41 0 0 1-.575.014 9.677 9.677 0 0 1-.48-.028c-.698 0-1.12-.079-1.262-.24-.542-.806-1.366-1.99-2.475-3.553-.213-.283-.333-.424-.358-.424-.081 0-.576.68-1.491 2.034-.93 1.384-1.495 2.095-1.691 2.131-.193.035-.824.052-1.888.052-.213 0-.32-.078-.32-.24V22.65c0-.098.589-.86 1.77-2.287 1.18-1.428 1.77-2.214 1.77-2.355 0-.133-.59-.91-1.77-2.33-1.181-1.419-1.77-2.198-1.77-2.34v-1.425c0-.177.107-.267.32-.267.221 0 .554.018.998.055.444.035.776.053.997.053.125 0 .236.061.334.186.522.808 1.321 1.996 2.394 3.566.211.292.327.44.347.44.025 0 .122-.117.291-.347.517-.7 1.362-1.938 2.542-3.711.088-.128.19-.187.307-.187.22 0 .549-.009.984-.028.434-.018.76-.027.972-.027.22 0 .333.09.333.267v1.396c0 .162-.594.95-1.777 2.37-1.185 1.419-1.777 2.199-1.777 2.34 0 .089.592.848 1.777 2.277 1.183 1.427 1.777 2.221 1.777 2.381v1.422M150.883 21.891c0 .195-.016.46-.052.8-.044.416-.072.686-.08.81-.008.16-.023.257-.042.294-.033.061-.117.123-.25.186-.73.344-1.874.518-3.434.518-2.075 0-3.113-.94-3.113-2.82 0-.753.017-1.887.053-3.4.035-1.511.053-2.645.053-3.399 0-.363-.181-.56-.545-.586-.33 0-.653-.004-.972-.012-.187-.046-.28-.41-.28-1.093 0-.256.02-.527.053-.81.028-.213.17-.341.426-.385.221 0 .44-.005.653-.014.41-.018.612-.2.612-.546 0-.354-.01-.895-.033-1.623a57.51 57.51 0 0 1-.033-1.635c0-.649.125-.973.373-.973.08 0 .911.138 2.5.412.205.028.307.124.307.294 0 .389-.028.976-.09 1.755a27.783 27.783 0 0 0-.085 1.756c0 .259.122.387.36.387h3.194c.151 0 .226.052.226.16 0 .106-.015.277-.047.512a4.334 4.334 0 0 0-.045.527c0 .132.003.335.011.61.01.276.014.48.014.612 0 .169-.123.253-.374.253-.354 0-.89-.025-1.608-.072a26.192 26.192 0 0 0-1.61-.074c-.072 0-.125.253-.16.758-.044.63-.067 1.512-.067 2.648v1.982c0 .764.072 1.296.212 1.597.215.461.654.693 1.317.693.276 0 .68-.061 1.212-.182.532-.118.927-.178 1.185-.178.107 0 .159.079.159.238"
       id="path2" />
    <path
       fill="#00A1ED"
       d="M24.477 12.998s-.235 1.315 1.033 1.315c1.267 0 1.032-1.315 1.032-1.315-1.08.657-2.065 0-2.065 0"
       id="path6" />
  </g>
  <g
     style="fill:#1fa0ed;fill-opacity:1"
     inkscape:export-ydpi="72"
     inkscape:export-xdpi="72"
     inkscape:export-filename="/home/mashinista/Downloads/sematext-logo.png"
     transform="matrix(0.28213944,0,0,0.28213944,-19.565086,-15.03592)"
     id="g1075">
    <path
       inkscape:connector-curvature="0"
       id="path1071"
       d="m 163.11268,52.998264 c -4.17888,-0.02231 -7.09865,0.382401 -7.09865,0.382401 -28.96159,-0.370808 -30.51518,37.521126 -30.51518,37.521126 -1.34826,0 -3.03414,0.167984 -4.21331,1.01046 -7.75581,5.901779 -1.18195,13.149779 -1.18195,13.149779 -0.59199,0.50281 -1.12225,0.97933 -1.65009,1.45542 -0.42034,-0.64964 -0.82197,-1.48576 -1.10547,-2.33378 -8.42921,-0.16761 -11.8005,-2.36 -12.47537,-5.90047 -0.84248,-4.21387 1.51818,-8.934068 5.56443,-8.76498 5.9003,0.167605 3.03488,3.877263 2.19241,3.877263 -0.84396,0 -1.35049,-0.338557 -1.68718,-0.676733 -0.50579,-0.505783 -1.18195,-0.165838 -1.18195,0.50755 0,1.68643 1.85635,4.04412 5.56443,2.19008 3.37287,-1.686434 3.54001,-4.382665 2.52845,-6.574882 -1.01156,-2.697998 -3.03311,-4.045888 -5.39294,-4.55167 l -0.16918,-0.505225 c 0,-0.505782 -0.5069,-0.843591 -0.84359,-0.843591 l -1.68717,-0.169183 c -0.50578,0 -0.84136,0.17094 -1.01045,0.676722 l -0.16687,0.841277 c -1.51734,0.169088 -3.03496,0.50698 -4.21562,1.012762 l -0.84359,-0.674407 c -0.33669,-0.338177 -0.84145,-0.169089 -1.17963,0 l -1.17963,1.012774 c -0.33818,0.336694 -0.50597,0.671536 -0.33837,1.177318 l 0.33837,0.676722 c -0.84396,0.842476 -1.85506,2.021372 -2.52845,3.200541 l -0.50522,-0.166869 c -0.50578,-0.169089 -0.84527,0.167047 -1.18196,0.505224 l -0.67441,1.517999 c -0.1676,0.336693 -0.16751,0.842938 0.16919,1.179632 l 0.50522,0.674406 c -1.18065,4.55204 0.17011,10.11518 7.75684,15.17301 1.01156,0.67338 1.85284,1.17907 2.69532,1.68485 l -0.33606,1.68717 c -0.16909,0.50578 0.16863,1.18121 0.67441,1.34882 l 1.85404,0.84359 c 0.46335,0.15354 0.92719,0.14676 1.39054,-0.24102 -3.22475,4.77266 -4.65819,8.97646 -10.77198,15.61797 -3.37287,3.70956 -7.25004,5.39293 -10.79051,5.39293 -5.56362,0 -10.11668,-4.38212 -9.61089,-10.78819 0.33817,-4.72113 3.87967,-7.5872 7.75685,-8.26207 0.50578,-0.1676 1.0099,-0.16689 1.51568,-0.16686 4.21386,0 6.23894,3.53954 4.55399,6.91093 0,0 -1.34993,3.37213 -4.04645,3.54122 h -0.16918 c -2.52891,0 -2.19129,-2.86635 -1.34882,-3.54122 0.16909,-0.16909 0.50532,-0.16917 0.67441,-0.16917 0.50578,0 0.84303,0.33835 1.34882,0.33835 0.16908,0 0.33613,-9e-5 0.50522,-0.16918 1.17917,-0.50578 1.01277,-1.51568 1.01277,-1.51568 -0.16908,-1.34825 -1.1825,-1.85404 -2.53076,-1.85404 -0.84247,0 -1.85357,0.3354 -2.52844,0.6721 -2.52893,1.34974 -3.20214,5.05948 -1.51569,7.42079 1.01156,1.51734 2.69773,2.35926 4.72085,2.35926 3.539,0 7.92362,-2.52984 9.60857,-7.58766 1.68643,-4.88873 -2.02453,-13.14977 -10.62134,-13.14977 -1.85552,0 -3.87892,0.33715 -6.06967,1.17963 -18.544847,6.74277 -9.94692,38.10284 6.40572,38.10284 0.84248,0 1.51911,-1e-4 2.36158,-0.16919 3.54048,-0.67338 6.74306,-2.35945 9.77775,-4.55167 l 0.33835,0.33606 c 0.3367,0.33669 0.67376,0.50753 1.01045,0.50753 0.3367,0 0.67377,-0.16926 1.01046,-0.33835 l 1.51799,-1.34882 c 0.50578,-0.33669 0.67431,-1.01231 0.50524,-1.68718 l -0.33606,-1.01045 c 1.17917,-1.01156 2.1913,-2.19129 3.20286,-3.20285 l 0.50522,0.33604 c 0.3367,0.16909 0.5069,0.16918 0.8436,0.16918 0.50578,0 0.84293,-0.16853 1.17963,-0.50522 l 1.18194,-1.518 c 0.3367,-0.50578 0.50505,-1.17908 0.16687,-1.68486 l -0.50522,-0.84359 c 1.01156,-1.34974 2.02211,-2.52743 3.03367,-3.70808 l 0.33835,0.16918 c 0.16761,0.16909 0.5069,0.16687 0.8436,0.16687 0.50578,0 0.84145,-0.16862 1.17963,-0.6744 l 1.17963,-1.51569 c 0.33818,-0.50578 0.50588,-1.18139 0.16918,-1.68717 l -0.33836,-0.67441 c 1.85404,-2.19221 3.37334,-3.53889 4.55399,-3.53889 0.67339,0 1.17908,0.50411 1.68486,1.51567 0.33818,0.67339 0.67394,1.5192 1.34881,2.53076 l -0.16918,0.16687 c -0.67487,0.50578 -0.84185,1.34984 -0.33604,2.02322 l 1.01045,1.68717 c 0.33669,0.50579 0.84303,0.67441 1.34881,0.67441 h 0.33605 0.33836 c 0.67487,1.17917 1.34992,2.35982 2.1924,3.70808 -0.67487,0.50578 -0.84414,1.34835 -0.33836,2.02323 l 1.01276,1.68485 c 0.3367,0.50578 0.84072,0.67441 1.34651,0.67441 h 0.33835 l 0.50523,-0.16686 c 0.67487,1.17917 1.51763,2.35825 2.36159,3.5389 l -0.16919,0.16918 c -0.50578,0.50578 -0.67496,1.34983 -0.16918,2.02321 l 1.17963,1.51569 c 0.33669,0.33817 0.67618,0.67441 1.18196,0.67441 h 0.50522 l 0.33604,-0.16687 c 7.58673,10.79051 16.85934,20.9043 23.94029,20.9043 h 0.33605 c 12.64456,-0.5043 11.97246,-26.63561 3.03599,-26.63561 -0.50578,0 -1.01222,-7.3e-4 -1.518,0.16687 -5.73121,1.68644 -5.39525,8.76729 -5.39525,8.76729 0,0 2.86521,-4.04646 4.55167,-4.04643 1.34826,0 2.19351,2.02228 1.18195,8.93414 -0.33818,2.52891 -1.34928,3.71042 -2.52845,3.7104 -6.40608,0 -22.25543,-30.85196 -22.25543,-36.24648 0,-0.50578 0.33781,-0.67672 0.84359,-0.67672 0.67339,0 1.51706,0.34013 2.8668,0.84591 l -0.33835,1.17732 c -0.16761,0.67487 0.16871,1.51817 0.84358,1.85635 l 1.85404,0.67441 c 0.16909,0 0.33614,0.16918 0.50523,0.16918 0.3367,0 0.84377,-0.17086 1.18195,-0.50755 l 0.84126,-1.01045 c 0.84248,0.50578 1.85525,1.01222 2.86682,1.518 l -0.33837,1.34649 c -0.16909,0.67487 0.17021,1.51819 0.84359,1.85635 l 1.85636,0.67441 c 0.1676,0 0.33612,0.16918 0.50523,0.16918 0.3367,0 0.84294,-0.17084 1.17963,-0.50753 l 0.84358,-0.84128 c 1.17917,0.67339 2.52901,1.34762 3.87727,2.19009 l -0.33836,1.17963 c -0.16761,0.67339 0.16871,1.51735 0.84358,1.85404 l 1.85404,0.67673 c 0.16909,0 0.33614,0.16689 0.50523,0.16685 0.33669,0 0.84378,-0.16704 1.18195,-0.50522 l 0.67209,-0.67441 c 1.34974,0.67339 2.69893,1.51671 3.87957,2.19009 l -0.33835,1.18195 c -0.16761,0.67487 0.16872,1.51735 0.84359,1.85404 l 1.85404,0.67441 c 0.16909,0 0.33613,0.16918 0.50522,0.16918 0.3367,0 0.84377,-0.16853 1.18195,-0.50522 l 0.67209,-0.67441 c 5.05782,2.698 10.28427,5.39312 15.173,7.58534 6.40608,2.8656 12.98142,4.55166 18.54503,4.55166 7.24855,0 12.98115,-2.86384 14.32942,-10.28296 0,-0.16761 8e-5,-0.5068 0.16917,-0.67441 l 0.67673,-0.16918 c 0.67339,-0.16909 1.34649,-0.84304 1.34649,-1.34882 l 0.16918,-1.51567 c 0.3367,-0.67487 5.6e-4,-1.01287 -0.50522,-1.18196 h -1.01045 c 0,-1.85404 -0.34004,-3.37036 -0.67673,-4.88771 l 0.50755,-0.67441 c 0.50578,-0.67339 0.50587,-1.51734 0.16918,-1.85404 l -0.8459,-1.18194 c -0.16762,-0.16761 -1.01159,-0.33605 -1.85404,-0.33605 h -0.16919 c -1.01156,-1.34825 -2.18918,-2.36121 -3.53889,-3.20516 l -0.33606,-1.51569 c -0.16908,-0.67339 -0.67542,-1.34893 -1.34881,-1.51799 l -1.51799,-0.16687 c -0.33818,0 -1.1814,0.67164 -1.68718,1.34651 -1.01156,-0.16909 -2.02136,-0.33606 -3.20053,-0.33606 -5.5636,0 -10.79228,2.86524 -11.29806,8.25975 -0.16909,2.35983 -0.16936,5.22728 4.72085,8.09288 1.34826,0.84248 2.86736,1.18196 4.21562,1.18196 4.04626,0 7.75562,-2.52929 6.74408,-6.23885 -0.67489,-2.8656 -2.69773,-3.87725 -4.72086,-3.87725 -1.51734,0 -2.86635,0.67541 -3.54122,1.3488 -1.17917,1.68644 -0.33706,3.70808 0.84359,3.70808 1.17917,0 0.84359,-1.01045 0.84359,-1.01045 -0.67487,-1.18065 0.16732,-1.68717 1.34649,-1.68717 1.01157,0 2.19241,0.50578 2.19241,1.85404 0.16909,1.85552 -2.1912,2.52853 -3.03367,2.69762 h -0.16919 c -5.39451,0 -5.22486,-5.05732 -4.2133,-6.23653 1.51735,-2.19219 3.7066,-3.03367 5.56212,-3.03367 4.88873,0 9.44272,5.22413 6.40802,11.46261 -1.01156,2.19073 -2.69994,4.04644 -6.40802,4.04644 -2.19222,0 -5.22626,-0.6744 -9.27251,-2.52844 -13.81944,-5.94311 -33.17751,-14.94396 -37.85487,-23.19636 2.94265,0.8099 7.3346,1.78278 8.85768,2.28974 v 1.18195 c 0,0.50578 0.33781,1.01054 0.8436,1.17963 l 1.85404,0.67441 c 0.50578,0.16908 1.18129,-10e-4 1.51798,-0.50754 l 0.67441,-1.01046 c 1.34826,0.33817 2.86514,0.50532 4.38249,0.67441 l 0.50522,1.51799 c 0.16909,0.50579 0.67618,0.84127 1.18196,0.84127 l 2.02321,-0.16686 c 0.5043,0 1.01053,-0.50466 1.17964,-1.01045 l 0.16918,-1.01277 c 1.68495,-0.16909 3.37046,-0.33781 5.05689,-0.84359 l 1.17963,1.17963 c 0.33818,0.33669 1.00991,0.50745 1.51569,0.33837 l 1.85635,-0.84359 c 0.50578,-0.16909 0.8435,-0.84304 0.67441,-1.34882 l -0.16918,-1.3488 c 1.17917,-0.50579 2.19138,-1.17927 3.37203,-2.02323 13.99281,-9.27168 6.91131,-17.02704 2.35927,-20.73512 -4.38295,-3.709563 0.67514,-7.251615 6.06966,-7.251615 1.51734,0 4.21553,0.169278 5.90048,0.338367 0.33818,0 0.50588,-0.50532 0.16919,-0.674408 -4.21535,-2.359822 -8.09188,-2.697999 -11.12657,-1.85404 l -0.33835,-0.338367 c -0.3367,-0.336693 -0.67385,-0.505129 -1.17964,-0.336041 l -1.51799,0.674408 c -0.50579,0.167605 -0.6721,0.674586 -0.6721,1.012763 v 0.505224 c -0.84396,0.505782 -1.51743,1.011481 -2.02321,1.684868 l -0.67441,-0.336053 c -0.22932,-0.07665 -0.41944,-0.04046 -0.57938,0.04402 3.262,-9.279431 -2.08812,-20.373578 -2.08812,-20.373578 -3.68834,-13.048358 -18.97396,-15.165559 -28.1675,-15.214719 z m 28.97864,38.332275 c 0.0432,0.08674 0.0954,0.17151 0.16918,0.245659 l 0.33837,0.336053 c -0.50578,1.180653 -0.67441,2.193609 -0.67441,3.205169 l -0.67672,0.67208 c -0.3367,0.33818 -0.33596,0.84527 -0.16687,1.18196 l 0.84359,1.51567 c 0.16909,0.3367 0.67385,0.67664 1.17963,0.50755 l 0.67441,-0.16918 c 1.51735,1.68643 3.37258,2.69652 2.8668,5.56212 -0.67487,3.70957 -4.7213,6.06957 -14.83694,5.90048 -5.30889,-0.14266 -12.51848,-3.16103 -16.22053,-5.09861 1.99599,-0.79034 4.28136,-1.43553 6.72089,-2.50296 2.94658,-0.41223 7.37797,-1.54954 14.29928,-5.83327 2.51052,-1.55364 4.26995,-3.453209 5.48332,-5.522721 z m -42.483,3.956061 c 3.54047,0 6.40571,2.86523 6.40571,6.4057 0,3.54048 -2.86524,6.40572 -6.40571,6.40572 -3.54048,0 -6.40571,-2.86524 -6.40571,-6.40572 0,-3.54047 2.86523,-6.4057 6.40571,-6.4057 z"
       style="fill:#1fa0ed;fill-opacity:1;fill-rule:nonzero;stroke:#000000;stroke-width:1.18658543;stroke-opacity:0.16862745" />
    <path
       inkscape:connector-curvature="0"
       id="path1073"
       style="fill:#1fa0ed;fill-opacity:1;fill-rule:nonzero;stroke:none"
       d="m 145.73013,99.66833 c 0,0 -0.84248,4.72113 3.70956,4.72113 4.55056,0 3.70808,-4.72113 3.70808,-4.72113 -3.87717,2.35982 -7.41764,0 -7.41764,0" />
  </g>
</svg>
